<svg xmlns="http://www.w3.org/2000/svg" width="300" height="175" viewBox="0 0 300 175" version="1.1"><path d="M 210 1.516 C 202.507 5.847, 174.177 13.282, 129.562 22.626 C 76.973 33.640, 49.532 41.313, 31 50.188 C 24.125 53.480, 20.971 55.810, 14.500 62.379 C 4.321 72.712, 0.657 79.664, 0.155 89.597 C -0.409 100.761, 3.644 105.953, 10.890 103.350 C 13.444 102.432, 13.493 102.243, 13.172 94.555 C 12.744 84.312, 14.568 79.473, 21.054 73.642 C 25.723 69.443, 34.703 65.057, 41.721 63.547 L 44.942 62.854 41.558 68.474 C 39.185 72.415, 37.379 77.590, 35.512 85.797 C 31.947 101.474, 32.190 100.816, 29.699 101.512 C 22.821 103.432, 20.549 106.381, 19.426 114.844 C 18.665 120.584, 19.157 120.965, 23.854 118.269 C 25.513 117.317, 27.146 116.813, 27.483 117.150 C 27.820 117.487, 26.412 126.395, 24.355 136.945 C 20.978 154.261, 20.725 156.656, 21.752 161.553 C 23.016 167.580, 25.175 171.040, 29.154 173.416 C 32.384 175.343, 38.958 175.483, 41.429 173.676 C 43.097 172.456, 43.142 171.772, 42 165 C 40.478 155.977, 41.054 149.878, 45.412 128.840 C 49.126 110.916, 49.671 109.961, 57.345 107.922 C 63.432 106.303, 67.295 103.598, 69.746 99.238 C 71.656 95.840, 73.911 87, 72.868 87 C 72.654 87, 68.884 88.570, 64.490 90.488 C 55.416 94.449, 52.598 94.896, 53.387 92.250 C 53.674 91.287, 55.294 84.875, 56.987 78 C 60.877 62.202, 61.688 60.208, 64.891 58.578 C 66.326 57.847, 74.250 55.807, 82.500 54.043 C 122.667 45.457, 188.219 30.750, 194.023 29.022 C 205.698 25.547, 212.709 17.302, 213.750 5.822 C 214.310 -0.358, 213.953 -0.769, 210 1.516 M 291.331 19.920 C 281.969 24.349, 277.779 29.131, 274.500 39.127 C 270.487 51.361, 266.440 58.364, 258.753 66.377 C 252.280 73.125, 252.023 73.287, 253.878 69.450 C 256.186 64.677, 259 51.799, 259 46.010 C 259 36.174, 253.761 31.592, 245.124 33.875 C 238.568 35.607, 230.503 40.700, 225.435 46.308 C 214.211 58.728, 210.561 78.715, 218.134 86.288 C 221.008 89.162, 221.331 89.238, 228.819 88.804 C 234.273 88.489, 238.198 87.598, 242.188 85.771 C 255.428 79.710, 270.055 66.945, 275.596 56.617 L 278.693 50.845 279.846 56.589 C 281.689 65.763, 281.299 79.745, 279.064 84.668 C 276.297 90.762, 269.806 96.510, 260.606 101.015 C 245.516 108.403, 202.359 120.329, 123 139.041 C 106.225 142.997, 90.172 147.100, 87.328 148.159 C 78.466 151.460, 73.020 159.440, 73.006 169.150 L 73 172.801 81.750 170.474 C 86.563 169.194, 106.025 164.022, 125 158.980 C 190.302 141.629, 249.357 124.171, 264.765 117.664 C 275.926 112.950, 281.531 109.545, 287.648 103.767 C 298.462 93.550, 300.292 81.553, 294.995 55.604 C 291 36.037, 291.167 29.468, 295.849 21.937 C 297.536 19.221, 298.598 17, 298.209 17.001 C 297.819 17.001, 294.724 18.315, 291.331 19.920 M 205.133 38.079 C 196.601 41.866, 193.612 45.191, 187.611 57.578 C 181.585 70.014, 172.098 84.657, 166.921 89.510 L 163.732 92.500 164.359 86.887 C 164.703 83.801, 166.175 77.276, 167.630 72.387 C 172.440 56.225, 172.472 56.072, 171.384 54.984 C 170.090 53.690, 150.563 58.162, 144.905 61.048 C 142.743 62.152, 139.586 64.955, 137.891 67.277 C 134.470 71.963, 127.246 85.971, 124.558 93.130 C 123.578 95.741, 120.861 99.666, 118.330 102.130 L 113.840 106.500 114.518 101.500 C 115.404 94.961, 118.413 83.001, 121.031 75.609 C 122.467 71.554, 122.795 69.395, 122.084 68.684 C 120.743 67.343, 104.338 70.407, 97.712 73.235 C 86.170 78.162, 74.117 99.635, 73.876 115.701 C 73.760 123.384, 75.495 126, 80.705 126 C 85.351 126, 88.749 124.045, 94.165 118.255 L 98.767 113.335 100.437 116.162 C 104.023 122.233, 110.306 121.106, 118.250 112.966 C 121.413 109.725, 124 107.662, 124 108.382 C 124 110.580, 127.489 113, 130.657 113 C 134.373 113, 141.899 108.132, 145.517 103.388 L 148.224 99.840 150.081 102.893 C 152.301 106.544, 155.947 107.679, 160.027 105.989 C 165.933 103.543, 177.087 89.641, 188.079 71.029 C 192.389 63.730, 192.505 63.627, 193.127 66.529 C 193.477 68.163, 193.817 73.497, 193.882 78.382 C 194.021 88.830, 192.497 92.228, 186.049 95.852 C 183.822 97.104, 182 98.799, 182 99.620 C 182 102.089, 190.625 105.302, 195.712 104.729 C 207.634 103.385, 212.390 88.699, 208.123 66.408 C 204.936 49.756, 205.187 46.743, 210.427 38.750 C 212.619 35.407, 211.480 35.263, 205.133 38.079 M 238.616 45.189 C 233.868 52.453, 228.573 69.797, 229.176 76.111 C 229.426 78.723, 229.958 79.500, 231.496 79.500 C 237.621 79.500, 247.602 44.406, 241.813 43.222 C 240.878 43.031, 239.453 43.908, 238.616 45.189 M 150.727 66.750 C 146.584 71.332, 137.242 95.583, 138.429 98.676 C 139.539 101.567, 141.919 99.682, 145.278 93.250 C 149.131 85.875, 155 69.979, 155 66.920 C 155 64.523, 152.820 64.436, 150.727 66.750 M 101.532 79.611 C 97.833 83.310, 89 105.172, 89 110.629 C 89 116.134, 92.091 113.829, 96.549 105 C 100.104 97.960, 105.882 80.883, 105.261 79.250 C 104.621 77.565, 103.466 77.677, 101.532 79.611" stroke="none" fill="#ffd444" fill-rule="evenodd"/><path d="" stroke="none" fill="#fcd444" fill-rule="evenodd"/></svg>