<svg xmlns="http://www.w3.org/2000/svg" width="1087" height="479" viewBox="0 0 1087 479" version="1.1"><path d="M 154.555 2.614 C 113.235 10.073, 73.881 39.253, 44.789 84 C 37.386 95.388, 23.247 123.339, 23.844 125.408 C 23.988 125.908, 23.643 126.602, 23.078 126.952 C 22.513 127.301, 21.882 128.467, 21.675 129.543 C 21.338 131.306, 20.221 134.489, 19.368 136.119 C 19.190 136.459, 24.097 137.542, 30.272 138.526 C 36.447 139.510, 41.826 140.807, 42.224 141.408 C 42.642 142.039, 43.655 140.708, 44.625 138.250 C 45.548 135.912, 46.712 134, 47.211 134 C 47.710 134, 47.809 133.500, 47.431 132.888 C 47.053 132.277, 47.139 131.489, 47.622 131.138 C 48.504 130.497, 49.760 127.973, 54.034 118.250 C 55.303 115.362, 56.602 112.995, 56.921 112.989 C 57.239 112.982, 58.393 111.070, 59.485 108.739 C 60.577 106.407, 61.751 104.275, 62.095 104 C 62.439 103.725, 63.507 101.967, 64.467 100.094 C 65.427 98.221, 66.993 95.851, 67.946 94.827 C 68.900 93.804, 70.315 91.736, 71.090 90.233 C 72.584 87.337, 73.575 85.908, 76 83.152 C 76.825 82.214, 78.773 79.884, 80.328 77.973 C 95.187 59.724, 117.456 42.769, 137.422 34.504 C 158.788 25.660, 186.847 24.680, 210.093 31.966 C 213.617 33.070, 216.851 33.980, 217.279 33.987 C 217.707 33.994, 217.932 28.038, 217.779 20.750 L 217.500 7.500 210.500 5.742 C 192.565 1.237, 169.368 -0.060, 154.555 2.614 M 318.446 9.165 C 326.556 17.924, 334.188 30.051, 337.102 38.807 C 341.400 51.721, 338.399 68.167, 327.033 94 C 324.734 99.225, 321.742 106.650, 320.384 110.500 C 319.027 114.350, 317.623 118.175, 317.265 119 C 316.907 119.825, 316.562 120.950, 316.499 121.500 C 316.120 124.769, 314.810 132.801, 314.378 134.500 C 314.031 135.861, 314.153 136.093, 314.758 135.226 C 315.776 133.769, 320.466 154.437, 319.480 156.033 C 319.109 156.633, 323.011 157, 329.765 157 L 340.647 157 338.254 149.865 C 333.542 135.814, 335.206 126.380, 347.474 97.594 C 356.100 77.354, 358.736 68.748, 359.589 58.042 C 360.800 42.839, 353.966 24.424, 341.762 10 L 335.416 2.500 323.584 2.217 L 311.752 1.934 318.446 9.165 M 403 2.808 C 403 3.545, 429.664 112.461, 434.139 130 C 435.191 134.125, 436.280 138.625, 436.559 140 C 436.964 141.994, 442.078 162.348, 444.442 171.371 C 447.563 183.289, 450.063 193.239, 450.416 195.149 C 450.656 196.442, 450.942 197.500, 451.053 197.500 C 451.259 197.500, 451.428 198.394, 452.567 205.500 C 453.287 209.983, 454 211.380, 454 208.305 L 454 206.276 466.484 208.440 L 478.967 210.604 478.431 208.052 C 478.135 206.648, 477.678 204.150, 477.413 202.500 C 477.149 200.850, 476.310 197.700, 475.548 195.500 C 474.786 193.300, 473.398 187.900, 472.463 183.500 C 471.528 179.100, 469.448 170.100, 467.841 163.500 C 466.233 156.900, 464.690 150.375, 464.411 149 C 463.783 145.904, 430.076 6.169, 429.374 3.750 C 428.923 2.200, 427.389 2, 415.933 2 C 408.820 2, 403 2.364, 403 2.808 M 631.682 2.750 C 631.442 3.163, 623.741 35.675, 614.569 75 C 605.397 114.325, 597.024 150.100, 595.962 154.500 C 594.899 158.900, 593.874 163.400, 593.683 164.500 C 593.492 165.600, 592.840 168.300, 592.234 170.500 C 591.628 172.700, 590.892 176.075, 590.599 178 C 590.306 179.925, 589.407 183.750, 588.602 186.500 C 587.796 189.250, 586.905 192.850, 586.622 194.500 C 586.338 196.150, 585.794 198.850, 585.412 200.500 C 585.031 202.150, 584.685 204.287, 584.645 205.250 C 584.604 206.213, 584.198 207, 583.742 207 C 583.286 207, 583.020 207.563, 583.153 208.250 C 583.525 210.186, 581.910 219.380, 581.002 220.500 C 580.555 221.050, 579.921 223.300, 579.591 225.500 C 579.205 228.075, 579.317 228.997, 579.905 228.089 C 580.686 226.880, 582.351 226.929, 591.484 228.427 C 603.938 230.471, 604.348 230.269, 605.549 221.500 C 606.478 214.719, 606.647 213.953, 607.981 210.500 C 608.619 208.850, 609.080 207.500, 609.006 207.500 C 608.932 207.500, 609.106 206.825, 609.393 206 C 609.680 205.175, 610.343 202.250, 610.867 199.500 C 611.390 196.750, 612.529 191.800, 613.396 188.500 C 615.318 181.193, 618.383 168.389, 640.088 77 C 649.428 37.675, 657.310 4.713, 657.602 3.750 C 658.090 2.146, 657.051 2, 645.126 2 C 637.972 2, 631.922 2.337, 631.682 2.750 M 738.079 6.721 C 737.263 9.766, 717.907 88.700, 694.608 184 C 692.658 191.975, 690.779 200.300, 690.433 202.500 C 690.086 204.700, 689.596 206.836, 689.344 207.246 C 689.093 207.657, 688.719 208.782, 688.515 209.746 C 686.271 220.329, 684.699 226.592, 683.124 231.230 C 682.428 233.282, 682.118 235.381, 682.435 235.895 C 682.753 236.409, 682.624 236.980, 682.150 237.165 C 681.675 237.349, 680.980 239.300, 680.606 241.500 C 680.176 244.028, 680.262 244.999, 680.840 244.140 C 681.606 243, 683.417 243.059, 692.023 244.504 C 701.971 246.174, 702.326 246.170, 703.370 244.364 C 703.963 243.339, 704.498 242.275, 704.560 242 C 704.622 241.725, 704.950 240.825, 705.288 240 C 705.626 239.175, 706.163 236.714, 706.481 234.531 C 706.799 232.348, 707.770 227.848, 708.638 224.531 C 709.507 221.214, 710.294 218.050, 710.387 217.500 C 710.480 216.950, 710.829 216.050, 711.163 215.500 C 711.683 214.642, 713.211 206.979, 713.150 205.533 C 713.138 205.260, 713.575 203.566, 714.119 201.768 C 714.664 199.971, 715.280 197.825, 715.489 197 C 719.325 181.836, 723.319 165.382, 735.995 112.535 C 744.301 77.904, 751.205 49.461, 751.338 49.328 C 751.471 49.195, 758.244 77.530, 766.389 112.293 C 785.214 192.645, 788.648 207.117, 790.644 214.500 C 791.536 217.800, 792.478 222.075, 792.737 224 C 792.996 225.925, 793.666 228.063, 794.226 228.750 C 794.787 229.438, 794.976 230, 794.647 230 C 794.318 230, 794.475 231.119, 794.995 232.486 C 795.515 233.854, 796.226 237.116, 796.574 239.736 C 796.923 242.356, 797.572 244.950, 798.015 245.500 C 798.458 246.050, 799.112 248.075, 799.469 250 C 800.708 256.699, 800.848 257.506, 800.939 258.500 C 801.189 261.229, 803.591 262.218, 814.516 264.086 C 821.040 265.202, 826.743 266.341, 827.189 266.617 C 827.635 266.892, 828 266.218, 828 265.118 C 828 264.018, 827.543 262.835, 826.984 262.490 C 826.425 262.144, 826.207 261.474, 826.500 261 C 826.793 260.526, 826.626 259.887, 826.130 259.580 C 825.190 259, 824.512 255.976, 823.420 247.500 C 823.065 244.750, 822.201 240.925, 821.498 239 C 820.796 237.075, 819.665 232.800, 818.986 229.500 C 817.880 224.133, 814.777 210.797, 813.401 205.500 C 813.116 204.400, 812.661 202.292, 812.391 200.815 C 812.121 199.339, 801.422 154.339, 788.616 100.815 L 765.331 3.500 752.212 3.221 L 739.093 2.943 738.079 6.721" stroke="none" fill="#e97c1b" fill-rule="evenodd"/><path d="M 314.299 136.250 C 314.321 140.512, 314.740 144, 315.229 144 C 315.718 144, 315.834 144.460, 315.486 145.022 C 314.683 146.323, 317.851 156, 319.080 156 C 320.369 156, 320.244 155.064, 317.075 141 L 314.258 128.500 314.299 136.250 M 17.882 139.250 C 17.816 140.488, 17.816 141.838, 17.882 142.250 C 17.947 142.662, 17.550 143, 17 143 C 16.450 143, 16.053 143.338, 16.118 143.750 C 16.184 144.162, 16.127 144.838, 15.993 145.250 C 15.860 145.662, 15.656 146.338, 15.541 146.750 C 15.426 147.162, 14.795 148.799, 14.139 150.386 C 13.483 151.974, 12.801 153.999, 12.623 154.886 C 12.446 155.774, 12.036 157.175, 11.713 158 C 11.390 158.825, 10.237 163.100, 9.151 167.500 C -2.913 216.360, -2.943 272.695, 9.069 320.272 C 24.925 383.079, 55.212 428.195, 97 451.258 C 112.042 459.560, 129.485 465.283, 151.500 469.140 C 161.371 470.870, 169.053 471.330, 194.804 471.735 C 212.022 472.006, 229.909 471.911, 234.554 471.524 L 243 470.820 243 392.410 L 243 314 192.500 314 L 142 314 142 327 L 142 340 180 340 L 218 340 218 392.481 L 218 444.962 215.250 445.722 C 213.738 446.140, 201.025 446.461, 187 446.437 C 147.981 446.369, 134.786 443.660, 113.500 431.348 C 94.473 420.342, 74.574 402.234, 64.021 386.321 C 57.783 376.914, 46.349 353.742, 42.151 342 C 30.652 309.837, 26 282.147, 26 245.862 C 26 216.637, 28.406 195.963, 34.653 171.500 C 36.058 166, 37.285 161.050, 37.382 160.500 C 37.478 159.950, 37.822 159.050, 38.147 158.500 C 38.875 157.267, 40.925 150.967, 41.434 148.396 C 42.248 144.294, 42.545 143.500, 43.750 142.202 C 44.438 141.462, 44.986 140.327, 44.970 139.679 C 44.953 139.030, 44.450 139.341, 43.853 140.370 C 43.255 141.398, 42.481 141.814, 42.133 141.293 C 41.568 140.447, 23.430 137, 19.545 137 C 18.645 137, 17.951 137.939, 17.882 139.250 M 310.021 159.068 C 281.030 166.658, 258.964 189.169, 251.986 218.274 C 241.820 260.678, 268.465 303.782, 311.146 313.976 C 315.599 315.040, 319.453 316.120, 319.710 316.376 C 319.966 316.633, 319.045 318.791, 317.663 321.171 C 311.254 332.211, 309.315 345.964, 312.606 357.046 C 314.235 362.530, 320.729 375.728, 332.512 397.500 C 348.160 426.415, 348.607 444.161, 334.391 472.215 C 333.076 474.810, 332 477.398, 332 477.967 C 332 478.615, 336.074 479, 342.926 479 L 353.852 479 357.942 468.410 C 363.951 452.854, 366.332 442.880, 366.394 433 C 366.481 419.119, 362.677 409.105, 347.247 382.598 C 331.151 354.947, 329.290 345.662, 336.165 327.289 C 338.514 321.011, 344.693 314, 347.877 314 C 349.080 314, 353.631 312.624, 357.991 310.943 C 375.907 304.034, 391.960 289.596, 400.358 272.838 C 406.714 260.153, 409 250.543, 409 236.500 C 409 222.612, 406.728 212.937, 400.547 200.500 C 390.412 180.110, 371.050 164.641, 348.590 158.990 C 337.890 156.298, 320.468 156.333, 310.021 159.068 M 317.075 169.087 C 306.110 171.239, 294.117 176.744, 287 182.894 L 283.500 185.919 287.068 185.959 C 293.136 186.028, 300.902 188.917, 305.017 192.634 C 309.164 196.381, 313 204.754, 313 210.058 L 313 213.041 316.960 211.020 C 319.138 209.909, 321.613 209, 322.460 209 C 324.549 209, 324.440 208.590, 321.143 204.039 C 313.752 193.835, 314.828 180.224, 323.777 170.750 L 326.374 168 323.937 168.110 C 322.597 168.170, 319.509 168.610, 317.075 169.087 M 337.893 173.590 C 345.260 183.878, 345.420 193.062, 338.419 203.750 C 335.845 207.680, 335.369 209, 336.530 209 C 337.382 209, 339.807 209.881, 341.918 210.958 L 345.756 212.916 346.895 207.127 C 349.252 195.148, 357.603 187.516, 369.719 186.265 L 375.394 185.680 371.455 182.275 C 366.057 177.608, 355.076 172.397, 345.590 169.999 C 333.413 166.922, 333.192 167.025, 337.893 173.590 M 275.133 195 C 267.779 204.992, 262.944 216.679, 261.577 227.762 L 260.928 233.024 266.056 229.143 C 276.496 221.241, 287.827 221.054, 297.747 228.621 C 299.608 230.040, 301.227 231.044, 301.343 230.851 C 301.460 230.658, 302.517 228.137, 303.692 225.250 L 305.828 220 303.092 220 C 298.786 220, 291.721 217.219, 287.784 213.973 C 283.235 210.224, 280.180 203.966, 279.205 196.398 L 278.445 190.500 275.133 195 M 380.580 195.657 C 377.993 210.322, 370.589 218.195, 357.979 219.689 L 353.096 220.267 355.048 224.094 C 356.122 226.198, 357 228.613, 357 229.460 C 357 231.492, 356.881 231.528, 363.547 227.514 C 375.005 220.614, 382.833 221.384, 395.838 230.688 L 398.177 232.361 397.464 227.431 C 395.784 215.801, 388.849 199.529, 383.071 193.657 C 381.314 191.870, 381.237 191.932, 380.580 195.657 M 454.133 209.390 C 454.273 211.101, 454.621 212.949, 454.906 213.498 C 455.191 214.046, 455.511 215.621, 455.616 216.998 C 455.722 218.374, 457.845 227.600, 460.333 237.500 C 462.822 247.400, 465.828 259.550, 467.013 264.500 C 468.199 269.450, 472.755 288.125, 477.138 306 C 501.995 407.371, 518 472.957, 518 473.445 C 518 473.750, 524.220 474, 531.823 474 L 545.646 474 570.396 369.750 C 584.008 312.413, 596.249 260.981, 597.597 255.459 C 598.945 249.936, 600.150 243.974, 600.274 242.211 C 600.398 240.447, 600.785 239.003, 601.133 239.002 C 602.330 238.998, 602.822 233.499, 601.742 232.194 C 600.939 231.222, 601.011 230.966, 602.021 231.194 C 602.769 231.362, 603.545 230.600, 603.744 229.500 C 604.015 228.009, 603.871 227.846, 603.176 228.862 C 602.396 230.002, 600.364 229.908, 590.721 228.287 C 581.612 226.757, 579.304 226.629, 579.706 227.675 C 579.985 228.404, 579.743 229, 579.168 229 C 578.593 229, 577.825 231.137, 577.461 233.750 C 577.097 236.363, 576.214 240.300, 575.498 242.500 C 574.782 244.700, 573.954 247.850, 573.658 249.500 C 572.845 254.023, 533.041 423.271, 532.383 425 C 532.069 425.825, 521.941 385.775, 509.877 336 C 497.812 286.225, 487.658 244.825, 487.312 244 C 486.966 243.175, 486.749 242.178, 486.830 241.785 C 486.911 241.391, 486.491 239.816, 485.896 238.285 C 484.816 235.499, 484.043 232.257, 483.564 228.500 C 483.424 227.400, 482.480 223, 481.465 218.721 C 479.998 212.535, 479.199 210.840, 477.560 210.440 C 476.427 210.163, 470.635 209.114, 464.689 208.109 L 453.879 206.281 454.133 209.390 M 323.211 218.129 C 318.313 219.541, 312.600 225.784, 311.011 231.461 C 309.395 237.233, 310.691 243.595, 314.502 248.591 C 320 255.799, 332.146 257.816, 339.750 252.784 C 358.905 240.108, 345.367 211.739, 323.211 218.129 M 261.633 245.723 C 262.623 253.588, 266.851 265.049, 271.555 272.618 C 277.910 282.846, 278.597 283.194, 279.285 276.528 C 280.509 264.664, 288.233 256.235, 300.001 253.920 L 305.664 252.806 303.582 247.530 L 301.500 242.254 297.500 244.947 C 288.282 251.152, 279.879 251.999, 271.195 247.599 C 268.416 246.190, 265.860 244.582, 265.515 244.024 C 265.171 243.467, 264.021 242.546, 262.960 241.978 C 261.147 241.008, 261.067 241.234, 261.633 245.723 M 394.500 243.589 C 384.561 251.927, 373.497 252.564, 362.866 245.410 C 357.050 241.496, 357 241.480, 357 243.540 C 357 244.387, 356.091 246.862, 354.980 249.040 C 353.139 252.648, 353.111 253, 354.664 253 C 355.602 253, 359.062 253.756, 362.354 254.679 C 372.450 257.512, 378.492 265.098, 380.529 277.500 L 381.186 281.500 383.638 278.500 C 387.720 273.504, 392.710 263.877, 394.780 257 C 396.615 250.909, 398.504 240.956, 397.811 241.036 C 397.640 241.056, 396.150 242.204, 394.500 243.589 M 679.590 247.066 C 678.696 249.302, 678.254 251.602, 678.610 252.178 C 678.965 252.753, 678.820 253.511, 678.286 253.862 C 677.506 254.375, 673.610 268.556, 671.518 278.500 C 671.286 279.600, 667.978 293.100, 664.165 308.500 C 660.353 323.900, 649.967 366.200, 641.085 402.500 C 632.204 438.800, 624.692 469.301, 624.392 470.280 C 623.885 471.933, 624.788 472.039, 637.151 471.780 L 650.456 471.500 666.457 404.750 L 682.458 338 751.052 338 L 819.646 338 831.423 388.250 C 837.900 415.887, 844.996 446.038, 847.192 455.250 L 851.184 472 864.092 472 C 871.192 472, 877 471.598, 877 471.107 C 877 469.697, 835.091 294.900, 833.817 291 C 833.189 289.075, 832.570 286.552, 832.441 285.393 C 831.906 280.568, 829.623 272, 828.872 272 C 828.427 272, 828.350 271.251, 828.701 270.336 C 829.128 269.225, 828.955 268.910, 828.181 269.388 C 827.442 269.845, 827.224 269.579, 827.580 268.653 C 828.375 266.580, 827.688 266.340, 814.516 264.086 C 807.991 262.970, 802.239 261.482, 801.732 260.779 C 801.064 259.851, 800.959 259.961, 801.347 261.179 C 801.642 262.102, 802.184 264.465, 802.553 266.429 C 802.921 268.393, 803.595 270, 804.049 270 C 804.504 270, 804.837 270.788, 804.790 271.750 C 804.663 274.327, 805.840 280.810, 807.467 286.500 C 808.253 289.250, 809.155 292.983, 809.471 294.796 C 810.467 300.515, 812.760 309.802, 813.452 310.923 C 813.925 311.688, 795.834 312, 750.992 312 C 691.332 312, 687.895 311.904, 688.407 310.250 C 689.106 307.990, 698.389 269.346, 700.117 261.500 C 700.845 258.200, 701.317 254.446, 701.168 253.159 C 701.018 251.871, 701.297 251.066, 701.788 251.369 C 702.279 251.673, 703.166 249.802, 703.759 247.212 C 704.683 243.173, 704.643 242.768, 703.479 244.360 C 702.176 246.141, 701.741 246.151, 692.687 244.608 C 687.498 243.724, 682.794 243, 682.235 243 C 681.675 243, 680.485 244.830, 679.590 247.066 M 312.670 265.142 C 311.907 271.584, 307.644 279.286, 303.114 282.406 C 301.126 283.775, 297.250 285.432, 294.500 286.087 C 283.463 288.718, 283.677 288.155, 291.737 293.384 C 295.717 295.967, 301.876 299.172, 305.425 300.508 C 311.485 302.789, 323.928 305.405, 324.760 304.574 C 324.967 304.366, 323.549 302.117, 321.609 299.575 C 313.913 289.492, 314.259 278.215, 322.601 267.278 C 324.816 264.374, 324.896 263.997, 323.301 263.978 C 322.310 263.966, 319.645 263.114, 317.377 262.084 L 313.254 260.211 312.670 265.142 M 340.500 262.418 C 337.750 263.522, 335.354 264.513, 335.176 264.620 C 334.998 264.727, 336.248 266.740, 337.953 269.093 C 342.464 275.321, 344.339 282.527, 343.001 288.497 C 341.738 294.133, 340.714 296.220, 336.705 301.334 L 333.699 305.168 338.600 304.477 C 349.441 302.948, 363.758 296.921, 371.500 290.626 L 374.500 288.186 370.500 287.529 C 360.651 285.911, 353.487 281.699, 350.266 275.631 C 349.352 273.909, 347.906 269.780, 347.052 266.455 L 345.500 260.410 340.500 262.418 M 960.746 347.754 L 919 389.509 961 431.500 L 1003 473.491 1044.500 432 C 1067.325 409.180, 1086 390.055, 1086 389.500 C 1086 388.511, 1003.974 306, 1002.991 306 C 1002.716 306, 983.706 324.789, 960.746 347.754" stroke="none" fill="#cc4814" fill-rule="evenodd"/></svg>