<svg xmlns="http://www.w3.org/2000/svg" width="1024" height="1024" viewBox="0 0 1024 1024" version="1.1"><path d="M 184.773 282.555 C 163.177 287.790, 147.119 308.722, 149.527 328.500 C 152.141 349.969, 167.328 364.756, 190.332 368.233 C 209.582 371.143, 230.150 360.605, 237.995 343.815 C 245.935 326.819, 242.694 307.911, 229.592 294.810 C 217.670 282.888, 201.565 278.484, 184.773 282.555 M 382 334.507 C 351.368 338.703, 328.753 349.841, 308 370.955 C 288.266 391.031, 277.464 413.776, 272.358 446.002 C 269.905 461.485, 270.143 490.896, 272.844 506 C 279.887 545.393, 295.750 571.949, 326.500 595.824 C 327.050 596.251, 328.175 596.919, 329 597.307 C 329.825 597.696, 332.300 599.139, 334.500 600.514 C 346.322 607.903, 359.516 612.864, 375.700 616.004 C 389.803 618.740, 416.339 619.053, 429.071 616.632 C 447.748 613.081, 462.047 606.457, 476.139 594.828 C 478.690 592.723, 481.120 591, 481.538 591 C 482.964 591, 481.219 622.194, 479.468 628 C 476.768 636.953, 472.174 644.516, 465.602 650.827 C 453.788 662.171, 440.262 666.872, 417 667.717 C 392.186 668.618, 370.996 664.131, 350.276 653.587 C 345.385 651.097, 338.964 648.542, 336.008 647.908 C 307.639 641.824, 283.932 668.284, 291.550 697.530 C 295.324 712.020, 304.687 720.425, 326.596 728.991 C 378.659 749.347, 451.862 747.137, 497.215 723.840 C 536.499 703.662, 559.039 669.781, 562.973 625 C 564.353 609.282, 564.338 378.734, 562.956 370 C 560.910 357.073, 553.136 346.766, 541.218 341.180 C 535.935 338.704, 534.511 338.500, 522.500 338.500 C 510.513 338.500, 509.058 338.707, 503.825 341.160 C 495.951 344.852, 489.270 351.297, 485.850 358.500 C 484.283 361.800, 483.001 365.131, 483.001 365.902 C 483 366.673, 480.413 364.852, 477.250 361.854 C 452.302 338.206, 420.874 329.183, 382 334.507 M 741.450 334.393 C 721.264 338.254, 708.834 344.075, 691.854 357.617 L 685.209 362.918 683.928 359.825 C 681.818 354.733, 675.557 347.562, 670.370 344.297 C 662.140 339.117, 656.213 337.718, 644.660 338.228 C 630.516 338.852, 624.529 341.285, 615.917 349.909 C 604.365 361.477, 605.542 340.996, 605.223 536 C 605.052 641.022, 605.313 707.882, 605.909 711.761 C 607.191 720.103, 610.450 726.320, 616.296 731.576 C 629.298 743.266, 650.682 746.283, 666.317 738.633 C 673.342 735.196, 680.710 727.814, 683.914 721 L 686.500 715.500 686.773 654.769 L 687.045 594.037 693.069 598.472 C 714.599 614.322, 738.531 620.461, 769.146 617.988 C 796.980 615.740, 816.666 609.420, 836.068 596.504 C 875.306 570.382, 896.205 523.392, 893.664 467 C 891.482 418.566, 873.989 381.821, 841.584 357.601 C 828.307 347.678, 807.066 338.820, 788.500 335.465 C 776.210 333.244, 750.520 332.659, 741.450 334.393 M 188 401.310 C 176.158 404.738, 165.986 413.156, 160.749 423.858 L 157.500 430.500 157.226 506.911 C 156.919 592.413, 156.651 588.756, 164.042 599.824 C 173.939 614.646, 193.506 621.547, 211.068 616.412 C 225.237 612.269, 236.935 599.729, 240.010 585.388 C 240.707 582.137, 240.967 555.377, 240.781 505.992 L 240.500 431.500 237.315 424.777 C 232.937 415.535, 226.344 408.774, 217.401 404.354 C 211.055 401.217, 208.991 400.708, 201.311 400.381 C 195.917 400.152, 190.755 400.512, 188 401.310 M 396.202 410.022 C 375.187 415.528, 359.782 431.424, 353.876 453.700 C 351.118 464.099, 350.897 484.332, 353.431 494.500 C 359.211 517.699, 375.147 535.121, 396.552 541.641 C 400.976 542.988, 405.702 543.443, 415 543.415 C 425.862 543.383, 428.452 543.038, 434.764 540.784 C 444.496 537.309, 450.601 533.226, 458.360 525.001 C 465.552 517.377, 471.825 505.874, 474.720 495 C 477.122 485.981, 477.064 463.082, 474.618 454 C 471.408 442.085, 466.345 433.217, 458.059 425 C 449.295 416.308, 443.196 412.736, 432.415 409.978 C 422.147 407.352, 406.319 407.372, 396.202 410.022 M 732.601 409.594 C 712.049 414.567, 695.849 431.285, 689.860 453.700 C 687.118 463.961, 686.880 484.211, 689.379 494.500 C 692.926 509.101, 702.773 524.529, 713.946 532.991 C 730.321 545.394, 757.643 547.406, 777.930 537.702 C 786.878 533.423, 799.256 521.082, 804.229 511.484 C 815.961 488.837, 815.589 458.606, 803.303 436.370 C 796.618 424.272, 781.143 412.897, 766.754 409.504 C 758.855 407.642, 740.469 407.690, 732.601 409.594" stroke="none" fill="#fcfbfb" fill-rule="evenodd"/><path d="M 0 512.001 L 0 1024.002 512.250 1023.751 L 1024.500 1023.500 1024.751 511.750 L 1025.002 0 512.501 0 L 0 0 0 512.001 M 0.496 512.500 C 0.496 794.100, 0.610 909.151, 0.750 768.168 C 0.890 627.186, 0.890 396.786, 0.750 256.168 C 0.610 115.551, 0.496 230.900, 0.496 512.500 M 184.773 282.555 C 163.177 287.790, 147.119 308.722, 149.527 328.500 C 152.141 349.969, 167.328 364.756, 190.332 368.233 C 209.582 371.143, 230.150 360.605, 237.995 343.815 C 245.935 326.819, 242.694 307.911, 229.592 294.810 C 217.670 282.888, 201.565 278.484, 184.773 282.555 M 382 334.507 C 351.368 338.703, 328.753 349.841, 308 370.955 C 288.266 391.031, 277.464 413.776, 272.358 446.002 C 269.905 461.485, 270.143 490.896, 272.844 506 C 279.887 545.393, 295.750 571.949, 326.500 595.824 C 327.050 596.251, 328.175 596.919, 329 597.307 C 329.825 597.696, 332.300 599.139, 334.500 600.514 C 346.322 607.903, 359.516 612.864, 375.700 616.004 C 389.803 618.740, 416.339 619.053, 429.071 616.632 C 447.748 613.081, 462.047 606.457, 476.139 594.828 C 478.690 592.723, 481.120 591, 481.538 591 C 482.964 591, 481.219 622.194, 479.468 628 C 476.768 636.953, 472.174 644.516, 465.602 650.827 C 453.788 662.171, 440.262 666.872, 417 667.717 C 392.186 668.618, 370.996 664.131, 350.276 653.587 C 345.385 651.097, 338.964 648.542, 336.008 647.908 C 307.639 641.824, 283.932 668.284, 291.550 697.530 C 295.324 712.020, 304.687 720.425, 326.596 728.991 C 378.659 749.347, 451.862 747.137, 497.215 723.840 C 536.499 703.662, 559.039 669.781, 562.973 625 C 564.353 609.282, 564.338 378.734, 562.956 370 C 560.910 357.073, 553.136 346.766, 541.218 341.180 C 535.935 338.704, 534.511 338.500, 522.500 338.500 C 510.513 338.500, 509.058 338.707, 503.825 341.160 C 495.951 344.852, 489.270 351.297, 485.850 358.500 C 484.283 361.800, 483.001 365.131, 483.001 365.902 C 483 366.673, 480.413 364.852, 477.250 361.854 C 452.302 338.206, 420.874 329.183, 382 334.507 M 741.450 334.393 C 721.264 338.254, 708.834 344.075, 691.854 357.617 L 685.209 362.918 683.928 359.825 C 681.818 354.733, 675.557 347.562, 670.370 344.297 C 662.140 339.117, 656.213 337.718, 644.660 338.228 C 630.516 338.852, 624.529 341.285, 615.917 349.909 C 604.365 361.477, 605.542 340.996, 605.223 536 C 605.052 641.022, 605.313 707.882, 605.909 711.761 C 607.191 720.103, 610.450 726.320, 616.296 731.576 C 629.298 743.266, 650.682 746.283, 666.317 738.633 C 673.342 735.196, 680.710 727.814, 683.914 721 L 686.500 715.500 686.773 654.769 L 687.045 594.037 693.069 598.472 C 714.599 614.322, 738.531 620.461, 769.146 617.988 C 796.980 615.740, 816.666 609.420, 836.068 596.504 C 875.306 570.382, 896.205 523.392, 893.664 467 C 891.482 418.566, 873.989 381.821, 841.584 357.601 C 828.307 347.678, 807.066 338.820, 788.500 335.465 C 776.210 333.244, 750.520 332.659, 741.450 334.393 M 188 401.310 C 176.158 404.738, 165.986 413.156, 160.749 423.858 L 157.500 430.500 157.226 506.911 C 156.919 592.413, 156.651 588.756, 164.042 599.824 C 173.939 614.646, 193.506 621.547, 211.068 616.412 C 225.237 612.269, 236.935 599.729, 240.010 585.388 C 240.707 582.137, 240.967 555.377, 240.781 505.992 L 240.500 431.500 237.315 424.777 C 232.937 415.535, 226.344 408.774, 217.401 404.354 C 211.055 401.217, 208.991 400.708, 201.311 400.381 C 195.917 400.152, 190.755 400.512, 188 401.310 M 396.202 410.022 C 375.187 415.528, 359.782 431.424, 353.876 453.700 C 351.118 464.099, 350.897 484.332, 353.431 494.500 C 359.211 517.699, 375.147 535.121, 396.552 541.641 C 400.976 542.988, 405.702 543.443, 415 543.415 C 425.862 543.383, 428.452 543.038, 434.764 540.784 C 444.496 537.309, 450.601 533.226, 458.360 525.001 C 465.552 517.377, 471.825 505.874, 474.720 495 C 477.122 485.981, 477.064 463.082, 474.618 454 C 471.408 442.085, 466.345 433.217, 458.059 425 C 449.295 416.308, 443.196 412.736, 432.415 409.978 C 422.147 407.352, 406.319 407.372, 396.202 410.022 M 732.601 409.594 C 712.049 414.567, 695.849 431.285, 689.860 453.700 C 687.118 463.961, 686.880 484.211, 689.379 494.500 C 692.926 509.101, 702.773 524.529, 713.946 532.991 C 730.321 545.394, 757.643 547.406, 777.930 537.702 C 786.878 533.423, 799.256 521.082, 804.229 511.484 C 815.961 488.837, 815.589 458.606, 803.303 436.370 C 796.618 424.272, 781.143 412.897, 766.754 409.504 C 758.855 407.642, 740.469 407.690, 732.601 409.594" stroke="none" fill="#fc3c5c" fill-rule="evenodd"/></svg>