<svg id="Layer_1" data-name="Layer 1" xmlns="http://www.w3.org/2000/svg" width="471.68" height="256.64" viewBox="0 0 471.68 256.64"><defs><style>.cls-1{fill:#d5ac5c;isolation:isolate;}.cls-2{fill:none;}</style></defs><title>wow-skin-science-logo-freelogovectors.net</title><path d="M293.18,185.71h24c1.28,21.92,2.55,43.7,3.82,65.48l.54.22c.45-.93.93-1.85,1.35-2.8,8.74-20,17.52-40,26.15-60.06,1-2.37,2.26-3.14,4.77-3.06,6.28.18,12.56.06,19.17.06,1.49,21.5,3,42.81,4.44,64.12l.52.13c2-4.23,4-8.46,6-12.67,11.54-23.67,24.44-46.54,40.75-67.33,8.25-10.5,17.26-20.27,28.53-27.67a47.63,47.63,0,0,1,18-7.53L467.12,139c-16.21,17.3-28.61,37.23-39.81,58-17.55,32.53-31.73,66.54-43.86,101.42-.77,2.22-1.78,3-4.15,2.92-5.76-.19-11.54-.06-17.67-.06-2.29-23.2-4.55-46.21-6.82-69.22l-.57-.17c-.56,1.14-1.15,2.28-1.69,3.43-9.63,20.74-19.3,41.46-28.82,62.25-1,2.16-2.14,2.79-4.39,2.73-5.75-.16-11.52-.06-17.58-.06C298.9,262,296.05,224,293.18,185.7Z" transform="translate(-14.16 -121.68)"/><path d="M28.76,185.68H50.05c1.31,21.24,2.62,42.39,4,64.43.84-1.71,1.35-2.65,1.78-3.63,8.47-19.33,17-38.65,25.35-58,1-2.23,2.07-3.05,4.53-3,5.74.21,11.5.07,17.46.07,2.73,21.1,5.43,41.91,8.12,62.72l.6.13c.35-.84.75-1.69,1.07-2.55,7.19-19.19,14.4-38.37,21.49-57.6.77-2.1,1.76-2.8,4-2.75,6.69.15,13.39.05,20.52.05-2.1,6.27-4.07,12.21-6.09,18.13-10.67,31.28-21.42,62.54-32,93.86-1,3-2.27,4-5.38,3.81-5.54-.29-11.1-.08-16.79-.08-4.09-22.57-8.12-44.84-12.16-67.12l-.63-.21c-.5,1.11-1,2.2-1.51,3.32-8.3,20.31-16.64,40.6-24.82,60.95-1,2.41-2.17,3.21-4.72,3.12-5.56-.2-11.13-.06-17.24-.06C34.66,262.77,31.72,224.39,28.76,185.68Z" transform="translate(-14.16 -121.68)"/><path d="M228.29,182.45a71,71,0,0,1,23.47,3.39C269,191.55,279,203.61,281.6,221.42c2.7,18.55-.45,36.26-10.54,52.24-11.52,18.23-28.64,27.62-49.78,30.19A80,80,0,0,1,193,302.42c-20.08-4.75-32.41-17.72-35.35-38.17-3-21.12,2-40.41,15.6-57,13.39-16.37,32.47-24.75,55-24.75Zm26.32,50.75c0-1.85.12-3.72,0-5.56-.89-11.43-7.36-20.51-17.27-23.32-13-3.66-25.17-1.75-35.23,7.54-14.21,13.13-19,30.08-17.13,48.86,1,10.33,6.28,18.41,16.76,21.6,13.19,4,25.43,1.77,35.76-7.53,12.25-11.05,16.6-25.61,17.13-41.6Z" transform="translate(-14.16 -121.68)"/><path d="M149.82,364.57c-3.26.61-5.8.44-8-2.72-4.11-5.9-8.73-11.44-13.67-17.82v20.5h-5.94V334.66c4.5-1.22,5.38-.91,8.19,2.72,4.39,5.68,8.79,11.34,13.77,17.76V334.41h5.65v30.16Z" transform="translate(-14.16 -121.68)"/><path d="M280.17,334.48c3.88-1,6.32.2,8.52,3.36,3.93,5.65,8.37,10.94,13.14,17.08V334.43h6v30.08c-3.09.58-5.68.83-8-2.43-4.23-6-9-11.71-14-18.25v20.73h-5.61V334.48Z" transform="translate(-14.16 -121.68)"/><path d="M195.1,344h-5.27c-2.32-4.73-6.78-6.62-11.82-4.63a4.71,4.71,0,0,0-2.53,3c-.13.66,1.46,2.13,2.52,2.47,3.23,1,6.59,1.58,9.88,2.42,5.64,1.46,8.63,4.58,8.51,8.77s-3.49,8.2-8.91,8.77a37.65,37.65,0,0,1-13-1c-4.4-1.12-6.5-5.07-6.33-9.74l5.24-.57A10.16,10.16,0,0,0,188,359.06a4.3,4.3,0,0,0,2.12-3,4,4,0,0,0-2.32-2.76c-2.9-1-6-1.56-8.93-2.4a25.8,25.8,0,0,1-5.5-1.93c-5.45-3-5.61-9.68-.44-13.1,4.85-3.22,14.19-3.06,18.82.42A7.73,7.73,0,0,1,195.1,344Z" transform="translate(-14.16 -121.68)"/><path d="M71.53,344H66.21c-2.56-4.88-5.61-6.36-11.17-4.83-1.34.36-2.35,1.91-3.52,2.92,1,1,1.94,2.41,3.17,2.82,3,1,6.21,1.45,9.3,2.26a18.31,18.31,0,0,1,4.31,1.66c5.31,3,5.85,9.52,1.17,13.41-5.13,4.26-16.78,4.14-21.79-.27a9.63,9.63,0,0,1-3.45-7.95l5.37-.67c1.8,7.08,8.5,7.77,13.67,6.09,1.31-.43,3-2.08,3.07-3.24s-1.69-2.75-3-3.21c-3.19-1.12-6.59-1.63-9.87-2.51-5.47-1.46-8.31-4.47-8.08-8.38.25-4.12,3.41-7,8.84-8.12a18.79,18.79,0,0,1,12.35,1.43c3.36,1.66,5,4.42,4.93,8.59Z" transform="translate(-14.16 -121.68)"/><path d="M248.61,364.61V334.42h25.65v4.75h-19.4v7.24H273v5H254.84v8.14h20.08v5H248.61Z" transform="translate(-14.16 -121.68)"/><path d="M372.78,346.37v5.05H354.57v8.13h20v5H348.34V334.44H374v4.68H354.59v7.24h18.19Z" transform="translate(-14.16 -121.68)"/><path d="M83.09,347.52c4.33-3.72,8.27-6.48,11.41-10,3.53-3.9,7.62-3.56,12.64-3.17L92.26,346.85,107,364.18c-5,1.63-7.47.93-10.49-2.8l-8.74-10.74c-1.85,2-4.89,2.6-4.62,6.09.19,2.54,0,5.11,0,7.75a9,9,0,0,1-1.4.31c-3.18.17-4.77-1.31-4.77-4.42V337.5c0-1,.09-2,.13-3.15h6v13.16Z" transform="translate(-14.16 -121.68)"/><path d="M230.53,343.62,225,344.77c-3.56-5.7-7.15-7.26-12.6-5.58-4.36,1.35-6.76,5.5-6.41,11.12s3.1,9.09,8,9.87c5.48.88,8.7-1.14,11.42-7.29l5.59,1.24c-1.24,7.76-7.49,11.69-17.36,11.08-8.18-.5-13.67-6.45-14-15.2s4.93-14.93,14-16.25c8.29-1.2,15.06,2.61,16.91,9.86Z" transform="translate(-14.16 -121.68)"/><path d="M338.54,352.89c1.83.42,3.72.84,5.59,1.28-1.78,8.2-8.09,12-18.11,11-7.88-.77-13.1-6.77-13.27-15.22-.18-9.11,4.81-14.87,14-16.19,8.25-1.18,15,2.67,16.79,9.82l-5.3,1.23c-3.69-6.46-7.25-7.24-13.42-5.32-4.19,1.3-6.25,5.81-5.75,11.52.45,5.13,3.11,8.3,7.7,9.15,5.38,1,8.52-.91,11.76-7.26Z" transform="translate(-14.16 -121.68)"/><path d="M115.62,364.69h-5.76V334.4h5.76Z" transform="translate(-14.16 -121.68)"/><path d="M241.66,364.64H236V334.41h5.7Z" transform="translate(-14.16 -121.68)"/><path class="cls-1" d="M40.45,313.77s187.35-.62,213.21,0,131.33,0,131.33,0-102.38,13-150.07,11.77c0,0-91,0-107.76-3.09,0,0-78-3.72-86.71-8.68Z" transform="translate(-14.16 -121.68)"/><rect class="cls-2" width="471.68" height="256.64"/></svg>