<svg xmlns="http://www.w3.org/2000/svg" width="2703" height="2378" viewBox="0 0 2703 2378" version="1.1"><path d="M 660.500 230.188 C 562.432 301.895, 472.602 391.983, 400.302 491.133 C 390.696 504.307, 363.494 544.352, 358.107 553.250 L 355.837 557 376.292 557 L 396.748 557 402.124 548.780 C 411.045 535.139, 436.946 499.218, 449.411 483.199 C 524.719 386.419, 612.736 303.741, 713.599 235.033 L 728.328 225 697.914 225.035 L 667.500 225.069 660.500 230.188 M 751.595 232.460 C 720.441 252.379, 681.880 279.995, 654 302.354 C 618.810 330.577, 593.813 353.061, 559.412 387.434 C 517.148 429.664, 486.114 465.353, 452.395 510.500 C 439.457 527.824, 420 555.380, 420 556.381 C 420 556.721, 425.564 557, 432.365 557 L 444.730 557 456.335 540.750 C 543.555 418.616, 658.597 312.431, 788.152 234.478 C 796.027 229.740, 802.665 225.669, 802.902 225.431 C 803.139 225.194, 794.318 225, 783.298 225 L 763.263 225 751.595 232.460 M 1286.693 226.787 C 1283.090 230.768, 1280.732 238.117, 1281.298 243.602 C 1282.750 257.671, 1292.494 266, 1307.500 266 C 1315.631 266, 1321.871 263.746, 1327.530 258.765 L 1332.170 254.680 1335.893 259.003 L 1339.616 263.326 1347.476 262.661 C 1351.799 262.296, 1355.542 261.792, 1355.792 261.541 C 1356.043 261.290, 1352.605 257.098, 1348.151 252.225 L 1340.053 243.365 1341.911 238.433 C 1342.933 235.720, 1344.086 231.588, 1344.472 229.250 L 1345.176 225 1338.588 225 C 1332.071 225, 1332 225.030, 1331.985 227.750 C 1331.955 233.100, 1330.549 233.460, 1326.798 229.077 L 1323.308 225 1305.809 225 C 1290.277 225, 1288.128 225.201, 1286.693 226.787 M 1581.286 255.707 C 1576.769 272.592, 1573.222 286.556, 1573.405 286.738 C 1574.246 287.579, 1614.573 297.926, 1619.240 298.499 C 1630.848 299.924, 1640.146 295.489, 1644.589 286.408 C 1649.539 276.290, 1648.130 265.653, 1641.050 259.695 L 1638.028 257.153 1641.116 256.475 C 1645.617 255.486, 1651.393 249.241, 1652.950 243.680 C 1654.499 238.147, 1653.905 231.031, 1651.601 227.514 L 1649.954 225 1634.227 225.077 L 1618.500 225.155 1625.709 227.173 C 1637.060 230.351, 1640.134 234.957, 1636.579 243.466 C 1635.175 246.826, 1630.719 250, 1627.405 250 C 1625.224 250, 1602.736 243.920, 1601.759 243.066 C 1601.352 242.710, 1602.097 238.499, 1603.415 233.709 L 1605.811 225 1597.655 225.004 L 1589.500 225.008 1581.286 255.707 M 1937.058 233.604 C 2059.961 307.555, 2168.990 406.434, 2255.606 522.500 C 2262.173 531.300, 2270.424 542.663, 2273.941 547.750 L 2280.336 557 2293.127 557 L 2305.918 557 2296.801 543.750 C 2284.244 525.501, 2255.608 487.443, 2241.427 470.156 C 2168.322 381.040, 2086.178 306.578, 1990.703 242.878 L 1963.906 225 1943.332 225 L 1922.757 225 1937.058 233.604 M 1999.550 225.839 C 2000.072 226.301, 2007.025 231.100, 2015 236.504 C 2131.192 315.232, 2242.449 427.669, 2320.508 545.250 L 2328.309 557 2348.689 557 C 2367.793 557, 2369.011 556.890, 2368.126 555.250 C 2366.050 551.405, 2342.159 515.682, 2333.182 503 C 2293.415 446.820, 2253.002 398.966, 2203.044 348.899 C 2159.019 304.778, 2122.106 272.544, 2075.650 237.655 L 2058.801 225 2028.700 225 C 2012.145 225, 1999.027 225.378, 1999.550 225.839 M 1301.252 230.516 C 1296.168 234.868, 1294.484 239.372, 1295.933 244.750 C 1298.715 255.082, 1310.648 257.927, 1319.116 250.276 C 1321.252 248.346, 1323 246.326, 1323 245.786 C 1323 244.310, 1307.784 227, 1306.486 227 C 1305.867 227, 1303.512 228.582, 1301.252 230.516 M 1035.033 233.230 C 1030.927 234.808, 1027.418 236.249, 1027.235 236.432 C 1027.053 236.614, 1025.372 245.870, 1023.500 257 C 1021.628 268.130, 1019.958 277.375, 1019.790 277.544 C 1019.621 277.713, 1012.286 272.035, 1003.491 264.927 C 994.696 257.819, 987.050 252.001, 986.500 251.997 C 984.560 251.984, 971 257.278, 971 258.049 C 971 258.478, 981.462 266.910, 994.250 276.787 L 1017.500 294.745 1022.995 309.465 C 1026.017 317.561, 1028.840 324.401, 1029.267 324.665 C 1030.342 325.329, 1042.128 320.742, 1042.638 319.462 C 1042.865 318.891, 1040.555 311.773, 1037.503 303.643 L 1031.955 288.862 1037.526 260.325 C 1040.589 244.629, 1042.962 231.466, 1042.798 231.073 C 1042.634 230.681, 1039.140 231.651, 1035.033 233.230 M 1597.507 256.250 C 1596.205 260.037, 1592 276.100, 1592 277.289 C 1592 278.843, 1615.138 285.378, 1620.692 285.392 C 1626.725 285.407, 1630.545 281.951, 1632.096 275.073 C 1633.063 270.788, 1631.146 265.797, 1627.655 263.509 C 1625.317 261.977, 1602.073 255.029, 1599.219 255.009 C 1598.514 255.004, 1597.744 255.563, 1597.507 256.250 M 1759 305.157 C 1741.675 321.668, 1727.500 335.597, 1727.500 336.109 C 1727.500 336.622, 1730.560 338.462, 1734.299 340.200 L 1741.098 343.358 1749.302 335.197 L 1757.506 327.036 1771.846 333.768 L 1786.187 340.500 1785.551 349.338 C 1785.201 354.199, 1784.659 359.455, 1784.346 361.019 C 1783.808 363.709, 1784.168 364.059, 1790.991 367.496 C 1794.959 369.494, 1798.432 370.902, 1798.708 370.625 C 1799.204 370.130, 1805.902 290.506, 1805.967 284.344 C 1805.998 281.424, 1805.507 280.958, 1799.388 278.094 C 1795.751 276.392, 1792.263 275.030, 1791.638 275.068 C 1791.012 275.105, 1776.325 288.645, 1759 305.157 M 1778.995 305.505 L 1766.588 317.942 1777.044 322.882 C 1782.795 325.599, 1787.604 327.720, 1787.732 327.596 C 1788.055 327.280, 1791.870 293.549, 1791.612 293.284 C 1791.496 293.166, 1785.819 298.665, 1778.995 305.505 M 854.352 317.784 C 848.999 319.697, 816 338.945, 816 340.155 C 816 340.534, 825.598 356.839, 837.329 376.389 L 858.658 411.934 876.079 401.425 C 885.661 395.644, 895.209 389.246, 897.299 387.207 C 905.460 379.242, 908.641 366.952, 905.606 355.109 C 901.892 340.611, 890.182 324.683, 879.338 319.377 C 872.053 315.813, 861.712 315.153, 854.352 317.784 M 856.425 331.775 C 849.399 334.266, 835.869 342.149, 836.215 343.549 C 836.372 344.183, 842.987 355.514, 850.915 368.729 L 865.330 392.756 872.915 388.229 C 891.416 377.187, 895.612 367.625, 888.528 352.651 C 880.040 334.708, 868.787 327.390, 856.425 331.775 M 1910.643 347.357 C 1908.639 350.266, 1907 352.869, 1907 353.141 C 1907 353.413, 1911.711 356.919, 1917.470 360.932 L 1927.939 368.228 1924.845 372.725 C 1923.144 375.198, 1914.157 388.028, 1904.876 401.235 C 1895.594 414.443, 1888.005 425.530, 1888.012 425.874 C 1888.035 427.107, 1899.112 434.171, 1900.293 433.707 C 1900.957 433.447, 1910.236 420.786, 1920.914 405.573 C 1934.103 386.782, 1940.775 378.083, 1941.720 378.446 C 1942.485 378.740, 1947.429 381.990, 1952.707 385.670 L 1962.302 392.359 1964.426 389.695 C 1965.595 388.230, 1967.332 385.709, 1968.286 384.093 L 1970.021 381.155 1944.761 363.419 C 1930.867 353.664, 1918.327 344.870, 1916.893 343.875 L 1914.286 342.067 1910.643 347.357 M 1327 373.605 C 1308.816 374.619, 1288.675 376.267, 1272.500 378.064 C 1123.640 394.604, 981.747 452.360, 862.586 544.916 L 847.671 556.500 864.249 556.774 L 880.826 557.048 893.850 547.534 C 1034.710 444.641, 1203.794 391.024, 1377 394.327 C 1420.297 395.153, 1453.150 398.158, 1494.500 405.076 C 1616.949 425.561, 1736.507 476.086, 1833.256 548.233 L 1845.012 557 1861.756 556.959 L 1878.500 556.919 1875 553.859 C 1873.075 552.176, 1862.500 544.029, 1851.500 535.755 C 1744.793 455.494, 1620.276 403.167, 1486.975 382.567 C 1469.531 379.872, 1443.165 376.825, 1421.500 375.002 C 1408.670 373.922, 1339.617 372.901, 1327 373.605 M 1336 418.139 L 1336 423.279 1341.250 422.648 C 1344.138 422.301, 1348.862 422.013, 1351.750 422.009 L 1357 422 1357 417.500 L 1357 413 1346.500 413 L 1336 413 1336 418.139 M 1366 417.349 L 1366 421.698 1375.626 422.331 C 1380.920 422.678, 1385.645 422.720, 1386.126 422.422 C 1386.606 422.125, 1387 419.884, 1387 417.441 L 1387 413 1376.500 413 L 1366 413 1366 417.349 M 1310.250 414.732 L 1306 415.115 1306 419.557 L 1306 424 1311.250 423.991 C 1314.138 423.987, 1318.862 423.699, 1321.750 423.352 L 1327 422.721 1327 418.361 L 1327 414 1320.750 414.175 C 1317.313 414.271, 1312.588 414.522, 1310.250 414.732 M 1396 418.358 L 1396 422.715 1402.147 423.358 C 1413.350 424.529, 1415.696 424.263, 1416.370 421.750 C 1417.830 416.302, 1417.270 415.309, 1412.360 414.636 C 1409.809 414.286, 1405.084 414, 1401.860 414 L 1396 414 1396 418.358 M 1285 416.688 C 1276.094 417.359, 1275.685 417.615, 1276.291 422.133 C 1276.588 424.351, 1277.029 426.362, 1277.270 426.603 C 1277.652 426.985, 1297.352 425.108, 1297.589 424.667 C 1297.638 424.575, 1297.479 422.587, 1297.234 420.250 C 1296.740 415.523, 1297.506 415.746, 1285 416.688 M 1425.986 418.142 C 1425.979 419.439, 1425.712 421.472, 1425.393 422.660 C 1424.851 424.680, 1425.261 424.863, 1431.657 425.460 C 1435.421 425.812, 1440.132 426.332, 1442.126 426.617 L 1445.753 427.134 1446.451 422.475 C 1446.836 419.913, 1447.004 417.683, 1446.825 417.520 C 1446.646 417.357, 1441.888 416.899, 1436.250 416.504 L 1426 415.784 1425.986 418.142 M 1254.773 420.430 C 1250.523 421.085, 1246.795 421.871, 1246.490 422.177 C 1245.775 422.892, 1247.054 431.006, 1247.878 430.982 C 1250.209 430.915, 1267.314 428.019, 1267.709 427.625 C 1267.978 427.355, 1267.889 425.304, 1267.511 423.067 C 1266.729 418.436, 1267.148 418.523, 1254.773 420.430 M 1455.630 421.250 C 1454.137 426.821, 1454.713 427.838, 1459.750 428.527 C 1462.362 428.884, 1466.877 429.521, 1469.781 429.942 C 1472.686 430.363, 1475.228 430.436, 1475.430 430.104 C 1475.631 429.772, 1475.954 427.703, 1476.148 425.507 L 1476.500 421.514 1469 420.320 C 1457.778 418.533, 1456.331 418.634, 1455.630 421.250 M 1225.751 424.945 C 1220.939 425.891, 1216.854 426.853, 1216.673 427.082 C 1216.492 427.312, 1216.752 429.456, 1217.250 431.846 C 1218.043 435.649, 1218.427 436.121, 1220.328 435.617 C 1221.523 435.300, 1225.987 434.504, 1230.250 433.848 C 1237.609 432.714, 1237.999 432.524, 1237.986 430.077 C 1237.966 426.152, 1236.896 422.987, 1235.633 423.113 C 1235.010 423.175, 1230.563 423.999, 1225.751 424.945 M 1484.766 427.250 C 1484.521 429.587, 1484.421 431.634, 1484.542 431.798 C 1484.999 432.415, 1503.945 435.389, 1504.416 434.917 C 1504.687 434.647, 1505.199 432.610, 1505.553 430.393 L 1506.198 426.360 1496.791 424.680 C 1491.618 423.756, 1486.896 423, 1486.298 423 C 1485.699 423, 1485.010 424.913, 1484.766 427.250 M 701.892 426.296 C 672.709 438.604, 667.490 472.923, 691.332 495.745 C 698.988 503.074, 704.690 506.449, 713.009 508.581 C 730.073 512.952, 749.076 503.740, 757.259 487.130 C 760.004 481.558, 760.548 479.246, 760.813 472.025 C 761.320 458.193, 756.632 447.677, 745.021 436.601 C 736.274 428.258, 727.967 424.662, 716.500 424.252 C 708.827 423.978, 706.673 424.280, 701.892 426.296 M 1514.448 432.500 C 1514.069 435.026, 1513.926 437.217, 1514.130 437.370 C 1514.333 437.522, 1518.851 438.559, 1524.169 439.674 L 1533.838 441.701 1534.964 437.229 C 1535.583 434.769, 1535.957 432.666, 1535.795 432.554 C 1535.633 432.443, 1531.675 431.571, 1527 430.617 C 1522.325 429.664, 1517.743 428.664, 1516.818 428.396 C 1515.477 428.007, 1514.997 428.838, 1514.448 432.500 M 1195.178 431.198 C 1188.682 432.747, 1186.982 433.509, 1187.428 434.673 C 1187.743 435.493, 1188.007 436.914, 1188.015 437.832 C 1188.054 442.006, 1189.251 442.234, 1199.099 439.943 C 1204.270 438.741, 1208.657 437.617, 1208.849 437.446 C 1209.041 437.275, 1208.889 435.304, 1208.511 433.067 C 1207.702 428.277, 1207.528 428.253, 1195.178 431.198 M 1168.014 437.709 C 1162.797 439.045, 1158.380 440.287, 1158.198 440.468 C 1157.629 441.038, 1160.041 448.999, 1160.789 449.016 C 1161.180 449.025, 1165.686 448.031, 1170.803 446.807 L 1180.105 444.581 1179.450 440.541 C 1179.089 438.318, 1178.503 436.225, 1178.147 435.890 C 1177.791 435.554, 1173.231 436.373, 1168.014 437.709 M 1543.625 438.125 C 1542.544 443.529, 1542.692 443.677, 1551.332 445.844 C 1555.915 446.994, 1560.354 448.199, 1561.197 448.522 C 1562.344 448.962, 1563.003 448.031, 1563.820 444.811 C 1564.420 442.446, 1564.594 440.245, 1564.206 439.920 C 1563.290 439.152, 1547.719 435, 1545.755 435 C 1544.869 435, 1543.993 436.286, 1543.625 438.125 M 708.500 437.914 C 700.558 439.904, 692.850 447.135, 690.878 454.447 C 687.540 466.819, 697.341 484.409, 712.067 492.477 C 716.515 494.914, 718.692 495.458, 724.074 495.477 C 729.667 495.497, 731.378 495.049, 735.543 492.476 C 738.235 490.813, 741.802 487.512, 743.469 485.140 C 746.205 481.248, 746.500 480.081, 746.500 473.164 C 746.500 463.576, 744.147 458.368, 735.767 449.410 C 727.208 440.261, 716.742 435.848, 708.500 437.914 M 1573.333 443.574 C 1573.039 444.341, 1572.731 446.403, 1572.649 448.156 C 1572.501 451.324, 1572.558 451.363, 1581.486 454.136 C 1586.429 455.671, 1590.755 456.606, 1591.100 456.214 C 1592.069 455.110, 1594.062 448.728, 1593.585 448.252 C 1593.352 448.019, 1588.820 446.557, 1583.515 445.004 C 1575.646 442.701, 1573.769 442.437, 1573.333 443.574 M 1138.306 446.090 L 1129.113 449.025 1130.144 452.262 C 1130.712 454.043, 1131.334 456.026, 1131.526 456.670 C 1131.770 457.486, 1134.820 456.956, 1141.606 454.918 C 1146.958 453.311, 1151.488 451.846, 1151.672 451.661 C 1152.280 451.053, 1149.358 443.618, 1148.419 443.384 C 1147.913 443.258, 1143.363 444.476, 1138.306 446.090 M 1601.089 455.097 C 1600.414 457.351, 1600.007 459.340, 1600.185 459.518 C 1600.807 460.140, 1617.394 466, 1618.533 466 C 1619.561 466, 1622.604 458.176, 1621.819 457.551 C 1621.206 457.062, 1603.889 451, 1603.106 451 C 1602.672 451, 1601.764 452.844, 1601.089 455.097 M 1110.103 455.056 C 1105.484 456.654, 1101.515 458.151, 1101.283 458.383 C 1100.713 458.954, 1103.162 467, 1103.906 467 C 1106.472 467, 1123 460.566, 1123 459.567 C 1123 456.995, 1120.769 452.002, 1119.652 452.075 C 1119.018 452.117, 1114.721 453.458, 1110.103 455.056 M 2026.500 483.501 L 1996.500 512.860 2001.946 518.410 L 2007.392 523.960 2020.595 510.980 C 2027.857 503.841, 2033.996 498, 2034.238 498 C 2034.481 498, 2040.222 503.885, 2046.997 511.078 L 2059.316 524.156 2046.658 536.842 C 2039.696 543.819, 2034 550, 2034 550.577 C 2034 551.154, 2035.290 552.862, 2036.868 554.373 C 2039.286 556.690, 2040.450 557.072, 2044.296 556.810 C 2048.795 556.504, 2049.236 556.132, 2076.505 529.587 L 2104.152 502.674 2098.579 497.101 L 2093.005 491.527 2081.502 502.998 L 2069.998 514.469 2056.999 501.499 L 2044.001 488.529 2055.737 476.762 L 2067.473 464.995 2061.987 459.568 L 2056.500 454.141 2026.500 483.501 M 1629.550 464.534 C 1627.504 469.431, 1627.545 469.641, 1630.750 470.790 C 1632.263 471.331, 1636.565 472.941, 1640.310 474.365 L 1647.121 476.956 1648.622 473.361 C 1649.449 471.384, 1649.925 469.257, 1649.682 468.633 C 1649.438 468.010, 1645.698 466.199, 1641.370 464.608 C 1637.041 463.018, 1632.960 461.516, 1632.300 461.271 C 1631.636 461.024, 1630.409 462.480, 1629.550 464.534 M 1082.032 465.470 C 1077.374 467.307, 1073.426 469.222, 1073.258 469.726 C 1073.090 470.230, 1073.641 472.290, 1074.483 474.304 L 1076.013 477.966 1081.256 475.867 C 1084.140 474.713, 1088.412 473.104, 1090.750 472.291 C 1093.088 471.477, 1095 470.324, 1095 469.727 C 1095 467.443, 1092.550 462.003, 1091.549 462.065 C 1090.972 462.101, 1086.689 463.634, 1082.032 465.470 M 1657.480 475.394 C 1656.666 477.342, 1656 479.306, 1656 479.758 C 1656 480.511, 1672.581 488, 1674.249 488 C 1674.867 488, 1678 481.587, 1678 480.321 C 1678 479.822, 1664.638 473.646, 1661.230 472.569 C 1659.296 471.959, 1658.740 472.378, 1657.480 475.394 M 1059.500 474.567 C 1057.850 475.358, 1053.941 477.111, 1050.814 478.462 L 1045.129 480.918 1046.741 485.023 C 1048.629 489.829, 1048.744 489.826, 1060.255 484.580 L 1067.880 481.105 1066.288 477.053 C 1064.553 472.634, 1063.973 472.421, 1059.500 474.567 M 1684.422 488.173 C 1683.114 491.073, 1682.891 492.464, 1683.690 492.730 C 1684.323 492.941, 1688.510 494.888, 1692.995 497.057 C 1697.479 499.226, 1701.272 501, 1701.423 501 C 1701.969 501, 1705.302 492.969, 1704.906 492.606 C 1704.002 491.775, 1687.982 484, 1687.174 484 C 1686.695 484, 1685.457 485.878, 1684.422 488.173 M 1026.738 489.567 L 1017.976 494.033 1020.009 498.017 C 1021.126 500.208, 1022.250 502, 1022.506 502 C 1023.815 502, 1040 493.438, 1040 492.745 C 1040 491.090, 1037.073 485.002, 1036.301 485.051 C 1035.860 485.078, 1031.557 487.111, 1026.738 489.567 M 1711.495 501.010 C 1710.501 503.216, 1709.870 505.167, 1710.094 505.347 C 1710.317 505.526, 1714.416 507.733, 1719.202 510.251 L 1727.904 514.829 1729.952 511.357 C 1731.078 509.448, 1732 507.507, 1732 507.044 C 1732 506.333, 1715.036 497, 1713.743 497 C 1713.501 497, 1712.490 498.805, 1711.495 501.010 M 1001.190 502.422 C 996.620 504.823, 992.612 507.055, 992.284 507.383 C 991.725 507.942, 994.884 516, 995.661 516 C 995.976 516, 1012.998 507.026, 1013.820 506.427 C 1014.146 506.189, 1010.147 497.976, 1009.730 498.029 C 1009.603 498.045, 1005.761 500.022, 1001.190 502.422 M 1738.157 514.934 L 1735.925 518.905 1738.213 520.314 C 1746.242 525.260, 1752.884 528.999, 1753.631 528.992 C 1754.109 528.988, 1755.488 527.255, 1756.695 525.140 L 1758.889 521.296 1750.246 516.398 C 1745.493 513.704, 1741.330 511.379, 1740.996 511.232 C 1740.662 511.084, 1739.385 512.750, 1738.157 514.934 M 974.717 517.157 C 969.923 519.909, 966 522.618, 966 523.176 C 966 524.797, 969.338 530, 970.378 530 C 971.088 530, 985.651 521.990, 987.848 520.391 C 988.039 520.252, 987.124 518.341, 985.814 516.145 L 983.433 512.152 974.717 517.157 M 1764.241 529.553 C 1763.008 531.434, 1762.017 533.316, 1762.038 533.736 C 1762.078 534.548, 1779.037 545.361, 1779.421 544.819 C 1782.201 540.901, 1784 538.074, 1784 537.626 C 1784 537.108, 1778.827 533.654, 1769.991 528.272 L 1766.482 526.135 1764.241 529.553 M 949.205 532.427 C 944.682 535.319, 940.710 537.957, 940.377 538.290 C 940.044 538.623, 940.777 540.521, 942.005 542.509 C 943.531 544.977, 944.734 545.932, 945.800 545.523 C 948.298 544.565, 962.003 535.709, 961.969 535.075 C 961.952 534.759, 960.923 532.851, 959.683 530.835 L 957.429 527.170 949.205 532.427 M 1788.967 546.553 C 1787.760 548.507, 1786.936 550.234, 1787.136 550.391 C 1793.968 555.745, 1797.238 557.088, 1802.753 556.800 C 1807.026 556.577, 1808.500 556.120, 1808.500 555.020 C 1808.500 553.513, 1794.465 543.115, 1792.332 543.041 C 1791.689 543.018, 1790.175 544.599, 1788.967 546.553 M 923.195 549.607 C 918.688 552.691, 915 555.616, 915 556.107 C 915 556.598, 918.160 557, 922.021 557 C 927.931 557, 929.673 556.583, 933.021 554.367 C 935.210 552.919, 937 551.510, 937 551.235 C 937 550.207, 932.808 544, 932.114 544 C 931.716 544, 927.703 546.523, 923.195 549.607 M 3.550 1130.750 C 4.072 1131.162, 38.025 1131.265, 79 1130.978 L 153.500 1130.457 78.050 1130.228 C 36.552 1130.103, 3.027 1130.338, 3.550 1130.750 M 578.500 1131.561 C 592.518 1135.437, 607.679 1137.253, 630 1137.732 C 655.307 1138.274, 673.580 1136.710, 690 1132.596 L 699.500 1130.216 636.500 1130.198 C 581.159 1130.181, 574.108 1130.347, 578.500 1131.561 M 1011.264 1131.277 C 1018.197 1131.902, 1027.272 1131.905, 1036.764 1131.285 L 1051.500 1130.323 1026 1130.314 C 1002.816 1130.306, 1001.478 1130.394, 1011.264 1131.277 M 1454.639 1145.253 C 1447.423 1164.026, 1435.848 1187.995, 1429.167 1198 C 1418.465 1214.026, 1406.728 1224.209, 1393.755 1228.720 C 1387.505 1230.893, 1385.347 1231.157, 1377.039 1230.765 C 1364.836 1230.188, 1357.905 1227.594, 1350.513 1220.837 C 1340.758 1211.922, 1334.046 1193.378, 1334.013 1175.250 C 1333.998 1166.969, 1334.134 1167.057, 1325.045 1169.475 C 1312.043 1172.935, 1300.589 1181.057, 1295.905 1190.137 C 1294.295 1193.258, 1293.527 1196.826, 1293.206 1202.671 C 1292.119 1222.469, 1303.211 1239.073, 1324.500 1249.516 C 1346.066 1260.095, 1379.052 1262.554, 1403.688 1255.419 C 1422.253 1250.042, 1442.056 1236.852, 1456.713 1220.101 C 1472.044 1202.580, 1488.990 1173.684, 1501.820 1143.186 C 1504.669 1136.413, 1507 1130.676, 1507 1130.436 C 1507 1130.196, 1496.537 1130.002, 1483.750 1130.003 L 1460.500 1130.007 1454.639 1145.253 M 1741.316 1132.102 C 1752.961 1138.247, 1774.255 1140.311, 1797.195 1137.520 C 1811.660 1135.760, 1841.252 1135.756, 1846.750 1137.514 C 1849.662 1138.445, 1849.841 1141.453, 1846.939 1140.694 C 1844.432 1140.039, 1843.246 1142.387, 1845.011 1144.513 C 1847.758 1147.823, 1854.008 1145.700, 1855.517 1140.945 C 1856.284 1138.529, 1853.643 1134, 1851.467 1134 C 1850.649 1134, 1849.210 1133.100, 1848.268 1132 C 1846.205 1129.591, 1844.827 1129.386, 1845.683 1131.615 C 1846.157 1132.852, 1845.856 1133.092, 1844.401 1132.637 C 1838.032 1130.650, 1823.540 1130.042, 1783 1130.064 L 1737.500 1130.088 1741.316 1132.102 M 2047.509 1132.835 C 2056.731 1136.476, 2060.388 1138.710, 2062.319 1141.886 C 2063.194 1143.323, 2068.052 1149, 2073.115 1154.500 C 2082.821 1165.044, 2088 1172.228, 2088 1175.149 C 2088 1181.091, 2094.896 1185.918, 2103 1185.649 C 2107.272 1185.508, 2107.617 1185.272, 2109.815 1181 C 2112.894 1175.012, 2112.303 1169.899, 2107.420 1160.278 C 2103.157 1151.879, 2102.668 1146.717, 2105.416 1139.124 C 2106.287 1136.718, 2107 1133.680, 2107 1132.374 L 2107 1130 2073.750 1130.034 L 2040.500 1130.069 2047.509 1132.835 M 2541.212 1162.694 L 2530.923 1163.071 2531.212 1171.785 L 2531.500 1180.500 2548.500 1181.082 C 2568.702 1181.773, 2573.106 1183.011, 2580.048 1189.952 C 2588.129 1198.034, 2588.205 1198.508, 2589.057 1246.500 C 2589.467 1269.600, 2589.848 1301.891, 2589.902 1318.259 L 2590 1348.017 2583.750 1341.685 C 2548.917 1306.396, 2470.296 1295.895, 2407.320 1318.119 C 2348.720 1338.800, 2311.380 1390.684, 2306.471 1458.250 L 2305.762 1468 2332.301 1468 L 2358.841 1468 2359.467 1461.250 C 2362.513 1428.439, 2371.473 1402.538, 2387.104 1381.363 C 2404.441 1357.877, 2429.271 1342.487, 2457.990 1337.427 C 2469.337 1335.428, 2491.916 1335.442, 2504.401 1337.455 C 2545.944 1344.155, 2575.329 1370.533, 2585.773 1410.500 C 2588.808 1422.115, 2589.801 1430.312, 2590.586 1450.250 L 2591.286 1468 2616.893 1468 L 2642.500 1468.001 2641.817 1368.750 C 2640.753 1214.088, 2640.524 1201.514, 2638.635 1194.219 C 2634.434 1177.993, 2625.541 1168.950, 2609.267 1164.355 C 2604.716 1163.070, 2598.017 1162.683, 2577.500 1162.522 C 2563.200 1162.410, 2546.870 1162.487, 2541.212 1162.694 M 1059 1182.593 C 1057.075 1182.820, 1051 1183.479, 1045.500 1184.057 C 1023.125 1186.409, 990.980 1194.288, 969.777 1202.618 C 888.678 1234.481, 839.085 1296.112, 828.620 1378.040 C 825.315 1403.915, 825.657 1430.185, 829.646 1456.750 L 831.335 1468 862.036 1468 L 892.737 1468 891.396 1462.250 C 886.533 1441.406, 884.850 1403.189, 887.861 1382 C 898.272 1308.740, 947.281 1251.142, 1019.756 1226.988 C 1041.191 1219.844, 1052.605 1217.880, 1076.167 1217.281 C 1128.901 1215.939, 1161.765 1225.567, 1182.794 1248.517 C 1195.385 1262.257, 1204 1286.433, 1204 1308.023 C 1204 1314.266, 1204.178 1314.828, 1206.327 1315.367 C 1210.138 1316.324, 1219.701 1314.288, 1225.037 1311.383 C 1242.758 1301.738, 1253.013 1275.674, 1248.656 1251.349 C 1242.146 1214.996, 1203.765 1192.318, 1135.500 1184.488 C 1122.263 1182.969, 1067.341 1181.609, 1059 1182.593 M 2193.500 1182.730 C 2181.811 1183.755, 2170.283 1190.675, 2165.778 1199.372 C 2162.824 1205.074, 2162.828 1214.932, 2165.785 1220.643 C 2170.517 1229.777, 2181.467 1235.768, 2195.202 1236.736 C 2212.814 1237.978, 2228.186 1231.402, 2233.135 1220.509 C 2236.026 1214.145, 2235.645 1204.464, 2232.249 1197.962 C 2226.573 1187.097, 2211.458 1181.156, 2193.500 1182.730 M 557.007 1237.210 C 552.336 1237.728, 548.464 1238.231, 548.404 1238.326 C 548.343 1238.422, 548.900 1246.150, 549.643 1255.500 C 554.890 1321.571, 570.583 1395.890, 592.033 1456.250 L 596.208 1468 607.104 1468 C 613.097 1468, 618 1467.833, 618 1467.628 C 618 1467.424, 613.973 1455.161, 609.052 1440.378 C 588.627 1379.027, 575.676 1317.091, 571.019 1258.500 C 569.317 1237.078, 569.129 1235.980, 567.189 1236.134 C 566.260 1236.207, 561.678 1236.692, 557.007 1237.210 M 588.915 1239.750 C 588.672 1241.884, 589.135 1252.038, 589.644 1255.750 L 590.227 1260 594.760 1260 L 599.293 1260 598.647 1252.349 C 598.291 1248.141, 598 1243.416, 598 1241.849 C 598 1239.139, 597.780 1239, 593.500 1239 C 591.025 1239, 588.962 1239.338, 588.915 1239.750 M 240.500 1267.675 C 238.300 1267.861, 234.987 1268.265, 233.139 1268.573 L 229.777 1269.132 230.433 1276.816 C 236.074 1342.897, 247.777 1414.478, 261.075 1464.250 L 262.077 1468 273.098 1468 C 279.777 1468, 283.888 1467.627, 283.533 1467.053 C 282.596 1465.537, 273.475 1426.134, 269.549 1406.641 C 261.945 1368.887, 255.683 1325.416, 252.345 1287.208 L 250.580 1267 247.540 1267.168 C 245.868 1267.261, 242.700 1267.488, 240.500 1267.675 M 591.320 1273.750 C 591.638 1276.362, 592.198 1281.088, 592.564 1284.250 C 593.279 1290.419, 593.575 1290.635, 599.652 1289.420 L 602.555 1288.839 601.700 1281.170 C 600.276 1268.389, 600.594 1269, 595.352 1269 L 590.742 1269 591.320 1273.750 M 190.689 1272.523 C 183.643 1273.219, 177.640 1274.027, 177.349 1274.318 C 176.009 1275.658, 182.606 1336.668, 187.534 1368.500 C 192.054 1397.697, 200.812 1442.481, 206.138 1463.635 L 207.237 1468 224.744 1468 L 242.250 1468 241.662 1465.250 C 241.339 1463.737, 239.015 1453.500, 236.499 1442.500 C 224.587 1390.418, 217.183 1341.870, 211.450 1278.250 L 210.797 1271 207.149 1271.128 C 205.142 1271.199, 197.735 1271.827, 190.689 1272.523 M 597.250 1298.706 C 594.699 1299.197, 594.615 1299.902, 596.017 1309 C 597.814 1320.661, 597.477 1320.103, 602.271 1319.369 C 604.597 1319.013, 606.625 1318.622, 606.777 1318.501 C 606.929 1318.379, 606.368 1314.054, 605.531 1308.890 C 604.693 1303.725, 604.006 1299.162, 604.004 1298.750 C 604 1297.973, 601.152 1297.954, 597.250 1298.706 M 1892.659 1316.013 C 1871.825 1319.790, 1851.003 1328.242, 1832.899 1340.273 C 1822.545 1347.153, 1805.331 1363.125, 1798.555 1372.139 L 1794.186 1377.950 1793.837 1363.725 C 1793.520 1350.790, 1793.245 1348.980, 1790.806 1343.764 C 1785.646 1332.730, 1773.724 1323.798, 1759.760 1320.506 C 1754.897 1319.359, 1745.970 1319.026, 1719.750 1319.015 L 1686 1319 1686 1327.750 L 1686 1336.500 1701.250 1336.507 C 1712.932 1336.513, 1717.830 1336.924, 1722.184 1338.266 C 1729.272 1340.450, 1735.618 1345.213, 1739.234 1351.060 C 1744.529 1359.624, 1744.964 1364.747, 1744.983 1418.750 L 1745 1468 1769.798 1468 L 1794.595 1468 1795.749 1457.750 C 1800.882 1412.140, 1834.162 1369.429, 1878 1352.187 C 1893.891 1345.937, 1901.800 1344.541, 1921 1344.597 C 1935.808 1344.639, 1939.731 1344.984, 1946.500 1346.839 C 1966.920 1352.435, 1985.160 1365.292, 1996.910 1382.369 C 2009.073 1400.048, 2017.386 1426.060, 2020.199 1455.250 L 2021.428 1468 2046.367 1468 L 2071.305 1468 2070.657 1456.650 C 2068.202 1413.672, 2053.144 1375.307, 2029.418 1351.582 C 2011.787 1333.950, 1989.652 1322.836, 1960.411 1316.931 C 1944.373 1313.693, 1908.166 1313.202, 1892.659 1316.013 M 2130.250 1316.674 L 2116 1317.055 2116 1325.925 L 2116 1334.794 2132.250 1335.180 C 2146.108 1335.509, 2149.180 1335.876, 2153.122 1337.670 C 2159.720 1340.674, 2165.391 1346.193, 2168.113 1352.258 C 2170.413 1357.387, 2170.478 1358.365, 2171.121 1397.500 C 2171.482 1419.500, 2171.828 1444.362, 2171.889 1452.750 L 2172 1468 2196.596 1468 L 2221.192 1468 2220.728 1411.250 C 2220.335 1363.119, 2220.017 1353.546, 2218.637 1348.219 C 2214.389 1331.828, 2205.766 1323.160, 2189.597 1319.025 C 2181.171 1316.870, 2157.722 1315.941, 2130.250 1316.674 M 1536 1328.787 L 1536 1337.574 1546.250 1338.678 C 1559.211 1340.074, 1567.040 1342.988, 1572.501 1348.448 C 1579.813 1355.760, 1580.205 1357.937, 1581.059 1396 C 1581.473 1414.425, 1581.854 1438.162, 1581.906 1448.750 L 1582 1468 1606.500 1468 L 1631 1468 1630.936 1421.250 C 1630.857 1363.630, 1630.144 1348.291, 1627.244 1341.783 C 1624.514 1335.658, 1616.975 1327.650, 1611.396 1324.950 C 1602.118 1320.458, 1598.152 1320.024, 1566.250 1320.012 L 1536 1320 1536 1328.787 M 1278 1330.872 L 1278 1339.744 1291.750 1340.236 C 1303.174 1340.646, 1306.641 1341.154, 1312.242 1343.238 C 1320.997 1346.495, 1326.884 1351.414, 1330.707 1358.666 C 1335.288 1367.356, 1336 1372.682, 1336.002 1398.299 C 1336.004 1411.060, 1336.300 1431.963, 1336.662 1444.750 L 1337.319 1468 1361.660 1468 L 1386 1468 1385.917 1427.250 C 1385.808 1372.977, 1384.989 1356.275, 1382.066 1348.715 C 1379.193 1341.281, 1370.965 1332.326, 1363.211 1328.193 C 1352.332 1322.395, 1349.055 1322, 1311.790 1322 L 1278 1322 1278 1330.872 M 604.199 1328.044 C 602.384 1328.442, 600.615 1329.052, 600.269 1329.398 C 599.922 1329.745, 600.452 1334.348, 601.447 1339.629 L 603.255 1349.229 607.210 1348.699 C 609.385 1348.407, 611.434 1347.899, 611.763 1347.570 C 612.476 1346.858, 609.072 1328.134, 608.143 1327.653 C 607.789 1327.470, 606.015 1327.646, 604.199 1328.044 M 607.750 1357.689 C 605.486 1358.281, 605.544 1360.256, 608.129 1370.563 C 609.839 1377.378, 610.578 1378.958, 611.879 1378.574 C 612.771 1378.310, 614.737 1377.800, 616.250 1377.439 C 617.763 1377.078, 619.007 1376.494, 619.016 1376.142 C 619.025 1375.789, 618.036 1371.338, 616.819 1366.250 C 614.728 1357.507, 614.466 1357.006, 612.053 1357.116 C 610.649 1357.180, 608.712 1357.438, 607.750 1357.689 M 616.750 1386.203 C 614.688 1386.750, 613 1387.698, 613 1388.309 C 613 1388.920, 614.169 1393.539, 615.598 1398.575 L 618.197 1407.731 622.348 1406.505 C 624.632 1405.831, 626.500 1404.879, 626.500 1404.390 C 626.500 1402.432, 621.587 1385.007, 621.063 1385.103 C 620.753 1385.160, 618.813 1385.655, 616.750 1386.203 M 624.250 1415.119 C 622.462 1415.635, 621 1416.410, 621 1416.841 C 621 1417.879, 626.861 1435.194, 627.392 1435.725 C 627.619 1435.953, 629.668 1435.581, 631.944 1434.899 C 634.657 1434.086, 635.908 1433.204, 635.577 1432.339 C 635.298 1431.613, 633.902 1427.190, 632.475 1422.510 C 631.047 1417.829, 629.344 1414.041, 628.689 1414.090 C 628.035 1414.140, 626.038 1414.603, 624.250 1415.119 M 633.273 1443.563 L 630.046 1444.987 632.932 1452.744 C 637.099 1463.942, 637.125 1464, 638.139 1464 C 638.648 1464, 640.596 1463.360, 642.469 1462.578 L 645.873 1461.155 642.546 1451.828 C 640.715 1446.697, 638.607 1442.419, 637.859 1442.320 C 637.112 1442.221, 635.048 1442.780, 633.273 1443.563 M 614.500 2112.615 C 623.590 2120.323, 656.901 2145.752, 672.498 2156.891 C 799.885 2247.870, 943.036 2312.405, 1095 2347.364 C 1212.970 2374.503, 1334.992 2383.694, 1454.500 2374.443 C 1689.293 2356.267, 1917.157 2266.550, 2101.876 2119.553 L 2113.253 2110.500 2085.703 2110.234 L 2058.153 2109.969 2042.327 2121.632 C 2033.622 2128.047, 2014.800 2141.054, 2000.500 2150.535 C 1957.701 2178.913, 1925.575 2197.529, 1879 2220.943 C 1749.067 2286.260, 1610.582 2325.878, 1466.500 2338.950 C 1428.103 2342.433, 1406.615 2343.347, 1363 2343.350 C 1319.568 2343.353, 1298.318 2342.442, 1259.500 2338.913 C 1050.015 2319.868, 851.302 2245.123, 683 2122.066 L 666.500 2110.002 639 2110.037 L 611.500 2110.072 614.500 2112.615 M 699.550 2110.852 C 701.758 2112.830, 721.884 2126.645, 740.200 2138.754 C 832.783 2199.960, 937.760 2248.349, 1045.537 2279.501 C 1196.978 2323.273, 1351.819 2335.326, 1507.500 2315.460 C 1677.530 2293.763, 1844.365 2231.503, 1988.447 2135.980 C 2000.576 2127.939, 2014.055 2118.803, 2018.399 2115.680 L 2026.298 2110 2008.251 2110 L 1990.204 2110 1970.352 2122.844 C 1848.387 2201.755, 1718.369 2254.744, 1578.555 2282.520 C 1414.794 2315.055, 1248.886 2310.355, 1085.500 2268.554 C 1008.329 2248.811, 940.885 2223.774, 868.500 2187.998 C 826.429 2167.205, 791.037 2146.976, 753.703 2122.382 L 734.905 2110 716.753 2110 C 706.683 2110, 699.023 2110.379, 699.550 2110.852 M 1030.439 2114.556 C 1028.891 2124.880, 1031.494 2133.494, 1038.183 2140.183 C 1047.731 2149.731, 1067.245 2154.647, 1079.056 2150.480 C 1089.068 2146.948, 1094.021 2140.474, 1099.610 2123.612 C 1101.636 2117.500, 1103.501 2111.938, 1103.754 2111.250 C 1104.099 2110.313, 1102.112 2110, 1095.813 2110 L 1087.412 2110 1084.594 2118.750 C 1081.198 2129.295, 1078.728 2133.585, 1074.605 2136.099 C 1068.212 2139.997, 1054.866 2137.028, 1049.060 2130.416 C 1046.386 2127.370, 1046 2126.186, 1046 2121.030 C 1046 2117.785, 1046.439 2113.976, 1046.975 2112.565 L 1047.950 2110 1039.537 2110 L 1031.123 2110 1030.439 2114.556 M 1226.554 2112.250 C 1225.896 2115.307, 1218.012 2185.346, 1218.294 2185.628 C 1218.958 2186.292, 1232.597 2187.684, 1233.126 2187.142 C 1233.471 2186.789, 1234.530 2179.300, 1235.480 2170.500 C 1236.430 2161.700, 1237.376 2154.322, 1237.582 2154.105 C 1238.458 2153.182, 1263.047 2156.973, 1265.963 2158.481 C 1271.009 2161.090, 1272.374 2165.632, 1271.619 2177.294 C 1271.270 2182.681, 1271.255 2188.167, 1271.586 2189.485 C 1272.227 2192.042, 1273.296 2192.413, 1283.118 2193.493 L 1288.736 2194.111 1287.356 2188.805 C 1286.371 2185.020, 1286.161 2180.617, 1286.623 2173.436 C 1287.366 2161.894, 1285.926 2157.142, 1280.729 2153.981 C 1277.941 2152.286, 1277.901 2152.166, 1279.904 2151.530 C 1283.345 2150.438, 1287.940 2146.032, 1290.235 2141.624 C 1291.849 2138.523, 1292.397 2135.640, 1292.441 2130 C 1292.509 2121.295, 1290.315 2116.645, 1284.166 2112.467 L 1280.536 2110 1253.787 2110 L 1227.038 2110 1226.554 2112.250 M 1450.364 2127.638 C 1445.695 2137.339, 1441.523 2144.876, 1441.092 2144.388 C 1440.662 2143.900, 1435.177 2136.142, 1428.905 2127.148 L 1417.500 2110.797 1409.012 2111.470 C 1404.343 2111.840, 1400.350 2112.317, 1400.137 2112.530 C 1399.925 2112.742, 1407.646 2123.642, 1417.297 2136.752 L 1434.843 2160.588 1436.087 2176.926 L 1437.330 2193.264 1444.762 2192.702 C 1448.849 2192.393, 1452.379 2191.955, 1452.604 2191.729 C 1452.830 2191.503, 1452.415 2184.159, 1451.682 2175.409 L 1450.348 2159.500 1462.674 2135.399 C 1469.453 2122.144, 1475 2111.007, 1475 2110.649 C 1475 2110.292, 1471.367 2110, 1466.926 2110 L 1458.852 2110 1450.364 2127.638 M 1241.580 2118.188 C 1240.931 2120.292, 1238.752 2141.089, 1239.144 2141.442 C 1239.340 2141.618, 1245.266 2142.447, 1252.313 2143.283 C 1265.747 2144.878, 1270.413 2144.444, 1273.550 2141.307 C 1276.976 2137.882, 1278.070 2130.442, 1275.861 2125.595 C 1274.246 2122.050, 1269.768 2120.266, 1259.464 2119.063 C 1254.534 2118.487, 1248.584 2117.760, 1246.243 2117.446 C 1243.202 2117.038, 1241.869 2117.250, 1241.580 2118.188" stroke="none" fill="#d5af62" fill-rule="evenodd"/><path d="M 1309.500 1.115 C 1096.204 10.749, 887.720 78.619, 709.500 196.439 C 696.850 204.802, 682.254 214.649, 677.065 218.322 L 667.631 225 697.923 225 L 728.215 225 745.358 214.153 C 902.928 114.447, 1079.800 54.564, 1264 38.559 C 1311.059 34.470, 1382.783 33.255, 1424 35.848 C 1517.484 41.731, 1599.817 55.769, 1685 80.352 C 1790.344 110.752, 1897.864 159.663, 1986.822 217.649 L 1998.145 225.029 2028.197 224.765 L 2058.250 224.500 2042.875 213.857 C 1922.537 130.558, 1797.204 73.047, 1658.500 37.483 C 1545.299 8.457, 1424.842 -4.095, 1309.500 1.115 M 1325 53.699 C 1291.583 54.700, 1237.571 59.483, 1202.747 64.525 C 1053.198 86.181, 913.675 135.610, 782.694 213.340 L 763.889 224.500 783.798 224.770 L 803.708 225.040 823.604 213.982 C 958.393 139.060, 1109.699 92.536, 1264 78.567 C 1310.223 74.383, 1384.149 73.127, 1425.500 75.824 C 1599.188 87.154, 1758.955 133.499, 1904.716 214.835 L 1922.931 225 1943.170 225 L 1963.408 225 1955.954 220.387 C 1951.854 217.851, 1939.725 210.705, 1929 204.509 C 1747.284 99.523, 1538.198 47.318, 1325 53.699 M 1305.500 178.888 C 1294.658 181.699, 1289.283 189.338, 1290.218 200.610 C 1290.565 204.796, 1291.531 207.253, 1294.555 211.644 L 1298.445 217.293 1296.005 218.896 C 1294.663 219.778, 1292.426 221.498, 1291.033 222.718 L 1288.500 224.937 1305.977 224.968 L 1323.455 225 1320.823 222.368 L 1318.191 219.736 1322.345 216.611 C 1328.303 212.130, 1332.264 204.046, 1331.754 197.410 C 1331.211 190.353, 1328.204 185.043, 1322.909 181.793 C 1318.145 178.869, 1310.496 177.592, 1305.500 178.888 M 1307.315 190.007 C 1301.045 192.533, 1301.497 201.127, 1308.299 208.716 L 1310.286 210.933 1313.158 208.888 C 1319.504 204.369, 1320.828 196.674, 1316.077 191.923 C 1313.066 188.913, 1311.099 188.482, 1307.315 190.007 M 1594.637 206.779 C 1594.148 207.570, 1590 223.348, 1590 224.417 C 1590 224.737, 1593.600 225, 1598 225 C 1604.489 225, 1606 224.713, 1606 223.481 C 1606 221.923, 1608.322 222.121, 1613.815 224.146 C 1615.088 224.616, 1623.596 225, 1632.720 225 L 1649.310 225 1647.405 222.855 C 1644.456 219.534, 1638.884 217.459, 1616.936 211.507 C 1594.986 205.555, 1595.346 205.631, 1594.637 206.779 M 1334.250 223.031 C 1330.571 224.510, 1331.628 225, 1338.500 225 C 1343.611 225, 1345 224.679, 1345 223.500 C 1345 221.783, 1338.104 221.482, 1334.250 223.031 M 346.259 572.212 C 341.176 580.575, 337.351 587.717, 337.759 588.084 C 338.772 588.995, 370.044 599.297, 370.452 598.854 C 370.631 598.659, 373.343 594.254, 376.480 589.065 C 379.616 583.876, 385.291 574.751, 389.091 568.788 C 392.891 562.825, 396 557.733, 396 557.473 C 396 557.213, 386.887 557.001, 375.750 557.003 L 355.500 557.006 346.259 572.212 M 412.001 568.066 C 398.361 588.985, 389.072 604.472, 389.786 605.106 C 390.179 605.456, 394.690 607.127, 399.811 608.820 L 409.122 611.899 413.811 604.355 C 416.390 600.206, 424.238 588.052, 431.250 577.345 C 438.262 566.639, 444 557.682, 444 557.440 C 444 557.198, 438.424 557, 431.609 557 L 419.217 557 412.001 568.066 M 573.828 560.287 C 569.992 563.201, 542 598.124, 542 599.996 C 542 600.961, 606.629 650.500, 607.887 650.500 C 609.414 650.500, 634.562 617.236, 637.302 611.592 C 640.550 604.903, 641.377 599.384, 639.970 593.795 C 636.784 581.144, 620.171 572.361, 609.750 577.820 L 606 579.784 606 575.708 C 606 569.633, 602.641 563.613, 597.264 560.052 C 593.191 557.354, 591.817 557, 585.406 557 C 578.753 557, 577.799 557.271, 573.828 560.287 M 836.792 565.679 C 801.527 595.416, 763.649 633.609, 733.331 670 C 720.739 685.115, 704.016 707.418, 704.768 708.094 C 705.171 708.456, 709.325 709.999, 714 711.522 C 718.675 713.046, 722.984 714.470, 723.576 714.687 C 724.168 714.903, 727.993 710.692, 732.076 705.328 C 767.497 658.800, 813.926 611.119, 860.510 573.430 C 868.621 566.869, 876.436 560.502, 877.878 559.282 L 880.500 557.063 863.792 557.032 L 847.084 557 836.792 565.679 M 917.999 559.999 C 920.294 563.221, 920.892 563.150, 926 559.051 L 928.500 557.044 922.182 557.022 L 915.864 557 917.999 559.999 M 1847.036 558.346 C 1847.841 559.087, 1853.225 563.457, 1859 568.057 C 1872.381 578.717, 1880.474 585.604, 1895.845 599.411 C 1903.208 606.025, 1908.858 610.368, 1909.845 610.172 C 1914.229 609.303, 1929.596 604.690, 1930.311 604.028 C 1931.194 603.212, 1913.260 586.339, 1892.378 568.340 L 1879.222 557 1862.397 557 C 1848.237 557, 1845.803 557.213, 1847.036 558.346 M 2281.156 557.719 C 2281.345 558.149, 2286.768 566.441, 2293.206 576.147 C 2385.813 715.753, 2446.897 879.989, 2468.466 1047.365 C 2469.804 1057.741, 2471.075 1066.408, 2471.291 1066.624 C 2471.721 1067.054, 2491.155 1065.179, 2491.676 1064.657 C 2492.240 1064.094, 2487.086 1026.263, 2483.418 1004.029 C 2458.312 851.877, 2400.543 703.061, 2315.709 572 L 2306.323 557.500 2293.568 557.219 C 2286.553 557.065, 2280.968 557.290, 2281.156 557.719 M 2329 557.476 C 2329 557.737, 2331.897 562.430, 2335.438 567.904 C 2369.620 620.748, 2405 688.730, 2430.480 750.524 C 2460.979 824.492, 2483.400 900.277, 2498.487 980.391 C 2501.946 998.765, 2508.269 1040.740, 2509.597 1054.147 C 2509.959 1057.804, 2510.598 1061.349, 2511.016 1062.026 C 2511.616 1062.997, 2515.182 1062.945, 2527.902 1061.782 C 2536.770 1060.971, 2544.201 1060.125, 2544.415 1059.903 C 2544.629 1059.682, 2543.745 1051.175, 2542.452 1041 C 2521.461 875.852, 2467.656 721.089, 2380.708 575.767 L 2369.500 557.034 2349.250 557.017 C 2338.113 557.008, 2329 557.214, 2329 557.476 M 1814.188 562.960 C 1812.985 564.587, 1812 566.332, 1812 566.837 C 1812 567.725, 1825.087 577.713, 1827.427 578.611 C 1828.704 579.100, 1833.321 573.435, 1832.817 571.998 C 1832.459 570.980, 1817.996 560, 1817.012 560 C 1816.662 560, 1815.391 561.332, 1814.188 562.960 M 898.750 567.102 C 894.487 570.399, 891.016 573.412, 891.036 573.798 C 891.056 574.184, 892.172 575.847, 893.517 577.493 C 896.357 580.969, 896.377 580.962, 906.935 572.730 L 913.054 567.960 910.277 564.480 C 908.750 562.566, 907.275 561.024, 907 561.054 C 906.725 561.083, 903.013 563.805, 898.750 567.102 M 578.765 573.971 C 577.387 575.054, 572.845 580.396, 568.671 585.841 L 561.083 595.741 568.952 601.841 C 573.281 605.196, 577.259 608.066, 577.794 608.220 C 579.230 608.633, 593.119 590.340, 594.566 586.131 C 596.180 581.435, 594.623 577.353, 590.033 574.250 C 585.931 571.477, 582.056 571.381, 578.765 573.971 M 1837.606 581.450 L 1834.975 584.900 1843.133 591.487 L 1851.292 598.074 1854.105 594.787 C 1855.653 592.979, 1856.936 591.275, 1856.957 591 C 1857 590.442, 1841.449 578, 1840.708 578 C 1840.449 578, 1839.053 579.552, 1837.606 581.450 M 875.128 585.517 L 866.844 592.205 869.157 594.853 C 870.429 596.309, 871.782 597.895, 872.163 598.378 C 872.786 599.167, 889.031 587.204, 888.971 586 C 888.957 585.725, 887.701 583.999, 886.179 582.164 L 883.412 578.829 875.128 585.517 M 607.915 591.486 C 605.447 592.827, 587.254 615.661, 588.096 616.361 C 588.318 616.546, 592.736 619.977, 597.913 623.987 C 605.654 629.982, 607.518 631.023, 608.413 629.850 C 609.011 629.065, 612.265 624.817, 615.645 620.409 C 623.945 609.583, 625.993 606.040, 625.993 602.500 C 625.993 598.294, 622.865 593.638, 618.717 591.670 C 614.478 589.658, 611.373 589.606, 607.915 591.486 M 1860.787 600.400 L 1858.075 603.799 1865.719 610.400 C 1869.923 614.030, 1873.618 617, 1873.931 617 C 1874.244 617, 1875.730 615.458, 1877.233 613.574 L 1879.967 610.148 1872.454 603.824 C 1868.322 600.346, 1864.617 597.388, 1864.221 597.250 C 1863.824 597.113, 1862.279 598.530, 1860.787 600.400 M 852.077 604.827 L 844.654 611.613 847.015 614.807 C 848.314 616.563, 849.804 618, 850.327 618 C 850.850 618, 854.253 615.442, 857.889 612.315 C 861.525 609.189, 864.888 606.303, 865.362 605.903 C 866.142 605.245, 861.194 597.972, 860 598.020 C 859.725 598.031, 856.160 601.094, 852.077 604.827 M 830.250 624.664 C 826.263 628.258, 823 631.744, 823 632.412 C 823 633.080, 824.237 634.805, 825.750 636.246 L 828.500 638.865 836.327 631.683 L 844.154 624.500 840.827 621.315 L 837.500 618.131 830.250 624.664 M 2020.319 634.393 C 2015.943 641.152, 2001.255 658.726, 1991.571 668.790 C 1983.596 677.078, 1977.495 682.019, 1960.571 693.900 C 1948.982 702.035, 1934.577 711.573, 1928.561 715.096 C 1922.545 718.618, 1915.014 723.975, 1911.827 727 L 1906.031 732.500 1899.962 753 C 1896.624 764.275, 1893.656 774.307, 1893.365 775.293 C 1892.905 776.858, 1892.356 776.651, 1889.055 773.669 C 1886.975 771.789, 1882.957 769.482, 1880.127 768.542 C 1874.203 766.574, 1872.527 764.375, 1874 760.500 C 1875.673 756.100, 1875.185 748.816, 1872.974 745.190 C 1869.409 739.341, 1861.871 737.619, 1852.409 740.489 C 1849.709 741.308, 1847.388 741.983, 1847.250 741.989 C 1847.112 741.995, 1846.990 739.862, 1846.978 737.250 C 1846.951 731.314, 1844.309 725.375, 1839.600 720.666 C 1834.929 715.996, 1831.039 714.023, 1825.196 713.362 C 1821.396 712.931, 1819.583 713.323, 1815.697 715.415 C 1809.390 718.809, 1806.220 718.676, 1799.904 714.750 C 1794.959 711.677, 1794.181 711.505, 1785.587 711.597 C 1778.729 711.670, 1775.075 712.245, 1770.688 713.942 C 1764.026 716.519, 1758 721.960, 1758 725.398 C 1758 729.194, 1754.336 732.999, 1750.677 733.004 C 1746.120 733.009, 1741.324 736.248, 1740.532 739.854 C 1739.560 744.282, 1735.616 747.632, 1728.646 749.951 C 1721.108 752.460, 1713.076 757.723, 1709.370 762.582 C 1707.304 765.290, 1706.510 767.630, 1706.200 771.919 C 1705.807 777.344, 1705.951 777.781, 1708.969 780.321 C 1710.721 781.794, 1712.569 783, 1713.077 783 C 1714.642 783, 1714.088 786.348, 1712 789.500 C 1710.906 791.152, 1710.010 794.192, 1710.007 796.265 C 1709.997 801.495, 1714.093 803.991, 1722.691 803.996 C 1729.414 804, 1730.528 804.761, 1729.545 808.677 C 1728.953 811.036, 1728.587 811.190, 1724.951 810.608 C 1720.351 809.873, 1719.474 811.818, 1723.223 814.443 C 1726.293 816.594, 1728.792 816.381, 1733.750 813.546 L 1738 811.116 1738 813.628 C 1738 815.009, 1736.625 818.138, 1734.945 820.580 C 1733.265 823.022, 1731.406 827.378, 1730.815 830.260 C 1729.206 838.099, 1730.752 842.227, 1738.706 851.329 C 1742.406 855.563, 1747.249 862.023, 1749.467 865.683 C 1754.664 874.259, 1758.606 876.475, 1768.505 876.388 C 1772.364 876.354, 1776.498 875.804, 1777.692 875.165 C 1780.164 873.842, 1795 872.030, 1795 873.051 C 1795 873.419, 1796.172 875.448, 1797.604 877.558 C 1800.094 881.227, 1800.178 881.794, 1799.530 890.448 C 1798.992 897.632, 1799.198 900.518, 1800.527 904.430 C 1802.141 909.182, 1802.119 909.701, 1799.934 918.775 C 1798.403 925.131, 1796.428 930.190, 1793.854 934.345 C 1783.953 950.334, 1776.761 963.257, 1775.048 968.140 C 1773.307 973.101, 1772.696 973.749, 1766.833 976.843 L 1760.500 980.186 1704.799 950.343 C 1657.933 925.234, 1648.998 920.104, 1648.469 918.006 C 1647.507 914.195, 1646.067 913, 1642.434 913 C 1640.136 913, 1638.634 913.685, 1637.557 915.223 C 1635.407 918.291, 1635.605 920.281, 1638.314 922.826 C 1641.453 925.775, 1642.282 925.560, 1641.500 922 C 1640.798 918.804, 1642.487 917.671, 1643.364 920.750 C 1647.455 935.111, 1647.534 957.316, 1643.571 979 C 1638.827 1004.960, 1640.039 1020.259, 1647.733 1031.565 C 1656.047 1043.780, 1664.703 1051.315, 1675.259 1055.524 C 1678.976 1057.007, 1682.267 1058.623, 1682.572 1059.117 C 1682.877 1059.610, 1682.198 1061.318, 1681.063 1062.911 C 1678.499 1066.513, 1678.430 1069.487, 1680.872 1071.198 C 1682.578 1072.393, 1680.690 1074.119, 1659.622 1090.630 L 1636.500 1108.751 1634.143 1106.898 C 1630.742 1104.223, 1628.370 1105.919, 1626.495 1112.368 C 1625.645 1115.294, 1624.300 1118.545, 1623.506 1119.594 C 1621.525 1122.212, 1621.647 1123.259, 1623.799 1122.108 C 1624.788 1121.578, 1628.501 1120.829, 1632.049 1120.442 C 1635.597 1120.056, 1639.063 1119.293, 1639.750 1118.747 C 1641.237 1117.567, 1641.400 1113.800, 1640.023 1112.423 C 1639.388 1111.788, 1646.823 1104.965, 1661.310 1092.890 L 1683.574 1074.334 1685.333 1076.667 C 1686.301 1077.950, 1687.941 1079, 1688.977 1079 C 1690.138 1079, 1690.983 1079.824, 1691.180 1081.148 C 1691.356 1082.329, 1692.382 1083.792, 1693.460 1084.398 C 1694.538 1085.004, 1696.258 1086.513, 1697.282 1087.750 C 1698.307 1088.987, 1699.737 1090, 1700.461 1090 C 1701.185 1090, 1702.052 1091.466, 1702.389 1093.258 C 1703.865 1101.127, 1718.670 1118.599, 1730.147 1126.017 L 1736.310 1130 1755.905 1129.878 C 1771.261 1129.782, 1774.202 1129.569, 1769.500 1128.891 C 1753.393 1126.568, 1738.834 1119.828, 1730.517 1110.845 C 1724.606 1104.460, 1718.248 1094.282, 1715.493 1086.793 L 1713.761 1082.085 1716.801 1079.045 C 1722.608 1073.238, 1728.763 1065.476, 1730.866 1061.308 C 1733.632 1055.827, 1736.183 1054.042, 1756.941 1043.060 C 1776.402 1032.765, 1781.667 1029.464, 1787.500 1023.903 L 1791.500 1020.090 1818 1074.619 C 1832.575 1104.609, 1844.867 1129.384, 1845.317 1129.674 C 1845.766 1129.963, 1846.311 1130.022, 1846.528 1129.805 C 1846.746 1129.588, 1834.994 1104.230, 1820.413 1073.455 C 1804.687 1040.260, 1794.228 1017.041, 1794.702 1016.372 C 1795.141 1015.752, 1797.724 1011.927, 1800.441 1007.872 C 1805.062 1000.979, 1806.259 999.948, 1818.867 992 C 1828.740 985.777, 1834.406 981.377, 1840.023 975.573 L 1847.695 967.647 1850.723 969.803 C 1854.986 972.838, 1868.082 979, 1870.271 979 C 1871.277 979, 1873.412 979.679, 1875.015 980.508 C 1876.619 981.337, 1881.241 982.530, 1885.285 983.159 L 1892.639 984.303 1892.197 989.639 C 1891.542 997.533, 1895.637 1002.605, 1903.728 1003.921 C 1909.750 1004.901, 1911.418 1008.301, 1911.504 1019.777 C 1911.566 1028.045, 1911.928 1030.123, 1913.923 1033.661 C 1917.650 1040.273, 1924.181 1044, 1932.040 1044 L 1935.781 1044 1936.158 1051.449 C 1936.559 1059.403, 1938.008 1062.423, 1943.324 1066.392 C 1946.187 1068.530, 1955.259 1069.226, 1961.640 1067.797 L 1964.780 1067.094 1966.427 1073.648 C 1968.302 1081.115, 1972.644 1090.235, 1976.511 1094.830 C 1984.265 1104.046, 2008.131 1118.604, 2026.804 1125.508 L 2038.952 1130 2072.976 1130 C 2091.689 1130, 2106.998 1129.662, 2106.996 1129.250 C 2106.994 1128.838, 2106.138 1127.099, 2105.094 1125.387 C 2102.397 1120.964, 2095.722 1118.002, 2088.434 1117.993 C 2081.827 1117.986, 2079.028 1116.605, 2074.385 1111.062 C 2072.349 1108.631, 2072.071 1107.940, 2073.435 1108.704 C 2074.848 1109.494, 2076.337 1109.439, 2079.003 1108.499 C 2084.549 1106.542, 2092.859 1102.158, 2099.303 1097.789 C 2110.119 1090.455, 2115.838 1089.389, 2125 1093 C 2132.503 1095.957, 2138.614 1095.629, 2145.648 1091.890 C 2153.450 1087.744, 2157.632 1087.683, 2163.165 1091.635 C 2171.816 1097.815, 2175.232 1099, 2184.395 1099 C 2199.841 1099, 2202.762 1095.253, 2190.500 1091.169 C 2186.650 1089.887, 2182.050 1087.736, 2180.277 1086.389 C 2176.348 1083.403, 2171.703 1076.770, 2170.104 1071.861 C 2166.766 1061.615, 2151.025 1053.417, 2139.605 1055.977 C 2137.267 1056.500, 2131.787 1058.968, 2127.427 1061.460 L 2119.500 1065.992 2118.144 1061.246 C 2113.891 1046.355, 2099.129 1038.175, 2078.305 1039.171 C 2067.484 1039.688, 2060.727 1042.556, 2054.207 1049.396 C 2049.293 1054.553, 2042.708 1057.396, 2033.147 1058.492 L 2026.793 1059.220 2031.784 1052.860 C 2034.529 1049.362, 2038.478 1043.350, 2040.559 1039.500 C 2042.640 1035.650, 2044.400 1032.404, 2044.468 1032.287 C 2044.537 1032.169, 2046.822 1032.808, 2049.547 1033.706 C 2053.266 1034.932, 2058.363 1035.341, 2070 1035.345 C 2084.018 1035.350, 2086.351 1035.091, 2094.404 1032.635 C 2115.042 1026.341, 2138.876 1011.565, 2161.500 991.039 C 2172.473 981.084, 2178.154 977.215, 2182.894 976.470 C 2184.877 976.159, 2192.753 974.505, 2200.396 972.796 C 2214.950 969.542, 2220.438 969.073, 2228.150 970.428 C 2232.390 971.172, 2233.118 970.991, 2236.400 968.372 C 2238.380 966.793, 2240 964.712, 2240 963.750 C 2240 962.788, 2240.627 962, 2241.393 962 C 2245.899 962, 2242.762 953.194, 2236.865 949.292 C 2233.663 947.173, 2231.332 946.639, 2222.496 946 C 2213.265 945.332, 2211.446 944.888, 2207.918 942.443 C 2205.701 940.906, 2202.977 938.371, 2201.864 936.810 C 2198.919 932.673, 2194.471 930.687, 2189.426 931.255 C 2183.920 931.876, 2179.658 934.989, 2176.338 940.815 C 2170.662 950.773, 2167.159 952.528, 2151.024 953.495 C 2130.305 954.737, 2113.992 960.017, 2101.564 969.503 C 2098.946 971.502, 2096.702 972.994, 2096.578 972.818 C 2096.454 972.643, 2095.302 970.925, 2094.017 969 C 2092.733 967.075, 2090.311 964.033, 2088.635 962.239 L 2085.586 958.978 2088.043 957.321 C 2091.817 954.777, 2098.577 947.345, 2102.516 941.409 C 2111.178 928.360, 2110.975 919.108, 2101.868 911.896 C 2094.970 906.432, 2090.551 895.953, 2092.718 890.195 C 2093.504 888.106, 2094.287 887.865, 2101.043 887.637 C 2107.282 887.427, 2109.266 887.780, 2113.189 889.803 C 2122.093 894.394, 2139.012 893.752, 2160 888.027 C 2175.664 883.754, 2176.065 883.713, 2179.775 885.990 C 2183.363 888.193, 2184.232 889.945, 2186.655 899.855 C 2188.819 908.707, 2190.969 911, 2197.102 911 C 2202.947 911, 2211.997 906.523, 2222.943 898.218 C 2227.087 895.073, 2231.158 892.227, 2231.989 891.893 C 2234.764 890.777, 2237.997 893.280, 2242.032 899.668 C 2246.541 906.807, 2248.733 907.564, 2254.525 903.984 C 2258.834 901.322, 2261.591 902.396, 2266.569 908.677 C 2274.188 918.289, 2276.176 920, 2279.728 920 C 2282.930 920, 2290 917.653, 2290 916.590 C 2290 916.309, 2287.763 916.173, 2285.028 916.289 C 2277.789 916.596, 2276.092 914.533, 2274.824 903.883 C 2273.640 893.938, 2269.621 884.630, 2264.610 880.230 C 2262.052 877.985, 2259.793 877.080, 2255.362 876.527 C 2247.124 875.499, 2243.924 871.880, 2237.612 856.449 C 2228.082 833.151, 2224.154 829.301, 2208.844 828.252 L 2201.024 827.716 2198.537 823.474 C 2195.225 817.822, 2186.970 810.533, 2179.540 806.702 C 2174.125 803.910, 2172.568 803.583, 2164.500 803.544 C 2155.467 803.500, 2153.068 804.193, 2145.155 809.136 C 2143.410 810.225, 2142.661 809.926, 2139.117 806.725 C 2134.254 802.331, 2127.472 798.774, 2119.585 796.482 C 2111.660 794.178, 2094.824 794.803, 2086.906 797.696 C 2075.544 801.846, 2060.358 813.337, 2048.589 826.690 C 2034.835 842.296, 2031.872 853.448, 2035.644 875.422 L 2036.318 879.344 2032.718 876.598 C 2022.303 868.655, 2011.372 867.933, 1991 873.842 C 1983.575 875.996, 1976.038 878.074, 1974.251 878.458 L 1971.002 879.158 1972.658 876.273 C 1974.797 872.547, 1974.009 869.538, 1969.519 864.293 C 1965.661 859.786, 1965.641 859.849, 1971.500 858.001 C 1978.526 855.785, 1979.684 853.410, 1976.013 848.744 L 1974.026 846.218 1977.763 845.560 C 1983.496 844.551, 1990.729 842.032, 1991.881 840.643 C 1993.370 838.850, 1992.186 835.402, 1989.663 834.182 C 1987.932 833.344, 1988.922 833.122, 1994.628 833.068 C 1998.674 833.029, 2003.372 832.325, 2005.494 831.438 L 2009.232 829.876 2007.176 827.688 L 2005.119 825.500 2015.310 826.379 C 2027.444 827.427, 2035.488 826.130, 2039.410 822.495 C 2043.143 819.036, 2042.902 814.543, 2038.750 810.183 C 2036.174 807.477, 2035.915 806.880, 2037.500 807.303 C 2042.633 808.671, 2051.232 809.006, 2057.075 808.066 C 2067.245 806.429, 2068.684 802.421, 2061.632 795.368 L 2057.263 791 2064.882 790.994 C 2074.316 790.988, 2079.561 789.599, 2081.536 786.585 C 2084.113 782.652, 2082.067 779.394, 2075.863 777.552 C 2072.989 776.698, 2069.519 776, 2068.152 776 C 2063.560 776, 2066.603 775.007, 2076.085 773.412 C 2087.244 771.535, 2102.099 766.820, 2107 763.598 C 2109.130 762.198, 2111.030 759.827, 2111.854 757.539 C 2113.049 754.223, 2113.015 753.587, 2111.563 752.140 C 2108.845 749.432, 2098.968 750.346, 2086.383 754.471 C 2071.643 759.300, 2056.041 761.710, 2034.250 762.521 C 2017.691 763.138, 2016 763.048, 2016 761.553 C 2016 759.036, 2011.363 755.291, 2007.304 754.529 L 2003.673 753.848 2011.433 749.629 C 2019.549 745.217, 2027.410 738.434, 2028.542 734.868 C 2029.734 731.111, 2026.930 729.551, 2021.068 730.710 C 2013.835 732.140, 2014.541 730.347, 2023.108 725.527 C 2033.830 719.496, 2038.363 713.714, 2036.393 708.582 C 2035.550 706.385, 2034.108 706.583, 2027.812 709.759 L 2022.341 712.518 2028.996 706.009 C 2037.406 697.784, 2042.345 690.661, 2041.495 687.983 C 2040.098 683.583, 2034.151 684.693, 2026.870 690.714 C 2023.948 693.130, 2024.083 692.836, 2027.888 688.500 C 2030.302 685.750, 2033.142 681.573, 2034.199 679.218 C 2036.533 674.019, 2037.808 661.617, 2036.115 660.571 C 2034.240 659.412, 2028.553 663.608, 2022.036 670.960 C 2018.680 674.744, 2014.262 678.826, 2012.218 680.030 C 2008.701 682.101, 2008.802 681.901, 2014.102 676.339 C 2023.682 666.284, 2029.697 650.886, 2027.175 642.875 C 2026.591 641.019, 2025.620 637.587, 2025.018 635.250 C 2024.416 632.913, 2023.603 631.006, 2023.211 631.012 C 2022.820 631.019, 2021.518 632.541, 2020.319 634.393 M 808.210 646.289 L 800.969 653.578 804.271 656.778 L 807.572 659.978 814.992 652.508 L 822.411 645.039 819.519 642.019 C 817.928 640.359, 816.361 639, 816.038 639 C 815.715 639, 812.192 642.280, 808.210 646.289 M 787.594 668.122 C 783.967 672.039, 781.032 675.526, 781.072 675.872 C 781.112 676.217, 782.634 677.735, 784.454 679.245 L 787.763 681.990 794.519 674.443 L 801.274 666.895 798.450 663.948 C 796.897 662.326, 795.302 661, 794.907 661 C 794.511 661, 791.220 664.205, 787.594 668.122 M 1114.750 664.766 L 1087 665.032 1087 673.917 L 1087 682.802 1104.250 683.164 C 1120.272 683.501, 1121.892 683.709, 1127.006 686.096 C 1137.853 691.159, 1142.362 698.358, 1143.990 713.209 C 1144.550 718.319, 1145.118 751.300, 1145.254 786.500 L 1145.500 850.500 1138 842.924 C 1121.778 826.538, 1095.123 815.024, 1063.054 810.551 C 1050.312 808.774, 1022.116 808.501, 1008.500 810.022 C 967.867 814.562, 934.747 828.953, 909.702 852.950 C 897.358 864.777, 888.755 876.229, 881.118 891 C 866.841 918.615, 861.300 944.278, 862.284 978.241 C 863.046 1004.540, 866.802 1020.430, 877.578 1042.926 C 897.795 1085.132, 933.383 1114.150, 980.368 1126.740 C 990.205 1129.375, 991.433 1129.465, 1022.500 1129.821 C 1056.909 1130.216, 1065.169 1129.574, 1079.797 1125.368 C 1109.701 1116.768, 1117.696 1100.681, 1101.859 1080.974 L 1098.801 1077.169 1092.650 1082.161 C 1084.438 1088.828, 1068.725 1096.406, 1056.477 1099.608 C 1044.279 1102.797, 1024.520 1103.881, 1011.836 1102.056 C 971.369 1096.237, 937.341 1065.965, 922.937 1022.970 C 916.701 1004.359, 915.562 996.613, 915.584 973 C 915.602 954.603, 915.925 950.021, 917.821 941.251 C 925.425 906.085, 941.973 878.107, 965.949 859.881 C 974.916 853.065, 992.456 844.627, 1004.500 841.335 C 1013.922 838.760, 1015.743 838.600, 1036 838.567 C 1056.074 838.535, 1058.196 838.709, 1068 841.202 C 1104.099 850.382, 1126.752 870.420, 1138.643 903.689 C 1145.518 922.925, 1145.874 927.548, 1146.577 1006.699 C 1147.070 1062.269, 1147.510 1078.876, 1148.622 1083.897 C 1152.638 1102.024, 1166.895 1115.986, 1186.511 1121.003 C 1193.513 1122.794, 1197.608 1123, 1226.160 1123 L 1258 1123 1258 1114.086 L 1258 1105.172 1241.750 1104.836 C 1226.683 1104.524, 1225.100 1104.310, 1220 1101.892 C 1210.293 1097.288, 1202.879 1087.651, 1199.997 1075.888 C 1199.278 1072.953, 1198.454 1011.153, 1197.508 889.268 C 1196.545 765.084, 1195.738 705.069, 1194.975 700.862 C 1190.645 676.984, 1177.076 666.119, 1150 664.851 C 1145.875 664.658, 1130.013 664.620, 1114.750 664.766 M 185.500 679.658 C 182.200 679.872, 166 681.374, 149.500 682.997 C 133 684.620, 113.875 686.477, 107 687.123 C 100.125 687.768, 73.350 688.568, 47.500 688.898 L 0.500 689.500 0.216 699.673 L -0.068 709.846 19.216 710.173 C 37.869 710.490, 38.664 710.588, 43.500 713.161 C 49.919 716.577, 54.329 721.220, 57.118 727.500 L 59.338 732.500 60.622 907 C 61.328 1002.975, 61.641 1083.075, 61.317 1085 C 59.784 1094.102, 53.066 1102.249, 43.472 1106.641 C 36.218 1109.962, 29.527 1111, 15.364 1111 L 3 1111 3 1120.546 L 3 1130.093 139.250 1129.719 C 287.756 1129.311, 282.352 1129.508, 311.075 1123.444 C 349.751 1115.278, 382.290 1096.680, 400.718 1072.209 C 425.821 1038.873, 431.100 992.073, 414.009 954.363 C 401.401 926.543, 371.273 902.483, 337.392 893.178 L 330.500 891.285 338.958 887.027 C 361.708 875.573, 379.368 859.232, 388.368 841.307 C 395.223 827.655, 398.525 807.142, 396.898 788.318 C 394.540 761.042, 384.376 739.228, 365.662 721.278 C 343.945 700.448, 315.923 688.240, 275.310 681.915 C 263.459 680.070, 256.535 679.730, 226.500 679.517 C 207.250 679.380, 188.800 679.444, 185.500 679.658 M 768.135 690.416 C 764.761 694.495, 762 698.236, 762 698.728 C 762 699.568, 767.368 704, 768.385 704 C 768.641 704, 771.778 700.583, 775.355 696.408 L 781.859 688.815 778.548 685.908 C 776.726 684.308, 775.018 683, 774.753 683 C 774.487 683, 771.509 686.337, 768.135 690.416 M 749.606 713.319 C 746.523 717.344, 744 720.886, 744 721.189 C 744 721.492, 746.049 722.314, 748.554 723.015 C 752.713 724.180, 753.225 724.126, 754.451 722.395 C 755.190 721.353, 757.393 718.489, 759.347 716.031 L 762.900 711.562 759.700 708.822 C 757.940 707.314, 756.210 706.063, 755.856 706.041 C 755.502 706.018, 752.689 709.294, 749.606 713.319 M 191 711.022 C 162.235 713.195, 133.036 719.029, 118.294 725.549 L 113 727.890 113.077 751.195 C 113.120 764.013, 113.687 843.896, 114.337 928.714 C 115.494 1079.695, 115.560 1082.957, 117.467 1084.352 C 120.655 1086.683, 130.827 1089.897, 141.603 1091.978 C 160.371 1095.603, 179.586 1097.131, 213.616 1097.708 C 256.756 1098.438, 271.349 1097.003, 294 1089.805 C 326.569 1079.454, 351.713 1056.932, 361.098 1029.703 C 366.675 1013.522, 367.059 999.557, 362.433 981.196 C 356.377 957.165, 342.605 939.770, 321.500 929.494 C 310.488 924.132, 300.152 921.443, 284.806 919.945 C 274.861 918.974, 270.298 919.080, 254.306 920.652 C 243.963 921.668, 228.075 922.493, 219 922.484 C 203.845 922.469, 202.073 922.276, 197.258 920.114 C 181.502 913.040, 178.306 895.537, 190.631 883.822 L 194.500 880.145 202 881.043 C 206.125 881.537, 218.500 882.242, 229.500 882.610 C 258.541 883.581, 273.491 881.158, 291.706 872.530 C 314.182 861.882, 328.685 846.399, 335.759 825.500 C 338.285 818.036, 338.462 816.394, 338.402 801 C 338.343 786.072, 338.082 783.662, 335.659 775.703 C 327.291 748.212, 309.689 730.985, 278.943 720.195 C 256.686 712.385, 221.519 708.716, 191 711.022 M 2089 800.701 C 2078.079 804.445, 2058.529 819.860, 2049.105 832.159 C 2046.854 835.097, 2044.018 838.742, 2042.803 840.261 C 2039.897 843.892, 2039.315 852.860, 2041.023 867.694 C 2042.645 881.786, 2041.458 890.451, 2036.519 900.570 C 2028.688 916.615, 2015.130 926.312, 1994.580 930.564 C 1979.253 933.736, 1970.137 940.581, 1953.234 961.610 C 1937.396 981.313, 1924.469 995.433, 1918.512 999.536 C 1914.139 1002.548, 1913.259 1003.566, 1914.452 1004.233 C 1917.402 1005.884, 1918.500 1009.483, 1918.500 1017.500 C 1918.500 1028.183, 1921.431 1034.457, 1927.962 1037.750 C 1934.990 1041.294, 1936.550 1040.872, 1938.537 1034.888 C 1940.680 1028.436, 1940.074 1022.523, 1936.581 1015.790 C 1934.905 1012.560, 1934.277 1010.323, 1934.876 1009.724 C 1936.198 1008.402, 1937.681 1009.535, 1940.527 1014.043 C 1944.967 1021.076, 1945.327 1025.551, 1942.535 1039.025 C 1939.870 1051.887, 1940.070 1054.298, 1944.165 1058.670 C 1947.701 1062.444, 1951.157 1063.317, 1957.419 1062.017 C 1960.489 1061.380, 1962.973 1060.553, 1962.939 1060.179 C 1962.905 1059.806, 1961.026 1058.150, 1958.762 1056.500 C 1956.498 1054.850, 1953.562 1051.475, 1952.237 1049 C 1945.489 1036.396, 1954.682 1015.502, 1973.124 1001.528 C 1981.207 995.402, 1992.833 989.905, 2007.216 985.406 C 2044.155 973.853, 2056.482 969.503, 2066.579 964.455 C 2078.677 958.407, 2089.677 950.304, 2094.735 943.715 C 2098.318 939.048, 2102 930.288, 2102 926.430 C 2102 922.486, 2099.307 917.057, 2095.073 912.463 C 2089.024 905.901, 2087.554 902.439, 2087.584 894.825 L 2087.610 888.150 2085.055 889.480 C 2081.127 891.525, 2078.374 894.942, 2075.370 901.503 C 2073.078 906.508, 2072.522 909.402, 2072.007 919 C 2071.599 926.620, 2070.849 931.512, 2069.785 933.500 C 2066.265 940.074, 2058.622 944.934, 2047.781 947.489 C 2040.462 949.215, 2039 949.320, 2039 948.122 C 2039 947.638, 2041.980 946.495, 2045.622 945.580 C 2061.917 941.486, 2065.461 936.931, 2066.991 918.111 C 2068.896 894.677, 2077.153 884.966, 2097.308 882.458 C 2100.366 882.078, 2102.338 881.282, 2102.726 880.273 C 2103.060 879.400, 2102.586 875.878, 2101.672 872.446 C 2099.869 865.679, 2100.207 861.645, 2103.053 856 C 2106.460 849.240, 2113.284 844.620, 2121 843.849 C 2125.836 843.367, 2125.998 845.253, 2121.240 846.638 C 2114.370 848.640, 2111.088 850.907, 2108.924 855.148 C 2105.952 860.975, 2105.537 868.158, 2107.693 876.459 C 2109.471 883.307, 2109.586 883.463, 2114.864 886.209 C 2119.453 888.597, 2121.404 888.999, 2128.364 888.996 C 2138.702 888.991, 2151.236 886.961, 2162.040 883.542 C 2166.693 882.070, 2172.750 880.818, 2175.500 880.761 C 2184.191 880.581, 2187.424 883.736, 2189.080 894.013 C 2191.208 907.230, 2194.063 908.714, 2206.500 903.067 C 2209.800 901.568, 2215.425 897.877, 2219 894.865 C 2222.575 891.852, 2226.613 888.625, 2227.973 887.694 C 2233.427 883.957, 2240.879 886.815, 2244.940 894.201 C 2248.667 900.978, 2248.908 901.178, 2251.330 899.482 C 2255.823 896.334, 2260.748 897.803, 2267.823 904.401 L 2271.146 907.500 2270.489 904.500 C 2269.073 898.037, 2265.736 888.347, 2263.895 885.349 C 2261.548 881.528, 2260.313 881.002, 2253.668 880.993 C 2243.862 880.981, 2239.209 875.272, 2229.045 850.784 C 2223.457 837.322, 2220.356 834.997, 2206.968 834.234 C 2200.942 833.890, 2195.848 834.271, 2189.935 835.507 C 2176.675 838.280, 2170.401 837.975, 2162.852 834.191 C 2155.868 830.691, 2149.134 825.533, 2150.181 824.486 C 2150.548 824.118, 2153.866 825.505, 2157.554 827.567 C 2166.036 832.311, 2174.091 833.044, 2187.421 830.286 L 2196.343 828.440 2190.005 821.664 C 2179.208 810.122, 2170.666 806.689, 2159.720 809.493 C 2152.601 811.317, 2149.679 813.018, 2138.756 821.694 C 2126.282 831.602, 2122.594 833.142, 2109.138 834.066 C 2091.579 835.271, 2085.504 839.598, 2080.083 854.762 C 2075.646 867.174, 2071.332 871.875, 2060.782 875.795 C 2052.366 878.921, 2049 879.439, 2049 877.608 C 2049 876.656, 2052.188 874.506, 2057.250 872.043 C 2061.787 869.836, 2066.214 867.460, 2067.087 866.765 C 2067.959 866.069, 2071.205 860.550, 2074.300 854.500 C 2080.440 842.497, 2085.319 836.656, 2091.506 833.904 C 2095.837 831.978, 2106.242 830.020, 2112.212 830.008 C 2118.756 829.994, 2126.296 826.380, 2133.443 819.832 L 2140.109 813.723 2137.445 810.942 C 2133.862 807.203, 2124.650 802.404, 2117.458 800.531 C 2109.920 798.568, 2094.962 798.657, 2089 800.701 M 615 803.671 C 592.929 805.885, 577.138 808.982, 561.661 814.132 C 502.089 833.954, 466.288 879.663, 457.984 946.500 C 456.361 959.564, 456.573 986.647, 458.393 998.702 C 467.636 1059.936, 505.660 1106.841, 561.938 1126.430 L 572.194 1130 636.922 1130 L 701.650 1130 708.615 1127.631 C 753.031 1112.524, 784.900 1082.137, 801.541 1039.027 C 808.849 1020.094, 811.993 1003.053, 812.708 978.500 C 814.739 908.659, 787.701 854.219, 736.600 825.266 C 710.227 810.322, 676.093 802.825, 636 803.170 C 626.375 803.252, 616.925 803.478, 615 803.671 M 1286.100 812.048 C 1274.697 815.034, 1266.578 820.659, 1264.064 827.315 C 1262.450 831.585, 1262.692 832, 1266.790 832 C 1271.703 832, 1280.934 834.423, 1286.280 837.116 C 1296.481 842.254, 1304.857 851.812, 1312.531 867.073 C 1317.899 877.747, 1324.859 894.273, 1348.298 952 C 1395.815 1069.025, 1406.273 1089.955, 1425.100 1105.712 C 1435.846 1114.706, 1450.307 1121, 1460.224 1121 L 1464.027 1121 1462.513 1124.622 C 1461.681 1126.614, 1461 1128.648, 1461 1129.141 C 1461 1129.651, 1471.009 1129.921, 1484.246 1129.768 L 1507.492 1129.500 1532.591 1065 C 1562.073 989.237, 1587.303 923.156, 1599.987 888.481 C 1604.976 874.841, 1610.728 860.504, 1612.768 856.622 C 1619.939 842.976, 1632.773 832.360, 1644.250 830.581 C 1646.313 830.262, 1649.575 829.755, 1651.500 829.455 L 1655 828.909 1655 820.205 L 1655.001 811.500 1590.250 811.712 C 1554.638 811.829, 1520.438 812.211, 1514.250 812.561 L 1503 813.197 1503 821.500 L 1503 829.803 1514.750 830.465 C 1549.919 832.447, 1561.001 838.503, 1559.650 855 C 1557.910 876.243, 1531.924 951.335, 1488.276 1061.250 C 1479.123 1084.301, 1475.234 1092.997, 1474.084 1092.990 C 1470.247 1092.967, 1461.405 1087.604, 1455.861 1081.938 C 1446.331 1072.200, 1437.875 1053.146, 1405.514 968.500 C 1399.627 953.100, 1387.837 922.275, 1379.316 900 C 1359.992 849.487, 1353.482 835.669, 1344.547 826.197 C 1336.960 818.154, 1329.040 813.540, 1319.270 811.469 C 1309.671 809.435, 1295.106 809.689, 1286.100 812.048 M 620.883 834.974 C 587.965 838.184, 563.078 849.565, 543.247 870.478 C 519.584 895.431, 507.768 929.393, 507.753 972.500 C 507.729 1039.782, 540.240 1087.738, 595.500 1101.934 C 622.443 1108.855, 654.715 1108.654, 679.711 1101.411 C 722.621 1088.976, 751.712 1054.110, 760.570 1004.500 C 762.774 992.157, 763.545 964.935, 762.088 950.886 C 755.284 885.290, 722.920 846.273, 667.171 836.456 C 656.620 834.598, 632.619 833.829, 620.883 834.974 M 1649.741 928.750 C 1650.685 935.903, 1650.621 956.760, 1649.581 981 C 1648.684 1001.899, 1649.659 1009.295, 1654.679 1019.662 C 1658.722 1028.010, 1668.024 1036.974, 1677.247 1041.410 C 1681.352 1043.385, 1685.624 1045, 1686.741 1045 C 1687.858 1045, 1691.435 1043.222, 1694.690 1041.048 C 1697.945 1038.875, 1702.834 1036.621, 1705.554 1036.041 C 1708.274 1035.460, 1711.498 1034.758, 1712.718 1034.481 C 1714.223 1034.140, 1718.217 1029.077, 1725.137 1018.739 C 1732.835 1007.239, 1737.970 1000.866, 1746.069 992.765 L 1756.801 982.030 1749.150 977.821 C 1744.943 975.506, 1720.861 962.224, 1695.635 948.306 C 1670.409 934.388, 1649.592 923, 1649.376 923 C 1649.160 923, 1649.324 925.587, 1649.741 928.750 M 1897.724 989.664 C 1897.181 992.505, 1898.374 995.882, 1900.400 997.235 C 1903.525 999.321, 1910.955 996.714, 1917.482 991.240 L 1920.463 988.739 1917.303 989.434 C 1914.463 990.057, 1908.034 989.302, 1900.856 987.500 C 1898.594 986.932, 1898.193 987.209, 1897.724 989.664 M 2073.230 1044.550 C 2066.038 1046.487, 2063.180 1048.127, 2058.500 1053.002 C 2056.300 1055.294, 2052.765 1058.065, 2050.644 1059.159 C 2045.623 1061.750, 2035.057 1063.958, 2027.500 1063.995 L 2021.500 1064.024 2029.376 1067.463 C 2033.708 1069.354, 2039.108 1072.112, 2041.376 1073.592 C 2047.764 1077.761, 2062.155 1092.801, 2066.488 1099.836 C 2070.122 1105.736, 2070.592 1106.132, 2073.322 1105.586 C 2077.462 1104.758, 2086.837 1099.839, 2095.406 1093.999 C 2099.429 1091.258, 2104.344 1088.336, 2106.328 1087.507 C 2111.678 1085.272, 2118.751 1085.632, 2125.808 1088.500 C 2134.032 1091.842, 2138.454 1091.710, 2145.648 1087.908 C 2153.608 1083.702, 2158.520 1084.149, 2167.317 1089.880 C 2175 1094.886, 2177.759 1095.687, 2185 1095.012 L 2190.500 1094.500 2185.085 1093.229 C 2175.041 1090.873, 2169.352 1085.361, 2165.024 1073.793 C 2161.714 1064.946, 2153.379 1059, 2144.290 1059 C 2140.111 1059.001, 2138.162 1059.844, 2129 1065.619 C 2110 1077.594, 2097.694 1082.047, 2092.009 1079.005 C 2087.751 1076.726, 2080.458 1077.500, 2073.386 1080.982 C 2069.797 1082.748, 2066.554 1083.885, 2066.180 1083.507 C 2065.292 1082.610, 2070.415 1078.505, 2075.566 1075.987 C 2080.460 1073.595, 2083.684 1073.506, 2091.524 1075.548 C 2098.821 1077.449, 2103.365 1076.788, 2109.422 1072.947 C 2114.604 1069.661, 2114.902 1068.399, 2112.445 1060.126 C 2108.467 1046.732, 2090.958 1039.778, 2073.230 1044.550 M 211.470 1484.750 C 225.675 1540.254, 245.610 1598.863, 268.699 1653 C 342.203 1825.348, 454.117 1977.030, 597.272 2098.330 L 611.044 2110 638.722 2110 C 654.149 2110, 665.980 2109.621, 665.450 2109.144 C 664.928 2108.673, 660.225 2104.969, 655 2100.913 C 607.624 2064.139, 552.730 2013.558, 513.467 1970.500 C 401.223 1847.408, 317.298 1704.389, 266.128 1549 C 258.512 1525.871, 250.033 1497.348, 245.393 1479.250 L 242.510 1468 224.847 1468 L 207.183 1468 211.470 1484.750 M 262.371 1469.750 C 262.649 1470.713, 264.514 1477.575, 266.516 1485 C 305.132 1628.232, 374.159 1766.598, 466.173 1885.217 C 494.446 1921.664, 521.118 1952.046, 554.966 1986.356 C 598.188 2030.170, 639.395 2066.258, 684.372 2099.689 L 698.244 2110 716.322 2110 C 726.351 2110, 733.977 2109.621, 733.450 2109.148 C 732.928 2108.680, 727.775 2104.998, 722 2100.965 C 567.616 1993.171, 437.450 1838.456, 355.631 1665.500 C 327.227 1605.455, 300.996 1534.375, 285.978 1476.750 L 283.697 1468 272.781 1468 C 262.859 1468, 261.911 1468.159, 262.371 1469.750 M 601.440 1481.750 C 630.936 1558.670, 675.405 1635.919, 727.365 1700.500 C 751.285 1730.231, 787.461 1768.621, 815.174 1793.685 C 908.029 1877.664, 1015.027 1937.484, 1135 1972.491 C 1205.289 1993.001, 1272.953 2003.199, 1348.500 2004.670 C 1451.678 2006.680, 1551.200 1989.538, 1648.474 1953.003 C 1705.629 1931.536, 1757.729 1905.070, 1809.500 1871.205 C 1822.543 1862.672, 1825.130 1860.606, 1823.500 1860.021 C 1822.400 1859.627, 1815.579 1858.502, 1808.342 1857.522 L 1795.184 1855.740 1783.342 1863.222 C 1756.230 1880.352, 1721.480 1899.005, 1690.691 1912.953 C 1512.516 1993.674, 1314.138 2005.977, 1126.481 1947.946 C 935.738 1888.961, 773.716 1758.733, 673.058 1583.500 C 655.633 1553.165, 631.485 1502.525, 621.439 1475.250 L 618.768 1468 607.468 1468 L 596.168 1468 601.440 1481.750 M 832.524 1472.250 C 833.820 1480.115, 839.986 1498.970, 845.288 1511.281 C 871.453 1572.037, 927.123 1616.623, 999 1634.393 C 1028.300 1641.636, 1046.237 1643.506, 1078.500 1642.682 C 1161.367 1640.566, 1224.580 1618.075, 1239.687 1585.333 C 1244.747 1574.364, 1244.851 1561.508, 1239.955 1551.912 C 1235.532 1543.242, 1223.548 1536, 1213.624 1536 C 1209.495 1536, 1209.452 1536.039, 1203.489 1545.217 C 1195.944 1556.829, 1177.443 1575.772, 1166.568 1583.020 C 1139.881 1600.807, 1105.159 1608.944, 1061.200 1607.716 C 1032.747 1606.921, 1016.119 1602.689, 989.500 1589.468 C 971.451 1580.504, 959.095 1571.874, 945.161 1558.500 C 921.806 1536.083, 906.645 1511.886, 896.768 1481.266 L 892.500 1468.031 862.162 1468.016 L 831.824 1468 832.524 1472.250 M 1337 1505.776 C 1337 1555.985, 1338.413 1566.291, 1347.927 1585.500 C 1361.311 1612.524, 1385.745 1628.716, 1422.660 1635.027 C 1460.310 1641.464, 1497.495 1636.753, 1527.500 1621.746 C 1546.604 1612.192, 1567.140 1594.619, 1577.686 1578.802 L 1582.819 1571.104 1583.159 1585.802 C 1583.476 1599.477, 1583.693 1600.893, 1586.270 1606.142 C 1589.618 1612.957, 1596.264 1619.316, 1603.507 1622.632 C 1613.708 1627.302, 1621.553 1628.055, 1657 1627.765 L 1689.500 1627.500 1689.803 1621.031 C 1690.331 1609.772, 1691.038 1610.340, 1675.764 1609.747 C 1655.119 1608.945, 1644.499 1604.585, 1637.917 1594.209 C 1632.723 1586.020, 1632 1581.731, 1631.998 1559.068 C 1631.998 1547.756, 1631.700 1522.638, 1631.336 1503.250 L 1630.676 1468 1606.489 1468 L 1582.302 1468 1581.728 1480.750 C 1580.719 1503.158, 1575.730 1521.825, 1565.264 1542.343 C 1549.016 1574.198, 1523.517 1596.248, 1492 1605.696 C 1481.498 1608.844, 1459.442 1609.988, 1447.191 1608.020 C 1415.183 1602.879, 1396.852 1583.648, 1389.506 1547.502 C 1387.433 1537.304, 1386.071 1514.083, 1386.031 1488.250 L 1386 1468 1361.500 1468 L 1337 1468 1337 1505.776 M 1745.473 1492.750 C 1745.755 1506.362, 1746.226 1562.752, 1746.519 1618.061 C 1747.044 1717.167, 1747.022 1718.717, 1745.016 1725.214 C 1742.416 1733.629, 1736.238 1740.791, 1728.828 1743.979 C 1724.699 1745.755, 1721.008 1746.341, 1711.299 1746.760 L 1699 1747.291 1699 1756.145 L 1699 1765 1756.750 1764.998 C 1788.513 1764.997, 1825.638 1764.700, 1839.250 1764.338 L 1864 1763.680 1864 1754.840 L 1864 1746 1850.750 1745.992 C 1843.463 1745.988, 1834.575 1745.518, 1831 1744.948 C 1817.137 1742.738, 1805.403 1734.447, 1800.212 1723.196 C 1797.804 1717.977, 1797.525 1715.994, 1796.869 1699.500 C 1796.476 1689.600, 1796.119 1658.100, 1796.076 1629.500 C 1796.033 1600.900, 1795.700 1552.862, 1795.335 1522.750 L 1794.673 1468 1769.816 1468 L 1744.959 1468 1745.473 1492.750 M 2020.743 1485.750 C 2019.852 1517.053, 2012.656 1541.338, 1997.574 1563.940 C 1983.093 1585.643, 1963.253 1600.199, 1939.416 1606.610 C 1933.944 1608.082, 1929.160 1608.452, 1916.500 1608.383 C 1902.706 1608.308, 1899.179 1607.944, 1890.922 1605.749 C 1876.182 1601.830, 1864.758 1595.559, 1855.852 1586.500 L 1851.204 1581.771 1846.652 1585.967 C 1840.550 1591.592, 1837.667 1597.738, 1837.667 1605.123 C 1837.667 1620.015, 1852.512 1630.410, 1881.364 1635.721 C 1888.132 1636.967, 1896.201 1637.405, 1912.500 1637.410 C 1931.654 1637.417, 1935.859 1637.123, 1945 1635.144 C 1959.879 1631.922, 1968.755 1628.809, 1982.500 1621.992 C 2025.117 1600.853, 2057.856 1557.363, 2068.055 1508.340 C 2070.500 1496.592, 2072.152 1478.391, 2071.324 1472.345 L 2070.728 1468 2045.988 1468 L 2021.248 1468 2020.743 1485.750 M 2172.050 1523.750 C 2172.249 1573.218, 2172.091 1579.991, 2170.643 1583.860 C 2167.199 1593.063, 2159.746 1600.331, 2149.723 1604.261 C 2145.752 1605.818, 2141.092 1606.463, 2130.284 1606.953 C 2122.465 1607.308, 2115.869 1607.801, 2115.625 1608.049 C 2115.382 1608.297, 2115.422 1612.325, 2115.716 1617 L 2116.250 1625.500 2197.375 1624.911 C 2241.994 1624.586, 2278.613 1624.249, 2278.750 1624.161 C 2278.887 1624.072, 2279 1619.910, 2279 1614.910 L 2279 1605.820 2270.750 1606.489 C 2260.839 1607.291, 2251.015 1605.866, 2243.474 1602.531 C 2236.226 1599.325, 2227.818 1591.268, 2224.868 1584.702 C 2222.582 1579.612, 2222.518 1578.616, 2221.880 1538.500 C 2221.522 1515.950, 2221.177 1490.862, 2221.114 1482.750 L 2221 1468 2196.413 1468 L 2171.826 1468 2172.050 1523.750 M 2306.008 1473.750 C 2306.040 1496.098, 2312.729 1522.856, 2323.593 1544.095 C 2346.309 1588.505, 2386.797 1617.950, 2437.822 1627.168 C 2459.482 1631.081, 2499.912 1629.508, 2521.943 1623.894 C 2530.841 1621.626, 2542.156 1616.454, 2546.794 1612.533 C 2556.807 1604.068, 2556.659 1591.139, 2546.413 1579.169 L 2542.835 1574.989 2537.667 1579.553 C 2530.687 1585.717, 2512.841 1594.430, 2500.500 1597.700 C 2491.576 1600.064, 2488.617 1600.356, 2473 1600.417 C 2456.824 1600.479, 2454.748 1600.275, 2445.558 1597.715 C 2395.801 1583.854, 2363.437 1539.147, 2359.439 1478.750 L 2358.727 1468 2332.364 1468 L 2306 1468 2306.008 1473.750 M 2591.232 1523.250 C 2591.634 1576.586, 2591.723 1578.728, 2593.809 1585.072 C 2599.531 1602.472, 2612.579 1614.161, 2631.756 1619.065 C 2638.457 1620.779, 2642.952 1621, 2671.160 1621 L 2703 1621 2703 1612.103 L 2703 1603.206 2686.750 1602.834 C 2671.803 1602.492, 2670.055 1602.255, 2664.954 1599.880 C 2657.370 1596.348, 2652.900 1592.167, 2649.110 1585.055 C 2643.358 1574.263, 2643.037 1570.662, 2643.017 1516.750 L 2643 1468 2616.908 1468 L 2590.815 1468 2591.232 1523.250 M 644.250 1471.247 C 642.462 1471.820, 641 1472.671, 641 1473.138 C 641 1475.012, 648.269 1492, 649.071 1492 C 650.639 1492, 657.042 1488.624, 656.769 1487.942 C 651.315 1474.340, 649.317 1470.031, 648.500 1470.109 C 647.950 1470.161, 646.038 1470.673, 644.250 1471.247 M 655.823 1499.031 L 652.146 1500.973 656.264 1509.986 C 658.528 1514.944, 660.992 1519, 661.740 1519 C 663.212 1519, 669 1516.223, 669 1515.517 C 669 1514.378, 660.637 1497.006, 660.108 1497.044 C 659.773 1497.069, 657.845 1497.962, 655.823 1499.031 M 668.750 1525.733 C 666.688 1526.579, 665 1527.704, 665 1528.233 C 665 1530.037, 673.315 1545.184, 674.569 1545.665 C 675.928 1546.186, 681.973 1543.403, 682.043 1542.224 C 682.107 1541.152, 673.584 1524.133, 673 1524.166 C 672.725 1524.182, 670.813 1524.887, 668.750 1525.733 M 681.750 1552.572 C 680.237 1553.393, 679 1554.515, 679 1555.067 C 679 1555.840, 687.352 1571.415, 688.504 1572.791 C 688.947 1573.319, 696 1568.819, 696 1568.009 C 696 1566.178, 686.781 1551.003, 685.690 1551.040 C 685.036 1551.062, 683.263 1551.751, 681.750 1552.572 M 696.789 1578.587 L 693.079 1580.979 698.165 1589.490 C 700.962 1594.170, 703.704 1598, 704.258 1598 C 704.811 1598, 706.756 1597.078, 708.580 1595.950 L 711.897 1593.901 707.299 1586.200 C 700.971 1575.600, 701.184 1575.755, 696.789 1578.587 M 712.250 1604.115 C 710.462 1605.260, 709 1606.382, 709 1606.608 C 709 1607.468, 720.329 1623.999, 720.900 1623.973 C 721.230 1623.958, 722.942 1622.721, 724.704 1621.223 L 727.907 1618.500 722.472 1610.250 C 719.482 1605.713, 716.690 1602.008, 716.268 1602.017 C 715.846 1602.026, 714.038 1602.970, 712.250 1604.115 M 728.541 1629.378 L 725.581 1631.746 729.294 1637.123 C 736.381 1647.388, 737.411 1648.394, 739.564 1647.152 C 745.701 1643.608, 745.704 1643.836, 739.425 1635.067 C 736.249 1630.630, 733.166 1627.002, 732.575 1627.005 C 731.984 1627.008, 730.168 1628.075, 728.541 1629.378 M 746.743 1652.944 L 742.999 1655.735 749.078 1663.617 C 752.422 1667.953, 755.536 1671.638, 755.999 1671.807 C 756.462 1671.976, 758.248 1670.851, 759.967 1669.307 L 763.093 1666.500 756.955 1658.500 C 753.579 1654.100, 750.742 1650.422, 750.651 1650.326 C 750.560 1650.231, 748.801 1651.409, 746.743 1652.944 M 765.048 1676.819 L 761.650 1679.655 768.053 1687.328 C 771.574 1691.547, 774.796 1695, 775.212 1695 C 775.628 1695, 777.365 1693.752, 779.072 1692.227 L 782.175 1689.454 775.938 1681.977 C 772.508 1677.865, 769.419 1674.383, 769.074 1674.241 C 768.728 1674.099, 766.917 1675.259, 765.048 1676.819 M 783.942 1699.761 L 780.852 1702.521 788.176 1710.351 L 795.500 1718.180 798.685 1714.840 L 801.869 1711.500 795.336 1704.250 C 791.742 1700.263, 788.404 1697, 787.917 1697 C 787.430 1697, 785.641 1698.242, 783.942 1699.761 M 804.473 1722.028 L 801.573 1725.055 808.781 1732.264 L 815.989 1739.472 819.222 1736.240 L 822.454 1733.008 815.504 1726.004 C 811.681 1722.152, 808.288 1719, 807.964 1719 C 807.640 1719, 806.069 1720.362, 804.473 1722.028 M 2333.034 1737.750 C 2308.397 1781.508, 2272.522 1835.091, 2241.141 1875 C 2173.140 1961.482, 2088.190 2041.951, 2001.924 2101.597 C 1995.916 2105.751, 1991 2109.341, 1991 2109.575 C 1991 2109.809, 1999.008 2110, 2008.796 2110 L 2026.591 2110 2043.578 2097.250 C 2089.386 2062.867, 2126.947 2030.202, 2168 1989.046 C 2238.396 1918.474, 2297.942 1840.823, 2347.175 1755.392 C 2352.982 1745.315, 2356.895 1737.504, 2356.386 1737.005 C 2355.550 1736.189, 2339.315 1730, 2338.008 1730 C 2337.672 1730, 2335.434 1733.487, 2333.034 1737.750 M 825.517 1742.983 C 822.682 1745.942, 822.674 1745.983, 824.579 1748.095 C 825.636 1749.266, 829.143 1752.516, 832.372 1755.317 L 838.245 1760.410 841.294 1756.997 L 844.343 1753.585 836.921 1746.794 C 832.840 1743.059, 829.247 1740.002, 828.937 1740.001 C 828.627 1740.001, 827.088 1741.342, 825.517 1742.983 M 2368.968 1755.217 C 2295.784 1885.902, 2190.467 2007.816, 2071.122 2100 L 2058.823 2109.500 2086.062 2109.766 C 2107.964 2109.981, 2113.713 2109.761, 2115.401 2108.645 C 2118.762 2106.423, 2152.308 2077.482, 2166.500 2064.561 C 2186.893 2045.994, 2231.817 2000.431, 2250.860 1979 C 2288.631 1936.495, 2323.196 1891.781, 2353.676 1846 C 2376.010 1812.454, 2409.046 1756.550, 2407.391 1755.103 C 2406.373 1754.213, 2377.700 1744, 2376.221 1744 C 2375.686 1744, 2372.423 1749.047, 2368.968 1755.217 M 597 1776.659 C 579.675 1790.698, 565.500 1802.706, 565.500 1803.342 C 565.500 1803.979, 573.370 1814.246, 582.990 1826.157 C 596.622 1843.038, 600.812 1847.623, 601.990 1846.946 C 602.820 1846.468, 605.240 1844.582, 607.366 1842.753 L 611.231 1839.429 597.983 1823.093 L 584.736 1806.758 587.618 1804.459 C 615.183 1782.479, 638.500 1763.116, 638.500 1762.206 C 638.500 1760.586, 630.760 1750.986, 629.520 1751.067 C 628.959 1751.104, 614.325 1762.620, 597 1776.659 M 847.687 1762.805 C 846.209 1764.347, 845 1765.882, 845 1766.215 C 845 1766.548, 848.391 1769.855, 852.535 1773.564 L 860.070 1780.307 863.035 1777.467 C 864.666 1775.904, 865.966 1774.148, 865.925 1773.563 C 865.858 1772.622, 851.749 1760, 850.764 1760 C 850.550 1760, 849.165 1761.262, 847.687 1762.805 M 870.590 1782.471 C 869.165 1784.339, 868 1786.093, 868 1786.369 C 868 1787.031, 882.658 1799, 883.469 1799 C 884.438 1799, 888.940 1793.625, 888.913 1792.500 C 888.900 1791.950, 885.355 1788.705, 881.034 1785.288 L 873.179 1779.076 870.590 1782.471 M 893.518 1801.566 C 892.022 1803.527, 890.956 1805.251, 891.149 1805.397 C 891.342 1805.544, 895.199 1808.449, 899.721 1811.854 L 907.942 1818.045 910.617 1814.002 C 912.089 1811.779, 913.114 1809.817, 912.896 1809.642 C 910.391 1807.639, 896.922 1798, 896.628 1798 C 896.413 1798, 895.014 1799.605, 893.518 1801.566 M 917.627 1819.423 L 915.016 1822.845 922.758 1828.238 C 927.016 1831.205, 931.024 1833.942, 931.665 1834.322 C 932.768 1834.976, 937.042 1829.383, 936.967 1827.382 C 936.935 1826.517, 922.037 1816, 920.845 1816 C 920.511 1816, 919.063 1817.540, 917.627 1819.423 M 942.632 1835.980 L 940.070 1839.852 947.785 1844.756 C 952.028 1847.454, 956.038 1849.974, 956.696 1850.356 C 958.066 1851.153, 963.408 1843.968, 962.237 1842.904 C 961.832 1842.535, 957.831 1839.956, 953.347 1837.171 L 945.194 1832.108 942.632 1835.980 M 968.124 1851.515 C 966.956 1853.495, 966 1855.296, 966 1855.518 C 966 1856.083, 982.884 1866, 983.845 1866 C 984.968 1866, 988.139 1859.034, 987.493 1857.988 C 987.071 1857.306, 974.026 1849.619, 970.895 1848.208 C 970.539 1848.047, 969.292 1849.535, 968.124 1851.515 M 1745.816 1852.838 C 1741.589 1855.402, 1737.858 1857.782, 1737.523 1858.126 C 1736.766 1858.905, 1740.068 1866, 1741.187 1866 C 1742.494 1866, 1758.949 1856.571, 1758.976 1855.807 C 1759.016 1854.657, 1754.851 1847.993, 1754.151 1848.088 C 1753.793 1848.136, 1750.042 1850.274, 1745.816 1852.838 M 994.009 1866.983 L 991.977 1870.966 1000.238 1875.227 C 1004.782 1877.570, 1009.039 1879.632, 1009.697 1879.807 C 1010.356 1879.983, 1011.783 1878.386, 1012.869 1876.258 L 1014.842 1872.389 1006.056 1867.695 C 1001.224 1865.113, 996.994 1863, 996.656 1863 C 996.317 1863, 995.126 1864.792, 994.009 1866.983 M 1719.250 1867.618 C 1714.713 1870.122, 1711 1872.625, 1711 1873.181 C 1711 1874.787, 1714.336 1880, 1715.364 1880 C 1715.877 1880, 1720.053 1877.953, 1724.644 1875.450 L 1732.990 1870.901 1730.975 1866.950 C 1729.866 1864.778, 1728.631 1863.015, 1728.230 1863.033 C 1727.828 1863.051, 1723.787 1865.114, 1719.250 1867.618 M 726.357 1891.662 C 717.635 1901.933, 708.592 1912.848, 706.260 1915.918 C 695.501 1930.080, 696.820 1945.067, 709.964 1958 C 720.424 1968.292, 733.239 1972.917, 743.559 1970.124 C 751.363 1968.012, 756.486 1963.342, 774.674 1941.759 C 784.478 1930.124, 793.026 1919.882, 793.670 1918.998 C 794.654 1917.645, 793.894 1916.626, 788.862 1912.553 C 785.538 1909.862, 782.531 1908.111, 782.087 1908.607 C 781.648 1909.098, 775.073 1916.925, 767.476 1926 C 751.197 1945.447, 744.489 1952.633, 740.800 1954.577 C 733.493 1958.427, 723.079 1954.099, 716.568 1944.505 C 713.416 1939.861, 713.282 1935.341, 716.129 1929.710 C 718.205 1925.605, 721.062 1922.031, 743.224 1895.832 L 753.949 1883.153 748.081 1878.070 L 742.213 1872.987 726.357 1891.662 M 1020.632 1880.646 C 1019.675 1882.652, 1019.254 1884.649, 1019.696 1885.084 C 1020.138 1885.520, 1024.372 1887.653, 1029.105 1889.826 L 1037.711 1893.775 1039.787 1889.501 L 1041.864 1885.227 1033.011 1881.113 C 1028.141 1878.851, 1023.755 1877, 1023.264 1877 C 1022.772 1877, 1021.588 1878.641, 1020.632 1880.646 M 1692.782 1880.887 C 1688.536 1882.931, 1684.805 1884.862, 1684.489 1885.178 C 1683.712 1885.955, 1687.133 1893, 1688.288 1893 C 1689.702 1893, 1706 1885.209, 1706 1884.533 C 1706 1882.537, 1702.886 1877.014, 1701.801 1877.085 C 1701.085 1877.132, 1697.027 1878.843, 1692.782 1880.887 M 1047.931 1893.135 C 1046.792 1895.367, 1046.037 1897.370, 1046.252 1897.586 C 1046.468 1897.801, 1050.884 1899.753, 1056.066 1901.923 L 1065.488 1905.867 1067.134 1901.684 C 1069.043 1896.833, 1069.719 1897.516, 1058.090 1892.539 L 1050.002 1889.077 1047.931 1893.135 M 1666.022 1893.012 C 1661.359 1895.133, 1657.411 1897.267, 1657.248 1897.755 C 1657.086 1898.243, 1657.637 1900.281, 1658.474 1902.284 L 1659.996 1905.926 1668.248 1902.364 C 1672.787 1900.405, 1677.063 1898.574, 1677.750 1898.294 C 1678.438 1898.015, 1679 1897.399, 1679 1896.927 C 1679 1895.582, 1675.695 1888.991, 1675.065 1889.078 C 1674.754 1889.121, 1670.685 1890.891, 1666.022 1893.012 M 1075.490 1904.677 C 1074.645 1906.699, 1074.302 1908.686, 1074.727 1909.091 C 1075.152 1909.497, 1079.470 1911.420, 1084.322 1913.365 L 1093.143 1916.901 1094.624 1913.357 C 1095.438 1911.408, 1095.952 1909.357, 1095.766 1908.798 C 1095.456 1907.868, 1079.651 1901, 1077.820 1901 C 1077.384 1901, 1076.335 1902.655, 1075.490 1904.677 M 1638.270 1904.378 C 1633.744 1906.164, 1629.797 1907.869, 1629.500 1908.167 C 1629.202 1908.465, 1629.755 1910.533, 1630.729 1912.763 L 1632.500 1916.817 1640 1913.887 C 1653.270 1908.701, 1652.112 1909.696, 1650.287 1905.049 C 1649.412 1902.822, 1648.202 1901.029, 1647.598 1901.065 C 1646.994 1901.101, 1642.797 1902.592, 1638.270 1904.378 M 1103.523 1915.235 C 1102.639 1917.443, 1102.106 1919.440, 1102.339 1919.672 C 1102.571 1919.905, 1107.053 1921.629, 1112.298 1923.503 L 1121.835 1926.912 1122.918 1923.807 C 1124.945 1917.991, 1124.643 1917.648, 1114.565 1914.328 L 1105.129 1911.220 1103.523 1915.235 M 1610.500 1914.478 C 1605.550 1916.290, 1601.514 1918.161, 1601.531 1918.636 C 1601.548 1919.111, 1601.931 1921.010, 1602.383 1922.855 C 1603.134 1925.919, 1603.460 1926.158, 1606.153 1925.619 C 1607.775 1925.295, 1612.412 1923.855, 1616.457 1922.418 L 1623.813 1919.807 1622.312 1915.404 C 1621.487 1912.982, 1620.517 1911.041, 1620.156 1911.092 C 1619.795 1911.142, 1615.450 1912.666, 1610.500 1914.478 M 1132.650 1921.758 C 1132.392 1922.174, 1131.879 1924.127, 1131.509 1926.098 L 1130.837 1929.681 1140.209 1932.340 C 1145.364 1933.803, 1149.829 1935, 1150.132 1935 C 1150.760 1935, 1153.309 1926.957, 1152.819 1926.521 C 1152.271 1926.032, 1135.268 1921, 1134.164 1921 C 1133.589 1921, 1132.907 1921.341, 1132.650 1921.758 M 1581.500 1923.714 C 1577.100 1925.095, 1573.315 1926.396, 1573.090 1926.606 C 1572.259 1927.378, 1575.119 1935, 1576.239 1935 C 1577.455 1935, 1594.268 1930.021, 1594.819 1929.498 C 1594.995 1929.331, 1594.586 1927.351, 1593.911 1925.097 C 1592.476 1920.307, 1592.388 1920.297, 1581.500 1923.714 M 1160.307 1933.500 C 1159.741 1935.975, 1159.428 1938, 1159.611 1938 C 1159.794 1938, 1164.321 1939.111, 1169.671 1940.468 C 1175.020 1941.826, 1179.486 1942.838, 1179.594 1942.718 C 1180.103 1942.155, 1181.905 1934.571, 1181.602 1934.269 C 1181.194 1933.861, 1163.198 1929, 1162.096 1929 C 1161.679 1929, 1160.874 1931.025, 1160.307 1933.500 M 1553.679 1931.500 C 1548.828 1932.769, 1544.636 1934.031, 1544.364 1934.303 C 1543.781 1934.885, 1545.845 1943, 1546.575 1943 C 1548.244 1943, 1564.654 1938.584, 1565.369 1937.943 C 1566.443 1936.978, 1564.840 1929.743, 1563.481 1929.422 C 1562.941 1929.295, 1558.531 1930.230, 1553.679 1931.500 M 1189.602 1940.089 C 1189.229 1942.418, 1189.279 1944.632, 1189.712 1945.008 C 1190.552 1945.737, 1205.085 1949, 1207.490 1949 C 1208.730 1949, 1211.729 1941.344, 1210.816 1940.510 C 1210.642 1940.351, 1207.044 1939.513, 1202.819 1938.647 C 1198.595 1937.781, 1194.045 1936.799, 1192.709 1936.463 C 1190.488 1935.906, 1190.221 1936.217, 1189.602 1940.089 M 1524.220 1938.357 L 1514.940 1940.450 1515.545 1943.475 C 1516.914 1950.324, 1516.082 1949.989, 1526.282 1947.800 C 1531.352 1946.713, 1535.891 1945.449, 1536.369 1944.993 C 1537.443 1943.967, 1535.842 1936.729, 1534.481 1936.459 C 1533.941 1936.351, 1529.324 1937.205, 1524.220 1938.357 M 1219.425 1943.402 C 1219.207 1944.006, 1218.910 1946.064, 1218.765 1947.977 L 1218.500 1951.453 1228.435 1953.208 C 1233.899 1954.173, 1238.493 1954.840, 1238.644 1954.690 C 1238.794 1954.539, 1239.048 1952.433, 1239.208 1950.008 L 1239.500 1945.600 1229.660 1943.953 C 1222.719 1942.790, 1219.704 1942.628, 1219.425 1943.402 M 1496.226 1944.036 C 1491.125 1944.959, 1486.693 1945.973, 1486.377 1946.290 C 1486.060 1946.606, 1486.119 1948.742, 1486.506 1951.037 C 1487.157 1954.888, 1487.414 1955.168, 1489.855 1954.695 C 1491.310 1954.413, 1495.991 1953.603, 1500.258 1952.895 L 1508.017 1951.607 1507.380 1948.054 C 1506.331 1942.196, 1506.350 1942.203, 1496.226 1944.036 M 1248.489 1951.068 C 1248.105 1953.336, 1248.176 1955.535, 1248.646 1955.955 C 1249.379 1956.611, 1264.316 1959.005, 1267.649 1959.001 C 1268.291 1959.001, 1268.957 1957.014, 1269.157 1954.500 C 1269.353 1952.025, 1269.286 1949.997, 1269.007 1949.992 C 1268.434 1949.984, 1257.142 1948.277, 1252.343 1947.473 C 1249.304 1946.964, 1249.159 1947.099, 1248.489 1951.068 M 1470 1948.093 C 1466.975 1948.565, 1462.698 1949.199, 1460.495 1949.500 L 1456.489 1950.049 1456.845 1954.525 C 1457.254 1959.664, 1456.602 1959.489, 1469.137 1957.820 C 1478.721 1956.544, 1478.669 1956.593, 1477.375 1950.125 C 1477.031 1948.406, 1476.469 1947.053, 1476.125 1947.117 C 1475.781 1947.181, 1473.025 1947.620, 1470 1948.093 M 1277.851 1955.406 C 1277.437 1960.613, 1277.020 1960.400, 1289.871 1961.561 C 1298.090 1962.304, 1298.958 1961.806, 1298.985 1956.338 C 1299.002 1952.819, 1298.913 1952.789, 1284.856 1951.481 L 1278.212 1950.864 1277.851 1955.406 M 1442 1951.556 C 1441.175 1951.734, 1437.463 1952.168, 1433.750 1952.519 L 1427 1953.159 1427 1957.699 L 1427 1962.238 1436.750 1961.514 C 1442.112 1961.116, 1446.838 1960.586, 1447.250 1960.336 C 1447.662 1960.086, 1448 1957.884, 1448 1955.441 C 1448 1950.820, 1447.352 1950.400, 1442 1951.556 M 1307.696 1958.231 C 1307.384 1960.558, 1307.214 1962.548, 1307.319 1962.653 C 1307.424 1962.757, 1311.941 1963.169, 1317.357 1963.566 C 1328.262 1964.367, 1328.957 1964.058, 1328.985 1958.389 C 1328.999 1955.381, 1328.827 1955.258, 1323.750 1954.648 C 1320.862 1954.301, 1316.197 1954.013, 1313.382 1954.009 L 1308.263 1954 1307.696 1958.231 M 1401.695 1954.737 L 1396.891 1955.114 1397.195 1959.307 C 1397.474 1963.141, 1397.757 1963.529, 1400.500 1963.842 C 1402.150 1964.031, 1406.763 1963.880, 1410.750 1963.507 L 1418 1962.829 1418 1958.415 L 1418 1954 1412.250 1954.180 C 1409.088 1954.279, 1404.338 1954.530, 1401.695 1954.737 M 1337.614 1959.010 C 1337.253 1961.271, 1337.218 1963.544, 1337.537 1964.061 C 1337.857 1964.577, 1342.822 1965, 1348.571 1965 L 1359.024 1965 1358.373 1960.750 C 1358.015 1958.412, 1357.672 1956.447, 1357.611 1956.381 C 1357.550 1956.316, 1353.174 1955.956, 1347.886 1955.581 L 1338.272 1954.899 1337.614 1959.010 M 1373.750 1955.742 L 1367 1956.091 1367 1960.546 L 1367 1965 1377.500 1965 L 1388 1965 1388 1960 L 1388 1955 1384.250 1955.196 C 1382.188 1955.304, 1377.463 1955.549, 1373.750 1955.742 M 884 1981.249 C 884 1982.535, 884.900 1992.323, 886 2003 C 887.100 2013.677, 888 2023.668, 888 2025.202 C 888 2027.840, 886.752 2028.616, 865 2039.500 C 852.350 2045.830, 842 2051.191, 842 2051.414 C 842 2051.637, 845.380 2053.674, 849.511 2055.941 L 857.021 2060.063 873.511 2051.450 C 885.067 2045.413, 890.122 2043.234, 890.409 2044.168 C 890.633 2044.901, 891.322 2053.141, 891.940 2062.481 C 892.557 2071.820, 893.385 2079.746, 893.781 2080.093 C 895.494 2081.596, 908.906 2088.421, 909.287 2087.983 C 909.518 2087.717, 908.675 2077.600, 907.414 2065.500 C 906.153 2053.400, 905.102 2041.925, 905.078 2040 L 905.034 2036.500 926.460 2025.500 C 938.244 2019.450, 947.574 2014.204, 947.193 2013.841 C 946.812 2013.479, 943.465 2011.527, 939.756 2009.503 L 933.011 2005.823 917.639 2013.864 L 902.267 2021.905 901.618 2012.202 C 901.260 2006.866, 900.701 1999.117, 900.375 1994.982 L 899.782 1987.464 891.891 1983.188 C 884.173 1979.005, 884 1978.962, 884 1981.249 M 1047.119 2060.320 C 1046.574 2062.069, 1042.950 2073.453, 1039.064 2085.617 C 1035.179 2097.782, 1032 2108.244, 1032 2108.867 C 1032 2109.616, 1034.691 2110, 1039.933 2110 C 1047.295 2110, 1047.913 2109.838, 1048.531 2107.750 C 1049.536 2104.354, 1062.206 2064.683, 1062.739 2063.264 C 1063.230 2061.956, 1061.491 2061.114, 1053.223 2058.659 L 1048.109 2057.140 1047.119 2060.320 M 1093.530 2091.275 C 1090.488 2100.777, 1088 2108.877, 1088 2109.275 C 1088 2109.674, 1091.583 2110, 1095.961 2110 L 1103.922 2110 1108.332 2096.250 C 1110.758 2088.688, 1113.041 2081.534, 1113.406 2080.353 C 1113.996 2078.443, 1113.385 2077.976, 1107.840 2076.103 C 1104.415 2074.947, 1101.037 2074, 1100.336 2074 C 1099.563 2074, 1096.876 2080.822, 1093.530 2091.275 M 1227 2106.500 L 1227 2110 1253 2110 C 1267.300 2110, 1279 2109.807, 1279 2109.571 C 1279 2108.399, 1238.741 2103, 1230.003 2103 C 1227.238 2103, 1227 2103.277, 1227 2106.500 M 1464.578 2106.907 C 1461.870 2107.233, 1459.470 2108.063, 1459.244 2108.750 C 1458.937 2109.684, 1460.976 2110, 1467.310 2110 C 1475.465 2110, 1477 2109.433, 1477 2106.418 C 1477 2105.894, 1471.039 2106.129, 1464.578 2106.907" stroke="none" fill="#a78241" fill-rule="evenodd"/></svg>