<?xml version="1.0" standalone="no"?>
<!DOCTYPE svg PUBLIC "-//W3C//DTD SVG 20010904//EN"
 "http://www.w3.org/TR/2001/REC-SVG-20010904/DTD/svg10.dtd">
<svg version="1.0" xmlns="http://www.w3.org/2000/svg"
 width="492.000000pt" height="492.000000pt" viewBox="0 0 492.000000 492.000000"
 preserveAspectRatio="xMidYMid meet">

<g transform="translate(0.000000,492.000000) scale(0.100000,-0.100000)"
fill="#000000" stroke="none">
<path d="M0 2460 l0 -2460 2460 0 2460 0 0 2460 0 2460 -2460 0 -2460 0 0
-2460z m1540 926 c182 -42 325 -121 460 -256 113 -112 177 -215 226 -357 45
-132 58 -224 51 -363 -12 -243 -102 -446 -276 -621 -124 -125 -265 -204 -443
-251 -78 -20 -112 -21 -550 -25 l-468 -5 0 952 0 952 463 -5 c390 -4 474 -7
537 -21z m2690 16 c0 -20 -83 -135 -145 -201 -241 -255 -581 -361 -924 -287
-169 37 -351 137 -477 263 -68 68 -164 197 -164 220 0 11 146 13 855 13 470 0
855 -4 855 -8z m-618 -771 c232 -61 434 -197 578 -391 58 -77 135 -239 162
-340 18 -70 22 -112 23 -235 l0 -150 -293 -3 -294 -2 6 27 c15 79 16 103 7
163 -39 240 -259 406 -491 369 -179 -28 -323 -168 -361 -347 -11 -54 -8 -158
7 -195 6 -16 -11 -17 -287 -15 l-294 3 -9 50 c-12 63 6 255 33 345 112 387
412 661 804 736 101 19 309 12 409 -15z"/>
<path d="M1090 2460 l0 -392 168 3 c166 4 168 4 234 37 83 41 158 119 189 200
33 81 33 223 0 304 -31 81 -106 159 -189 200 -66 33 -68 33 -234 37 l-168 3 0
-392z"/>
</g>
</svg>
