<svg id="Layer_1" data-name="Layer 1" xmlns="http://www.w3.org/2000/svg" width="800" height="800" viewBox="0 0 800 800"><defs><style>.cls-1{fill:#00ffa8;}.cls-2{fill:none;}</style></defs><title>dungo_logo-freelogovectors.net_</title><path class="cls-1" d="M105.88,24.5H695.15a85.53,85.53,0,0,1,80.35,81.39V695.18c-1.32,19.65-9.28,38.88-22.84,53.23a85.65,85.65,0,0,1-58.55,27.09h-588A85.27,85.27,0,0,1,24.5,692.24V106A85.41,85.41,0,0,1,105.88,24.5M255.6,199.18c-4.42,3.9-5.4,10-6.29,15.54q-26.07,170.54-52.2,341c-.1,1.61-.86,3.32-.11,4.9,1.78.83,3.2-1,3.87-2.4,36.67-72.6,72.95-145.38,109.86-217.85,2.3-4.4,4.06-10,9.16-11.88,4.57-1.77,9,1.18,12.28,4.18q34.92,29,69.94,57.83c2.36,1.65,5.19,4.55,8.28,2.95,2.29-1.86,3.05-4.9,4.46-7.38q43.36-86,86.89-172c-25.14-12.73-53.33-19-81.47-19.21-49.31-.33-98.63-.1-147.95-.07-5.71.33-12.19.27-16.72,4.32m320.12,77.56a6.66,6.66,0,0,0-2.16,2Q502.42,375.22,431.3,471.7c-2.36,2.79-6.73,1.94-9-.55-25.76-22.45-52.18-44.15-77.84-66.71-4.57-3.89-11.55-1.33-14.4,3.41C286.78,466.7,243.25,525.39,200.5,584.67c-1.54,2.47-4.2,4.76-3.88,8,.76,3.75,4.26,6.17,7.62,7.46,5.15,1.74,10.67,1.4,16,1.43H370.19c33-.18,65.5-9.1,95-23.46a245.39,245.39,0,0,0,83.48-66.66c23.49-28.55,40.81-62.37,48.78-98.55,6-27.54,8.36-56.38,2.56-84.16-3.66-17-8.45-33.93-16.53-49.38a5.75,5.75,0,0,0-7.8-2.55Z"/><path d="M255.6,199.18c4.53-4.05,11-4,16.72-4.32,49.32,0,98.64-.26,148,.07,28.14.19,56.33,6.48,81.47,19.21q-43.44,86-86.89,172c-1.41,2.48-2.17,5.52-4.46,7.38-3.09,1.6-5.92-1.3-8.28-2.95q-35-28.85-69.94-57.83c-3.25-3-7.71-5.95-12.28-4.18-5.1,1.9-6.86,7.48-9.16,11.88-36.91,72.47-73.19,145.25-109.86,217.85-.67,1.39-2.09,3.23-3.87,2.4-.75-1.58,0-3.29.11-4.9q26.07-170.52,52.2-341c.89-5.51,1.87-11.64,6.29-15.54m320.12,77.56a5.75,5.75,0,0,1,7.8,2.55c8.08,15.45,12.87,32.4,16.53,49.38,5.8,27.78,3.45,56.62-2.56,84.16-8,36.18-25.29,70-48.78,98.55A245.39,245.39,0,0,1,465.23,578c-29.54,14.36-62.06,23.28-95,23.46H220.27c-5.36,0-10.88.31-16-1.43-3.36-1.29-6.86-3.71-7.62-7.46-.32-3.19,2.34-5.48,3.88-8,42.75-59.28,86.28-118,129.59-176.82,2.85-4.74,9.83-7.3,14.4-3.41,25.66,22.56,52.08,44.26,77.84,66.71,2.24,2.49,6.61,3.34,9,.55q71.13-96.48,142.26-192.93a6.66,6.66,0,0,1,2.16-2Z"/><rect class="cls-2" width="800" height="800"/></svg>