<svg xmlns="http://www.w3.org/2000/svg" width="714" height="300" viewBox="0 0 714 300" version="1.1"><path d="" stroke="none" fill="#080404" fill-rule="evenodd"/><path d="M 693 1.039 C 679.164 2.913, 670.375 4.080, 662.750 5.057 C 658.212 5.639, 651.350 6.526, 647.500 7.028 C 643.650 7.531, 636.450 8.397, 631.500 8.954 C 616.921 10.595, 617.664 10.153, 618.482 16.703 C 618.868 19.789, 619.437 22.974, 619.746 23.781 C 620.333 25.310, 622.692 25.223, 639 23.071 C 642.575 22.600, 649.767 21.709, 654.982 21.091 C 660.197 20.474, 669.872 19.282, 676.482 18.444 C 683.092 17.606, 690.750 16.684, 693.500 16.396 C 702.884 15.412, 703.001 15.349, 702.994 11.231 C 702.987 6.113, 701.162 -0.031, 699.703 0.147 C 699.041 0.228, 696.025 0.629, 693 1.039 M 194.500 40.412 C 192.850 41.145, 190.541 42.815, 189.370 44.123 C 187.360 46.365, 179 59.690, 179 60.650 C 179 60.895, 177.425 63.558, 175.500 66.567 C 173.575 69.577, 172 72.241, 172 72.488 C 172 72.736, 168.625 78.606, 164.500 85.533 C 160.375 92.460, 157 98.355, 157 98.633 C 157 98.912, 155.650 101.102, 154 103.500 C 152.350 105.898, 151 108.058, 151 108.301 C 151 108.543, 148.007 113.862, 144.348 120.120 C 140.689 126.379, 135.495 135.282, 132.804 139.904 C 130.114 144.527, 128.050 149.027, 128.217 149.904 C 128.454 151.147, 130.060 151.566, 135.489 151.801 C 144.815 152.204, 146.249 151.710, 148.620 147.282 C 150.732 143.335, 154.110 137.301, 158.013 130.500 C 159.275 128.300, 161.222 124.813, 162.339 122.750 L 164.371 119 201.445 119 L 238.519 119 239.927 121.250 C 240.702 122.487, 242.686 125.975, 244.336 129 C 245.986 132.025, 248.283 136.075, 249.441 138 C 250.598 139.925, 252.194 142.776, 252.988 144.336 C 256.378 151.001, 258.201 152, 266.984 152 C 276.147 152, 277.493 150.940, 274.240 146.285 C 273.169 144.753, 266.987 134.275, 260.502 123 C 254.017 111.725, 246.822 99.350, 244.512 95.500 C 242.203 91.650, 239.179 86.475, 237.793 84 C 230.026 70.137, 217.490 49.050, 215.300 46.165 C 210.183 39.423, 201.887 37.128, 194.500 40.412 M 438.001 41.123 C 434.407 42.556, 431.041 45.985, 429.413 49.872 C 427.319 54.870, 427.317 149.188, 429.410 150.925 C 430.272 151.641, 433.478 151.980, 437.660 151.798 L 444.500 151.500 444.760 106.750 C 444.903 82.138, 445.353 62.047, 445.760 62.104 C 446.167 62.161, 449.632 65.649, 453.460 69.854 C 473.315 91.668, 497.767 116.294, 500.853 117.583 C 508.175 120.642, 514.808 118.186, 522.969 109.393 C 525.977 106.152, 535.652 95.906, 544.469 86.625 C 553.286 77.344, 562.188 67.970, 564.250 65.794 L 568 61.837 568 105.796 C 568 142.404, 568.236 149.951, 569.410 150.925 C 570.272 151.641, 573.478 151.980, 577.660 151.798 L 584.500 151.500 584.787 103 C 584.944 76.325, 584.814 53.051, 584.497 51.279 C 583.201 44.039, 575.250 38.980, 567.463 40.441 C 563.610 41.164, 559.025 45.288, 544 61.546 C 540.425 65.414, 532.299 74.186, 525.943 81.039 C 519.587 87.893, 512.725 95.300, 510.695 97.500 L 507.002 101.500 500.361 94.500 C 489.613 83.171, 470.970 63.188, 462.112 53.500 C 450.922 41.263, 445.120 38.285, 438.001 41.123 M 1.667 42.667 C 0.425 43.909, 0.893 142.671, 2.154 145.439 C 2.789 146.832, 4.476 148.766, 5.904 149.736 C 8.288 151.356, 12.753 151.524, 60.500 151.790 C 89.100 151.950, 113.532 151.824, 114.793 151.510 C 116.956 150.973, 117.070 150.529, 116.793 143.720 L 116.500 136.500 67.750 136.240 L 19 135.981 19 89.597 C 19 48.224, 18.829 43.148, 17.418 42.607 C 15.276 41.785, 2.500 41.833, 1.667 42.667 M 285.250 42.643 C 284.272 43.053, 284 54.892, 284 97.064 L 284 150.962 286.281 151.534 C 287.535 151.849, 291.473 151.970, 295.031 151.803 L 301.500 151.500 302 129.569 L 302.500 107.637 307 105.009 C 309.475 103.564, 313.348 101.349, 315.606 100.087 L 319.712 97.793 324.189 101.147 C 326.651 102.991, 335.778 109.675, 344.471 116 C 359.696 127.077, 370.932 135.284, 381.500 143.045 C 394.053 152.264, 393.339 152, 405.732 152 C 414.919 152, 417 151.732, 417 150.547 C 417 149.748, 398.790 135.461, 376.533 118.797 C 354.276 102.134, 336.051 88.269, 336.033 87.986 C 336.015 87.703, 337.688 86.696, 339.750 85.748 C 341.813 84.800, 345.300 82.967, 347.500 81.674 C 351.103 79.558, 354.002 77.942, 367.500 70.526 C 393.241 56.383, 412.688 45.502, 413.492 44.792 C 415.644 42.893, 411.035 42.030, 398.655 42.015 C 386.237 42.001, 385.630 42.100, 380.405 45 C 372.681 49.287, 365.797 53.025, 355.500 58.523 C 350.550 61.166, 344.700 64.312, 342.500 65.514 C 340.300 66.717, 335.350 69.402, 331.500 71.482 C 323.535 75.785, 316.440 79.656, 308.554 84 C 305.559 85.650, 302.867 87, 302.573 87 C 302.279 87, 301.917 76.988, 301.769 64.750 L 301.500 42.500 294 42.309 C 289.875 42.204, 285.938 42.354, 285.250 42.643 M 606.893 43.497 C 605.460 44.276, 603.435 46.171, 602.393 47.707 C 600.603 50.348, 600.500 53.025, 600.500 97.044 C 600.500 140.442, 600.624 143.777, 602.328 146.378 C 605.990 151.967, 606.343 152, 662.468 152 L 714 152 714 144 L 714 136 665.474 136 L 616.948 136 617.224 120.750 L 617.500 105.500 652.500 105.268 C 671.750 105.141, 688.288 105.029, 689.250 105.018 C 690.767 105.002, 691 103.950, 691 97.107 C 691 90.708, 690.689 89.095, 689.357 88.583 C 688.453 88.237, 671.916 87.986, 652.607 88.027 L 617.500 88.102 617.224 73.051 L 616.948 58 665.474 58 L 714 58 714 50 L 714 42 661.750 42.040 C 618.618 42.073, 609.045 42.327, 606.893 43.497 M 195.911 64.760 C 192.836 70.117, 187.324 79.621, 183.661 85.880 C 179.997 92.138, 177 97.503, 177 97.801 C 177 98.099, 176.255 99.165, 175.345 100.171 C 173.745 101.939, 174.618 102, 201.387 102 L 229.084 102 226.339 97.250 C 224.829 94.638, 221.660 89.200, 219.297 85.167 C 216.934 81.134, 215 77.616, 215 77.348 C 215 77.080, 213.650 74.898, 212 72.500 C 210.350 70.102, 209 67.915, 209 67.641 C 209 67.160, 201.902 54.990, 201.633 55.010 C 201.560 55.016, 198.985 59.403, 195.911 64.760 M 204.185 186.376 C 201.812 186.997, 198.058 189.027, 195.843 190.887 C 192.055 194.067, 183 206.845, 183 209.010 C 183 209.555, 182.550 210, 182 210 C 181.450 210, 181 210.434, 181 210.965 C 181 211.496, 178.460 216.108, 175.356 221.215 C 172.252 226.322, 168.938 231.850, 167.992 233.500 C 165.084 238.573, 159.831 247.239, 156.333 252.735 C 154.500 255.614, 153 258.160, 153 258.394 C 153 258.628, 148.050 267, 142 277 C 135.950 287, 131 296.057, 131 297.127 C 131 298.939, 131.658 299.053, 140.618 298.786 L 150.237 298.500 163.469 276.500 L 176.701 254.500 208.601 254.236 L 240.502 253.973 241.923 256.236 C 243.291 258.414, 254.435 277.314, 257.999 283.500 C 262.119 290.651, 266.569 297.555, 267.497 298.235 C 269.042 299.366, 285.796 299.140, 286.514 297.978 C 287.315 296.681, 286.306 294.884, 264.117 258.091 C 256.353 245.216, 250 234.497, 250 234.271 C 250 234.045, 248.717 231.979, 247.148 229.680 C 245.580 227.381, 244.117 225.007, 243.898 224.405 C 242.513 220.597, 226.828 196.106, 223.669 192.818 C 217.786 186.695, 211.237 184.530, 204.185 186.376 M 299.607 187.582 C 299.273 188.452, 299 210.447, 299 236.460 C 299 276.083, 299.241 284.303, 300.483 287.128 C 302.495 291.701, 305.023 294.485, 309.391 296.939 C 312.950 298.938, 314.456 299, 359.447 299 C 390.346 299, 405.948 298.657, 406.176 297.971 C 406.365 297.405, 406.290 294.368, 406.010 291.221 L 405.500 285.500 362.500 285.247 C 323.492 285.017, 319.384 284.837, 318.250 283.306 C 317.291 282.011, 317 270.489, 317 233.809 L 317 186 308.607 186 C 301.876 186, 300.094 186.313, 299.607 187.582 M 594.500 186.850 C 590.202 188.247, 586.095 191.486, 584.085 195.063 C 582.014 198.747, 581.985 199.589, 582.241 249.153 L 582.500 299.500 589.912 299.797 C 595.166 300.008, 597.563 299.716, 598.147 298.797 C 598.599 298.084, 598.976 275.788, 598.985 249.250 C 598.998 208.657, 599.221 201, 600.395 201 C 601.697 201, 617.052 218.257, 643.994 250 C 650.296 257.425, 660.449 269.350, 666.555 276.500 C 672.661 283.650, 678.522 290.548, 679.579 291.828 C 680.635 293.109, 683.473 295.324, 685.883 296.751 C 694.710 301.977, 705.852 298.946, 710.912 289.943 L 713.172 285.922 713.047 236.722 C 712.978 209.661, 712.558 187.158, 712.114 186.714 C 711.670 186.270, 707.975 186.040, 703.903 186.203 L 696.500 186.500 696.240 235.250 C 696.024 275.871, 695.751 284, 694.603 284 C 693.275 284, 679.674 269.477, 673.500 261.467 C 661.422 245.796, 619.998 197.941, 613.177 191.778 C 607.724 186.852, 600.420 184.925, 594.500 186.850 M 16.500 189.879 C 10.254 192.875, 5.829 196.960, 2.157 203.118 C 0.419 206.033, -0 208.323, -0 214.900 C -0 219.633, 0.581 224.417, 1.383 226.282 C 3.588 231.411, 9.796 237.854, 15.362 240.790 L 20.500 243.500 57.500 244 C 97.238 244.537, 96.686 244.461, 101.392 250.054 C 103.871 253, 104 253.721, 104 264.626 C 104 277.933, 102.993 280.784, 97.294 283.615 C 93.789 285.356, 89.955 285.538, 47 286 L 0.500 286.500 0.500 292.500 L 0.500 298.500 50.794 298.759 L 101.088 299.019 106.649 296.296 C 113.190 293.093, 119.336 286.373, 121.488 280.072 C 122.480 277.166, 123 271.837, 122.999 264.572 C 122.998 254.451, 122.751 252.978, 120.120 247.416 C 116.767 240.328, 110.884 235.018, 103.715 232.608 C 99.707 231.261, 93.540 230.996, 65.715 230.976 C 47.447 230.963, 30.740 230.544, 28.588 230.045 C 26.436 229.546, 23.301 227.763, 21.622 226.083 C 18.925 223.386, 18.522 222.226, 18.179 216.168 C 17.810 209.632, 17.943 209.135, 20.978 205.678 C 22.799 203.604, 25.736 201.612, 27.832 201.030 C 30.045 200.415, 47.670 200.009, 72.250 200.006 L 113 200 113 193.500 L 113 187 67.750 187.001 L 22.500 187.002 16.500 189.879 M 431.254 189.028 C 428.919 190.065, 424.962 193.020, 422.461 195.594 C 414.311 203.979, 414.500 202.856, 414.500 243 C 414.500 278.090, 414.526 278.550, 416.791 282.791 C 419.783 288.395, 425.907 294.266, 431.503 296.896 C 435.867 298.948, 437.233 299, 486.522 299 L 537.066 299 541.783 296.590 C 548.218 293.302, 552.818 288.550, 555.907 282 L 558.500 276.500 558.790 244.754 C 559.105 210.195, 558.671 206.461, 553.455 198.936 C 550.853 195.181, 544.636 190.330, 539.703 188.205 C 537.636 187.314, 523.673 187.018, 486.203 187.071 C 438.772 187.137, 435.226 187.263, 431.254 189.028 M 442.500 201.103 C 438.317 202.389, 435.215 205.240, 433.480 209.395 C 432.285 212.254, 432 218.723, 432 243 C 432 275.180, 432.284 277.318, 437.121 281.611 C 441.787 285.753, 444.567 286, 486.500 286 C 528.440 286, 531.257 285.749, 535.837 281.611 C 540.685 277.233, 541 274.874, 541 243 C 541 211.039, 540.706 208.872, 535.747 204.226 C 534.412 202.975, 531.789 201.513, 529.917 200.976 C 525.580 199.732, 446.585 199.847, 442.500 201.103 M 206.770 205.250 C 205.883 205.938, 204.275 208.075, 203.196 210 C 202.118 211.925, 197.582 219.491, 193.118 226.813 C 188.653 234.135, 185 240.323, 185 240.563 C 185 240.803, 195.870 241, 209.155 241 C 232.493 241, 233.254 240.938, 231.655 239.171 C 230.745 238.165, 230 237.075, 230 236.749 C 230 236.422, 227.161 231.507, 223.691 225.827 C 220.222 220.147, 217.118 214.825, 216.795 214 C 215.859 211.610, 210.067 204, 209.185 204 C 208.743 204, 207.657 204.563, 206.770 205.250" stroke="none" fill="#040404" fill-rule="evenodd"/></svg>