<svg width="906" height="245" viewBox="0 0 906 245" fill="none" xmlns="http://www.w3.org/2000/svg">
<g clip-path="url(#clip0_44_3)">
<path d="M840.5 93.5999C856.5 88.1999 874.3 84.6999 890.9 89.9999C900.4 93.1999 905.5 103.3 905.4 112.9C905.6 132.6 905.8 152.3 905.1 172C899.4 172 893.7 172 888.1 171.9C887.4 168.8 886.8 165.7 886.1 162.6C875.5 171 861.4 177 847.8 172C832.4 165.9 830.5 142.8 842.1 132.1C853.8 121.3 870.6 121.2 885.3 117.9C884.4 112.9 883.6 106.5 877.7 105.1C865.9 101.6 854 106.9 842.7 110.1C841.8 104.7 841.1 99.1999 840.5 93.5999ZM859.3 139.3C853.8 143.7 853.5 154.4 860.7 157.2C869.4 160.5 877.8 154.6 884.6 149.9C884.6 143.5 884.6 137.1 884.5 130.7C875.9 132.2 866.2 133.2 859.3 139.3Z" fill="white"/>
<path d="M396.9 54.1998C406.4 53.5998 416 53.5998 425.6 53.7998C436.9 82.4998 444.2 112.8 456.4 141.2C466.5 112.2 475.8 82.9998 485.7 53.9998C495.2 53.6998 504.7 53.6998 514.2 53.9998C517 93.3998 521 132.8 522.7 172.2C515.3 172.2 508 172.2 500.7 172.2C498.1 144.1 496.9 115.8 494.1 87.6998C482.8 115.3 474.8 144.3 464.5 172.3C457.6 172.6 450.7 172.5 443.8 172.2C433.9 144.2 425.9 115.4 414.1 88.0998C411.7 116.1 410.6 144.3 408 172.3C401.4 172.3 394.8 172.3 388.2 172.2C390.1 132.7 394.2 93.4998 396.9 54.1998Z" fill="white"/>
<path d="M723.6 63.0997C730.2 61.6997 737 60.7997 743.7 60.1997C743.9 69.6997 743.9 79.1997 743.9 88.7997C749.4 88.8997 755 89.1997 760.6 89.2997C761.7 94.6997 762.6 100.2 763.4 105.7C756.9 106 750.5 106.3 744.1 106.4C744.2 120.8 743.1 135.3 744.6 149.7C746.7 156.7 755.8 154.7 761.3 156C762.4 161.5 763.2 167.1 763.8 172.7C753.3 173.8 741.5 175.2 732.1 169.2C725.9 165.1 724 157.4 723.7 150.5C722.9 135.9 723.9 121.3 723.3 106.7C719.5 106.3 715.6 105.9 711.8 105.5C711.9 100.2 712.1 94.9997 712.3 89.6997C716 89.3997 719.7 88.9997 723.5 88.6997C723.3 80.0997 723.4 71.5997 723.6 63.0997Z" fill="white"/>
<path d="M535.2 90.9999C542.3 89.5999 549.5 88.7999 556.7 88.3999C563.2 107.4 568.9 126.7 575.6 145.6C582.4 127.2 587.7 108.2 593.7 89.4999C600.6 89.0999 607.4 88.8999 614.3 88.9999C606.6 114.2 596.6 138.6 588.1 163.6C583.6 175.1 580.8 188.1 571.4 196.8C563.7 203.8 552.6 204.1 542.9 202.4C542 196.9 541.1 191.4 540.2 186C545 185.9 549.8 186.2 554.5 185.4C560.9 183.2 566.5 175.5 563.6 168.7C554.3 142.7 544.1 117.1 535.2 90.9999Z" fill="white"/>
<path d="M627.7 89.1C633.5 89.1 639.3 89.2 645 89.3C645.8 92.9 646.5 96.5 647.3 100.1C656.2 92.8 666.8 85.7 679 87.7C689.6 88.1 698 97.7 698.2 108C698.7 129.3 698.4 150.7 698.3 172C691.7 172.1 685.1 172.2 678.6 172.3C676.7 152.9 679 133.4 677.6 114.1C676.7 106.1 666.8 104.1 660.6 107.3C655.3 109.9 648.2 113.6 648.6 120.5C648.2 137.7 648.8 154.9 648.5 172.1C641.5 172.2 634.6 172.2 627.6 172C627.7 144.3 627.6 116.7 627.7 89.1Z" fill="white"/>
<path d="M779.3 89.0998C785.2 89.0998 791.1 89.0998 797 89.1998C797.7 93.9998 798.5 98.7998 799.3 103.7C806.6 96.0998 814.6 88.1998 825.8 87.2998C827.6 93.8998 828.6 100.7 828.8 107.5C817.8 110 805.3 114.6 800.4 125.5C799.4 141 800.6 156.6 800 172.1C793.1 172.2 786.2 172.2 779.3 172C779.3 144.3 779.3 116.7 779.3 89.0998Z" fill="white"/>
<path d="M74.6 21.7998C81.6 13.3998 89.2 4.39981 100 0.999813C112.1 -2.20019 122.4 7.29981 130 15.3998C149.9 38.1998 164.4 65.0998 177.9 92.0998C185.2 75.6998 194.3 60.0998 203.7 44.8998C212.7 31.0998 222 17.0998 235 6.59981C241 1.99981 249.3 -2.40019 256.8 1.49981C267.4 7.09981 275.4 16.3998 282.9 25.4998C298.8 45.9998 311.3 68.8998 322.6 92.1998C336.7 122.2 348.9 153.5 354 186.4C355.5 201.6 356.9 218.7 347.7 232C340.6 242.4 327.1 246 315.1 243.9C304.7 240.2 295.6 233.4 288.8 224.8C272.6 204.8 263 180.6 254.1 156.7C252.8 152.5 251.2 148.4 249.8 144.3C248.9 148.5 247.7 152.7 246.3 156.8C237.2 181 227.5 205.7 210.8 225.8C204.1 234 195.3 240.3 185.3 243.9C170.9 246.9 157 239.4 147.7 228.8C129.5 209 119.4 183.4 110.1 158.5C108.3 153.4 106.5 148.3 105.2 143C103.7 148.3 101.9 153.6 100 158.7C91.6 181.6 82 204.7 66.8 224C58.5 233.9 47.7 243.6 34.2 244.3C21.7 245.4 9.59999 237.3 4.79999 225.9C-2.00001 210.1 -9.05991e-06 192.3 2.99999 175.8C9.49999 144.3 21.5 114.2 35.7 85.4998C46.6 63.1998 59 41.3998 74.6 21.7998ZM81.7 28.7998C66.3 48.3998 54 70.3998 43 92.6998C29.3 121.6 16.9 151.7 11.6 183.4C9.69999 192.2 9.69999 201.3 10.6 210.2C11.7 218.6 15 227.6 22.7 231.9C30.1 236.2 39.6 234.5 46.3 229.7C58.3 221.3 66.3 208.5 73.2 195.8C88 167.5 97.7 136.8 105 105.9C112.8 137.6 122.6 169.2 138.2 198.1C144.4 208.8 150.9 219.9 161 227.3C166.1 231.9 172.8 235.1 179.8 234.3C187.6 233.5 194.1 228.5 199.6 223.2C208.9 213.6 215.7 201.8 221.7 190C234.5 163.8 243.3 135.8 250.2 107.6C258.8 141.8 269.5 176.1 287.9 206.5C294.8 217.1 302.9 228.1 315 233.1C323.5 236.6 334.3 233.5 339.2 225.6C345.1 216.1 345.6 204.3 344.7 193.5C343.5 176 338.4 159 332.8 142.4C321.6 110.4 306.9 79.5998 289 50.8998C280.7 38.0998 272.1 25.1998 260.5 14.9998C256.4 11.3998 250.3 7.89981 245.1 11.4998C235.1 17.5998 228.2 27.2998 221.2 36.4998C204.2 60.6998 190.2 87.0998 178.7 114.3C178.4 114.7 177.6 115.5 177.3 115.9C176.3 112.8 175.3 109.8 174 106.8C162.2 81.2998 149.1 56.1998 132.4 33.5998C126.7 26.0998 120.8 18.4998 113.1 12.9998C109.8 10.6998 105.4 8.59981 101.5 10.5998C93.2 14.3998 87.4 21.8998 81.7 28.7998Z" fill="#FEFEFE"/>
<path d="M81.7002 28.8C87.4002 21.9 93.3002 14.5 101.6 10.7C105.5 8.70002 109.9 10.7 113.2 13.1C120.9 18.6 126.8 26.3 132.5 33.7C149.1 56.4 162.3 81.4 174.1 106.9C175.5 109.8 176.5 112.9 177.4 116C162 89.9 148 62.8 128.8 39.2C123.2 32.6 117.3 25.6 109.2 22.1C104.6 20.1 99.9002 22.7 96.1002 25.2C82.3002 36.8 72.1002 51.9 62.5002 66.9C39.9002 102.9 22.9002 142.4 11.7002 183.4C17.0002 151.7 29.3002 121.6 43.1002 92.7C54.0002 70.4 66.3002 48.4 81.7002 28.8Z" fill="#9E242E"/>
<path d="M245.1 11.3998C250.3 7.79983 256.4 11.2998 260.5 14.8998C272.1 24.9998 280.7 37.8998 289 50.7998C306.9 79.5998 321.7 110.3 332.8 142.3C338.4 158.9 343.5 175.8 344.7 193.4C342.8 181.2 339.6 169.2 335.5 157.6C324.9 125.7 310.2 95.0998 292.4 66.5998C284.6 54.3998 276.3 42.2998 266.3 31.8998C262.3 27.8998 258 23.6998 252.5 21.8998C248.2 20.5998 244.3 23.5998 240.8 25.6998C231.5 32.9998 224.3 42.3998 217.4 51.8998C205.2 69.1998 194.3 87.3998 184.5 106.1C182.9 109.1 180.9 111.9 178.7 114.4C190.2 87.0998 204.2 60.7998 221.2 36.5998C228.2 27.2998 235.2 17.4998 245.1 11.3998Z" fill="#9E242E"/>
<path d="M96.0999 25.1996C99.8999 22.6996 104.6 20.0996 109.2 22.0996C117.3 25.5996 123.2 32.5996 128.8 39.1996C148 62.7996 162 89.8996 177.3 116C167.7 143.3 156.3 170.7 155.6 200C155.1 209.4 157.6 218.6 161.1 227.3C151 219.9 144.4 208.8 138.3 198.1C122.8 169.2 112.9 137.7 105.1 105.9C99.4999 79.4996 94.2999 52.4996 96.0999 25.1996Z" fill="#FF912E"/>
<path d="M240.9 25.5997C244.4 23.4997 248.3 20.4997 252.6 21.7997C258.1 23.5997 262.4 27.7997 266.4 31.7997C276.4 42.2997 284.7 54.2997 292.5 66.4997C310.3 94.9997 325 125.6 335.6 157.5C339.8 169.1 342.9 181.1 344.8 193.3C345.7 204.1 345.2 215.9 339.3 225.4C334.4 233.4 323.7 236.4 315.1 232.9C303 228 294.9 216.9 288 206.3C269.6 176 258.9 141.7 250.3 107.4C244.5 80.6997 239.1 53.2997 240.9 25.5997Z" fill="#F41CB2"/>
<path d="M62.5001 66.8997C72.1001 51.8997 82.3001 36.7997 96.1001 25.1997C94.3001 52.3997 99.5001 79.4997 105.2 105.9C97.9001 136.9 88.1001 167.5 73.4001 195.8C66.5001 208.5 58.5001 221.3 46.5001 229.7C39.8001 234.5 30.3001 236.2 22.9001 231.9C15.2001 227.6 11.9001 218.5 10.8001 210.2C9.80009 201.3 9.90009 192.2 11.8001 183.4C22.8001 142.4 39.9001 102.9 62.5001 66.8997Z" fill="#F41CB2"/>
<path d="M217.5 51.7996C224.4 42.2996 231.6 32.8996 240.9 25.5996C239.1 53.1996 244.5 80.6996 250.4 107.5C243.5 135.8 234.6 163.7 221.9 189.9C215.9 201.8 209.1 213.5 199.8 223.1C194.4 228.4 187.8 233.4 180 234.2C173 235 166.3 231.8 161.2 227.2C157.7 218.5 155.2 209.3 155.7 199.9C156.4 170.6 167.8 143.1 177.4 115.9C177.7 115.5 178.5 114.7 178.8 114.3C181 111.7 183 109 184.6 106C194.5 87.2996 205.3 69.0996 217.5 51.7996Z" fill="#F25511"/>
</g>
<defs>
<clipPath id="clip0_44_3">
<rect width="905.6" height="244.5" fill="white"/>
</clipPath>
</defs>
</svg>
