<svg xmlns="http://www.w3.org/2000/svg" xml:space="preserve" id="Layer_1" x="0" y="0" style="enable-background:new 0 0 314 169.4" version="1.1" viewBox="0 0 314 169.4"><style type="text/css">.st0{fill:#e3072d}.st2{fill:#fff}</style><path d="M63.4 75.2c7.5 2.1 14.8 9.8 17.3 18.1.8 2 1.1 4.5 1.1 7.3 0 7.6-4.8 14-11.4 16.2 5.6-3.8 7.6-14 2.4-18.6-1 8.3-4.8 12.3-9.4 12.9-1.9 0-7-2.9-9.5-7.6-.9 6 2.1 10.7 6 13.1-4-1.5-7.2-4.5-9.1-8.4-2-3.5-4.3-11-1.4-21.3 2.9 7.1 7.3 11.4 10.8 13.2 8.5-5.9 6.5-19 3.2-24.9z" class="st0"/><path d="M2 4v12.8h6.2l.3 102.4 18.7-.1-.1-38.3C27 59.6 43.7 42.3 64.2 42.3c20.6-.1 37.3 17.1 37.3 38.3l.1 38.3 18.5-.1-.1-102.3h6.2V3.7L2 4z" class="st0"/><path d="M63.4 75.2c7.5 2.1 14.8 9.8 17.3 18.1.8 2 1.1 4.5 1.1 7.3 0 7.6-4.8 14-11.4 16.2 5.6-3.8 7.6-14 2.4-18.6-1 8.3-4.8 12.3-9.4 12.9-1.9 0-7-2.9-9.5-7.6-.9 6 2.1 10.7 6 13.1-4-1.5-7.2-4.5-9.1-8.4-2-3.5-4.3-11-1.4-21.3 2.9 7.1 7.3 11.4 10.8 13.2 8.5-5.9 6.5-19 3.2-24.9z" class="st0"/><path d="M2 4v12.8h6.2l.3 102.4 18.7-.1-.1-38.3C27 59.6 43.7 42.3 64.2 42.3c20.6-.1 37.3 17.1 37.3 38.3l.1 38.3 18.5-.1-.1-102.3h6.2V3.7L2 4zM175.5 49.1h-8.4c-9.6 0-15.2-6.3-15.3-16.6V17.3C151.8 7 157.4.6 167 .6h8.4c9.6 0 15.2 6.4 15.3 16.6v15.2c0 10.3-5.6 16.6-15.2 16.7zm1.4-15.2V15.7c0-5.3-1.5-6.8-5.7-6.8-4.4 0-5.6 1.8-5.6 6.9V34c0 5 1.3 6.8 5.7 6.8 4.1-.1 5.6-1.6 5.6-6.9zM197.9 19.8l-2.5-1.3v-4.7L199 12h10.7l3.6 1.8v4.7l-2.6 1.4 5.5 17.2 5.3-17.2-2.5-1.3v-4.7l3.6-1.8h6.4l3.6 1.8v4.7l-2.8 1.4-9.8 29.7h-11.7l-10.4-29.9zM256.7 42c4.2 0 6.4-1.4 8.8-4 1.2-1.3 3.1.1 2.6 1.7-1.1 3.8-4.3 9.6-14.2 9.6-11.2 0-17.3-6.5-17.3-16.1v-6c0-9.2 5.6-15.9 16.6-15.9 10.6 0 16 4.6 16 20.6L249 34.8c0 5.6 2 7.2 7.7 7.2zm1-14.9v-2.4c0-4.3-.9-5.3-4.3-5.3-3.5 0-4.4 1.2-4.4 5.4v3.7l8.7-1.4zM289.4 40.8l2.6 1.3v4.7l-3.6 1.8h-10.1l-3.6-1.8v-4.7l2.6-1.3-.1-20.7-2.6-1.3v-5.3l4.3-1.8h7.7l2.2 5.3c2.3-4.1 5.1-5.8 10.6-5.9 8.2 0 10.6 5.6 10.6 15.3v14.3l2.4 1.3v4.7l-3.6 1.8H299l-3.6-1.8V42l2.6-1.3v-16c0-2.3-1.1-3.5-4.1-3.5-2 0-3.5.5-4.5 1.2v18.4zM184.6 94.7c0 8.3-3.5 13-16.7 13.1-6.3 0-8.1-2.6-9.4-2.6-.8 0-1.4.8-1.6 2h-4.3V93.7h5.5c1.9 5.2 4.6 6.5 8.4 6.5 4.8 0 6.7-1.2 6.7-3.6v-1.9c0-3.1-3.2-3-9.5-4.2-5.6-1.1-11.7-3.6-11.7-14v-2.7c0-7.4 5-12.3 14.5-12.3 6.9 0 8.2 2.3 9.5 2.3.8 0 1.2-.4 1.5-1.7h4.2V75h-5.3c-1.7-4.9-4.1-5.9-8.3-5.9-3.3 0-5.5.9-5.5 3.5v1.3c0 3.6 4.3 3.7 10.8 5 5.5 1.1 11 3.7 11 13.4l.2 2.4zM195.2 62.2h5.8v10.4h9.2v7.2H201v15c0 4.4.8 6.2 3.3 6.1 2 0 3.3-.6 4.5-1.9 1.3-1.3 3.4-.3 2.2 2.5-1.6 3.5-4.4 6.1-10.3 6.1-6.5 0-11-2.8-11-11.5V79.7h-3.6v-7.2c3.9.1 7.8-2 9.1-10.3zM231.7 107.1h-5.2c-7.4 0-13.2-6.2-13.3-14.6v-5.6c0-8.3 5.6-14.6 13.2-14.6h5.2c7.6 0 13.2 6.3 13.3 14.6v5.6c0 8.3-5.7 14.6-13.2 14.6zm1.7-12.5v-9.9c0-4.1-.9-5-4.3-5-3.6 0-4.2 1.2-4.2 5v9.9c0 3.9.7 5 4.3 5 3.3 0 4.2-1 4.2-5zM277.9 84.5c-.2 1.8-2.8 4.5-6.6 4.5-3.1 0-5.7-1.6-5.7-4.9 0-2.5 1.3-3.3 1.3-3.9 0-.3-.2-.8-1-.8-2.9 0-4.7 2.6-4.7 6.7v13.6l3.2 1.2v4.4L261 107h-10.2l-3.4-1.6V101l2.5-1.2.1-19.6-2.5-1.2v-4.9l4-1.7h7.2l1.8 4.2c1.2-2.6 4.1-4.7 8-4.7 5.5 0 8.6 3.3 8 8.4-.4 4 1.7 2.2 1.4 4.2zM281.1 79.6l-2.3-1.3v-4.4l3.4-1.7h10.2l3.4 1.6v4.4l-2.4 1.3 5.4 13.6 4.6-13.7-2.3-1.3v-4.4l3.4-1.7h6l3.4 1.6V78l-2.6 1.3-10.6 29.7c-3.1 9.2-6.9 10.9-12.1 10.9-7.1 0-10.2-4.6-10.2-8.9 0-4.3 2.6-7 5.9-7 2.6 0 4.6 1.5 4.6 4.2 0 3.2-3 3.3-3 4.5 0 .8.5 1.6 2.3 1.6 2.4 0 3.7-1.3 4.5-3.7l.9-2.6-12.5-28.4z" class="st0"/><path d="M299.1 169.4h-286c-4.9 0-9-3.9-9.8-9.1L.9 144.6c-1-6.7 3.6-12.8 9.8-12.8l291.6-1.2c6.4 0 11.1 6.4 9.8 13.2l-3.2 16.9c-1 5-5 8.7-9.8 8.7z" style="fill:#1d1d1b"/><path d="M11.4 142.7c-.8 0-1.1.2-1.2 1.1l-.3 3.9H7.2v-4.5c0-1.7.5-2.6 2.3-2.6h12.4c1.5 0 1.9.5 1.9 2.1v4.7h-2.1l-.6-3.6c-.2-.9-.4-1.1-1.2-1.1h-2.2v16.6l1.8.9v.8l-1.2.8h-4.5l-1.5-.7V160l1.6-.8v-16.6l-2.5.1zM30.8 152.1v7.2l1.3.6v1l-1.6 1h-3.4l-1.8-.9v-1l1.3-.8v-15.5l-1.3-.9v-1.3l1.5-.9h3.5l1.3.8v1.3l-.9.7v6.2h6.5v-5.9l-1-.7v-1.8l1.5-.8h3.2l1.4.8v1.4l-1.2.9v15.3l1.3.9v1.1l-1.6.8h-3.2l-1.5-.7v-1.1l1-.8v-7.1l-6.3.2zM53.4 149.4l.5-2.1h1.4l.6 2.7v1.6l-.8 2.5H54l-.6-2.1h-3.6v7.7h6.4l1.2-3.6h1.7v4.4l-1.1 1.1H45.8l-1.2-.7v-1.1l1.3-.6v-15.6l-1.3-.9v-1.4l1.4-.9h12.5v5.1h-1.4l-.9-2.9h-6.5v6.7l3.7.1zM73.7 155H75c.2 2.4 2.2 4.2 5.3 4.2 2.8 0 3.9-.8 3.9-2.5 0-2.1-1.6-2.3-5.9-4.2-2.4-1.1-4.7-2.8-4.7-6.7 0-3.7 2.4-5.9 6.1-5.9 2.6 0 3.9 1.3 4.2 1.3.4 0 .5-.6.6-1h2.2v5.9h-1.8c-.5-2.2-1.9-3.8-4.6-3.8-2.4 0-3.6.9-3.6 2.4 0 2.1 1.2 2.8 4.2 4 3.1 1.3 6.9 2.6 6.9 7.2 0 3.9-2.8 6.1-7 6.1-3.7 0-4.3-1.5-4.8-1.5-.3 0-.5.6-.7 1.2h-1.8l.2-6.7zM93.7 142.5c-.8 0-1.1.2-1.2 1.1l-.3 3.9h-2.7V143c0-1.7.5-2.6 2.3-2.6h12.4c1.5 0 1.9.5 1.9 2.1v4.7H104l-.6-3.6c-.2-.9-.4-1.1-1.2-1.1H100v16.6l1.8.9v.8l-1.2.8h-4.5l-1.5-.7v-1.1l1.6-.8v-16.6l-2.5.1zM112.3 158.7l1 .8v1.4l-1.5.8h-3.2l-1.6-.8v-1.4l1.3-.9v-11c0-4.3 2.4-7.4 7-7.4 4.4 0 7.1 2.6 7.1 6.9v11.6l1.3.8v1.3l-1.8.9h-3.4l-1.6-1v-1.3l1.3-.6v-4.9h-5.9v4.8zm5.8-11.8c0-2.9-.5-3.8-2.9-3.8s-3 1.1-3 3.4v4.5h5.9v-4.1zM137.7 143.2l-1-.7V141l1.5-.8h2l1.4.8v1.2l-1.2.9v15.8l1 .9v.9l-1.6.8h-2l-1.6-1.3-7.2-12.6v11l1.3.6v1.3l-1.6 1H127l-1.5-.9v-1.4l1-.8v-15.2l-1.3-.9v-1.2l1.8-.9h1.4l1.4 1 7.6 13.4.3-11.4zM159.1 147.2v6.7c0 4.6-3.1 7.6-8.4 7.6H146l-2.1-.9V159l1.3-.8v-14.4l-1.3-.9V141l2.4-.8h5c5.9 0 7.8 2.7 7.8 7zM155 154v-6.7c0-3.6-.2-4.6-2.7-4.6h-3.1v16h2.7c2.3 0 3.1-1.2 3.1-4.7zM169.1 161.8c-5.6 0-7.3-4.2-7.3-6.9v-8.3c0-3.9 3.3-6.6 7.3-6.6 5.5 0 7.8 2.9 7.8 7.3v6.7c0 4.5-2.8 7.8-7.8 7.8zm3.6-6.5v-9c0-2.5-.8-3.6-3.3-3.6-2.7 0-3.7 1.1-3.7 3.5v9.4c0 2.5 1.2 3.5 3.6 3.5 2.1-.1 3.4-1.5 3.4-3.8zM180.3 154.5v-11.6l-1.1-.8v-1l1.9-.9h2.8l1.9 1v1.3l-1.3.6v11.5c0 3.2 1 4.1 3.3 4.1 2.4 0 3.5-1.1 3.5-3.7v-11.9l-1.4-.8V141l1.9-.8h2.6l1.5.8v1.3l-1.2.9v10.9c0 4.6-2.3 7.7-6.8 7.7-4.5-.1-7.6-2.7-7.6-7.3zM201.4 142.2c-.8 0-1.1.2-1.2 1.1l-.3 3.9h-2.7v-4.5c0-1.7.5-2.6 2.3-2.6h12.4c1.5 0 1.9.5 1.9 2.1v4.7h-2.1l-.6-3.6c-.2-.9-.4-1.1-1.2-1.1h-2.2v16.6l1.8.9v.8l-1.2.8h-4.5l-1.5-.7v-1.1l1.6-.8v-16.6l-2.5.1zM232.2 158.3l1.7 1.1v1l-1.7.8h-3.4l-1.2-.7v-1.3l1.3-1.1v-14.8l-1.4-.9v-1.7l2.1-.8h5.1c5.2 0 7.8 1.7 7.8 5.3v2.4c0 4-3.2 5.5-7.5 5.5h-2.7l-.1 5.2zm3.2-7.9c2 0 2.6-1.2 2.6-3.2v-1.4c0-2-.4-3.1-2.5-3.1h-3.4v7.8l3.3-.1zM249.9 143.2v15l1.9.8v1l-2.1 1.3H246l-2.1-1.1v-1l1.9-1v-14.6l-1.9-1v-1.4l2.2-1h3.5l2.1.9v1.4l-1.8.7zM264.1 158.9l1.4-3.8h2.5v4.8l-1.1 1.4h-13.4l-.4-1.8 10.3-17.4h-6.3l-1.4 4.9h-1.9v-7h14l.5 1.3-10.4 17.6h6.2zM280.8 158.8l1.4-3.8h2.5v4.8l-1.1 1.4h-13.4l-.4-1.8 10.3-17.4h-6.3l-1.4 4.9h-1.9v-7h14l.5 1.3-10.4 17.6h6.2zM292 158.2l1 .8v1.4l-1.5.8h-3.2l-1.6-.8V159l1.3-.9v-11c0-4.3 2.4-7.4 7-7.4 4.4 0 7.1 2.6 7.1 7v11.6l1.3.8v1.3l-1.8.9h-3.4l-1.6-1V159l1.3-.6v-4.9H292v4.7zm5.9-11.8c0-2.9-.5-3.8-2.9-3.8s-3 1.1-3 3.4v4.5h5.9v-4.1z" class="st2"/></svg>