<svg xmlns="http://www.w3.org/2000/svg" xmlns:xlink="http://www.w3.org/1999/xlink" width="600" height="200" viewBox="0 0 600 200">
  <defs>
    <clipPath id="clip-path">
      <rect id="Rectangle_168" data-name="Rectangle 168" width="600" height="200" transform="translate(2847 -10389)" fill="#e4e4e4"/>
    </clipPath>
  </defs>
  <g id="Mask_Group_24" data-name="Mask Group 24" transform="translate(-2847 10389)" clip-path="url(#clip-path)">
    <g id="Instamartlogo" transform="translate(2978.617 -10175.201)">
      <path id="Path_644" data-name="Path 644" d="M21.946-149.5c-6.187,1.063-10.2,3.094-14.26,7.154A23.718,23.718,0,0,0,.919-129.637c-.725,3.674-.725,4.254,0,8.218,1.112,5.849,3.819,13.245,5.8,15.855.725.918,1.45.967,10.054,1.112,6.477.1,9.378.338,9.619.725.532.773.483,9.619-.048,10.393a1.572,1.572,0,0,1-1.547.483c-1.063-.145-1.16-.387-1.305-3.625-.145-3.964-.193-4.012-4.786-4.109-3.915-.1-7.879.58-8.218,1.305-.387,1.112,5.269,10.248,11.5,18.514l2.272,3,2.707-3.239c6.091-7.3,13.245-18.272,16.1-24.653,1.644-3.674,3.529-9.716,3.529-11.36,0-3.77-1.547-4.4-12.085-4.737L26.055-122v-7.009c0-6.526.048-7.009.918-7.154,1.644-.338,2.224,1.208,2.224,5.994v4.5l1.692.338c4.012.725,16.048-.822,16.87-2.175.435-.628-1.112-6.284-2.32-8.653A24.317,24.317,0,0,0,31.42-148.3C28.23-149.262,23.928-149.842,21.946-149.5Z" fill="#2a3138"/>
      <path id="Path_645" data-name="Path 645" d="M128.909-146.058c-3.142,1.982-3.239,7.492-.193,9.668a19.392,19.392,0,0,0,3.48,1.885c2.562,1.112,3.529,2.127,3.094,3.384-.58,1.885-4.012,1.74-5.511-.193l-.918-1.16-2.03,1.16-2.03,1.16,1.547,1.692c1.885,2.175,4.109,2.9,7.879,2.659,2.61-.193,3.045-.387,4.5-1.982a4.65,4.65,0,0,0,1.644-3.77c0-3.19-1.4-4.931-5.559-6.912-3.674-1.74-4.4-2.707-3.045-4.06.822-.822,1.692-.725,2.852.435l.967.967,1.692-1.015c1.982-1.257,2.03-1.885.435-3.384C135.966-147.17,131.132-147.46,128.909-146.058Z" transform="translate(-64.28 -1.367)" fill="#2a3138"/>
      <path id="Path_646" data-name="Path 646" d="M167.535-145.695c.242.773.967,2.852,1.692,4.737.677,1.837,1.934,5.221,2.707,7.492.822,2.272,1.74,4.882,2.079,5.8s.87,1.692,1.16,1.692,1.837-2.61,3.384-5.8l2.9-5.8,2.272,4.834c1.257,2.659,2.465,5.317,2.707,5.946s.677,1.063,1.015.967c.435-.145,2.369-4.979,4.447-11.263.387-1.063,1.353-3.722,2.175-5.946l1.45-3.964h-2.369a9.142,9.142,0,0,0-2.417.145c0,.048-.435,1.305-1.015,2.755-.532,1.45-1.305,3.674-1.692,4.931a5.173,5.173,0,0,1-1.063,2.32,29.842,29.842,0,0,1-2.707-5.076,25.016,25.016,0,0,0-2.8-5.076c-.242,0-1.547,2.32-2.852,5.124-1.353,2.852-2.61,4.931-2.8,4.737a40.143,40.143,0,0,1-2.03-5.124L172.127-147H167.1Z" transform="translate(-86.133 -1.344)" fill="#2a3138"/>
      <path id="Path_647" data-name="Path 647" d="M240-136.366v10.634h4.834V-147H240Z" transform="translate(-123.794 -1.344)" fill="#2a3138"/>
      <path id="Path_648" data-name="Path 648" d="M273.213-146.305a10.586,10.586,0,0,0-4.592,3.915c-1.643,2.465-2.079,7.106-.918,10.151a11.383,11.383,0,0,0,6.767,6.091,18.775,18.775,0,0,0,10.1-.822l1.788-.87v-9.474h-9.184v4.35h2.417c2.224,0,2.417.1,2.417,1.16,0,1.547-.58,1.837-3.384,1.837-5.317,0-8.169-4.447-6.091-9.426A5.878,5.878,0,0,1,281-141.858l1.5.87,1.547-1.5c1.74-1.74,1.5-2.417-1.257-3.722C280.705-147.175,275-147.223,273.213-146.305Z" transform="translate(-137.768 -1.362)" fill="#2a3138"/>
      <path id="Path_649" data-name="Path 649" d="M329.04-146.091c-4.834,2.175-7.057,7.686-5.414,13.293a11.361,11.361,0,0,0,6.767,6.574c3.094.87,8.6.387,10.731-.918l1.74-1.112v-9.088H333.2v4.35h2.465c2.369,0,2.417.048,2.272,1.305-.1,1.063-.483,1.4-1.74,1.644-6.622,1.353-11.118-6.381-6.381-11.07,1.934-1.934,3.915-2.272,6.671-1.063l2.224,1.015,1.45-1.45c1.16-1.16,1.305-1.6.822-2.127C339.095-147.058,332.714-147.783,329.04-146.091Z" transform="translate(-166.719 -1.334)" fill="#2a3138"/>
      <path id="Path_650" data-name="Path 650" d="M374-146.71a16.9,16.9,0,0,0,1.4,2.8c.773,1.353,2.079,3.77,2.949,5.366.918,1.6,2.03,3.529,2.514,4.35.628,1.063.87,2.417.87,4.931v3.529h4.834V-129.4c0-3.335.145-3.964,1.885-7.106,4.012-7.492,5.366-10.054,5.366-10.3a5.817,5.817,0,0,0-2.465-.1l-2.465.145-2.272,4.447a29.406,29.406,0,0,1-2.465,4.5,37.22,37.22,0,0,1-2.659-4.592L379.124-147h-2.562A6.243,6.243,0,0,0,374-146.71Z" transform="translate(-193.02 -1.344)" fill="#2a3138"/>
      <path id="Path_651" data-name="Path 651" d="M420-106.792v1.208H552.931V-108H420Z" transform="translate(-216.784 -21.492)" fill="#2a3138"/>
      <path id="Path_652" data-name="Path 652" d="M299.317-82.65v4.35H294v9.184h5.317v8.266c0,9.426.435,11.456,2.707,13.486,2.8,2.417,8.749,2.949,13.148,1.16,1.789-.725,1.789-.435.677-4.786l-.87-3.384-1.837.145a3.312,3.312,0,0,1-2.755-.677c-.822-.725-.918-1.547-.918-7.541v-6.671h6.284V-78.3h-6.284V-87H299.317Z" transform="translate(-151.691 -32.341)" fill="#2a3138"/>
      <path id="Path_653" data-name="Path 653" d="M632.958-86.662a14.254,14.254,0,0,0-.338,4.109v3.77h-3.577c-4.109,0-7.057.87-9.571,2.9a9.615,9.615,0,0,1-2.03,1.45c-.145,0-.29-.87-.29-1.934v-1.982l-4.93.145-4.979.145-.145,16.1L607-45.912h10.151v-10.1c0-8.894.1-10.248.822-10.973,1.547-1.547,4.205-2.224,9.426-2.514l5.124-.242.193,9.136c.145,8.653.193,9.233,1.305,11.166,1.305,2.272,3.722,3.722,7.154,4.254,2.272.338,6.816-.435,8.169-1.4.87-.628.87-.773.048-4.3l-.87-3.577-2.079.193c-3.287.387-3.674-.532-3.674-8.653V-69.6h6.767v-9.184h-6.767V-87h-4.737A21.108,21.108,0,0,0,632.958-86.662Z" transform="translate(-313.391 -32.341)" fill="#2a3138"/>
      <path id="Path_654" data-name="Path 654" d="M174.048-69.023a14.136,14.136,0,0,0-3.915,2.224,6.091,6.091,0,0,1-1.644,1.257c-.193,0-.338-.87-.338-1.934v-1.982l-4.931.145-4.979.145L158.1-53.12l-.1,16.1h10.151V-57.857l1.257-1.16a7.744,7.744,0,0,1,7.057-1.74c3.19.967,3.287,1.4,3.287,13.2v10.538H189.9V-49.93c0-12.133-.048-13-1.015-15.033-1.6-3.19-4.012-4.592-8.556-4.786A14.613,14.613,0,0,0,174.048-69.023Z" transform="translate(-81.431 -41.23)" fill="#2a3138"/>
      <path id="Path_655" data-name="Path 655" d="M241.351-69.432a13.549,13.549,0,0,0-7.009,4.592c-1.208,1.644-1.353,2.175-1.353,5.559,0,3.722,0,3.77,1.934,5.752,2.03,2.079,5.366,3.432,10.2,4.109a24.268,24.268,0,0,1,4.205,1.063c1.45.628,1.789.967,1.789,2.079,0,3.045-5.946,3.19-11.891.29a35.262,35.262,0,0,0-3.722-1.74,8.761,8.761,0,0,0-1.6,2.32c-.725,1.257-1.643,2.755-1.982,3.335-.628.967-.58,1.112,1.547,2.32a26.665,26.665,0,0,0,16.483,3.19c6.961-1.257,10.876-5.027,10.876-10.393,0-5.8-2.755-8.363-11.166-10.248-6.574-1.45-7.347-1.837-7.154-3.239.387-2.659,5.849-2.9,10.634-.387,3.094,1.6,2.8,1.692,5.124-2.417l1.547-2.707-2.32-1.257A25.02,25.02,0,0,0,241.351-69.432Z" transform="translate(-119.441 -41.159)" fill="#2a3138"/>
      <path id="Path_656" data-name="Path 656" d="M356.445-69.4c-2.61.532-7.541,2.755-8.508,3.819-.628.677-.532,1.112,1.015,3.77l1.692,3.045,1.982-1.208c4.447-2.562,10.054-2.659,12.52-.193,1.16,1.112,1.353,1.74,1.353,4.06V-53.4l-1.257-.967c-3-2.32-9.233-3.094-13.438-1.692a8.624,8.624,0,0,0-6.091,6.719c-1.208,5.9,1.74,10.925,7.4,12.568a9.919,9.919,0,0,0,5.946.242,18.375,18.375,0,0,0,5.269-1.982l2.175-1.4v2.9H376.65V-48.177a106.666,106.666,0,0,0-.532-13.245,11.155,11.155,0,0,0-6.332-7.009C366.934-69.688,360.07-70.171,356.445-69.4Zm7.492,19.577c2.127.918,2.562,1.45,2.562,3.432,0,1.934-1.547,3.045-4.737,3.384-2.755.338-4.592-.29-5.7-1.982-1.16-1.74-.435-3.625,1.74-4.689A6.559,6.559,0,0,1,363.937-49.821Z" transform="translate(-178.268 -41.242)" fill="#2a3138"/>
      <path id="Path_657" data-name="Path 657" d="M436.193-69.308a24.764,24.764,0,0,0-3.964,2.127l-2.03,1.45-.145-1.789-.145-1.789h-9.668l-.145,16.1L420-37.163h10.151V-58.384l1.257-.967c2.079-1.644,4.64-2.224,6.284-1.45,2.417,1.16,2.61,2.175,2.61,13.341v10.3h10.151V-47.7c0-11.795-.1-11.36,3.577-12.906,2.272-.967,4.3-.58,5.607,1.063.918,1.16.967,1.934.967,11.795v10.586h10.151V-49.634c0-7.154-.242-13.2-.532-14.26-1.934-6.961-11.6-8.314-18.127-2.61-1.353,1.208-2.369,1.789-2.465,1.45C448.278-69.066,441.511-71.193,436.193-69.308Z" transform="translate(-216.784 -41.09)" fill="#2a3138"/>
      <path id="Path_658" data-name="Path 658" d="M542.691-69.033c-3.384.87-7.734,3.19-7.734,4.06a43.655,43.655,0,0,0,3.142,6.091,13.106,13.106,0,0,0,2.224-1.063c4.5-2.514,9.378-2.707,12.036-.435,1.305,1.063,1.45,1.5,1.45,4.06v2.8l-1.692-1.112c-6.091-4.157-16.387-2.079-18.562,3.722a14.849,14.849,0,0,0,.145,8.218c2.32,5.511,9.861,7.928,16.1,5.221a11.312,11.312,0,0,0,3.142-1.885c.532-.628.677-.532.87.677l.242,1.4,4.979.145,4.931.145V-48.972c0-10.731-.1-12.181-.918-14.018-1.257-2.659-2.514-3.867-5.8-5.366C553.664-70,547.332-70.29,542.691-69.033Zm9.958,19.674a3.441,3.441,0,0,1-.1,5.366c-3,1.982-8.943.918-9.281-1.692-.29-2.03.387-3.48,1.982-4.205C547.138-50.713,551.005-50.471,552.649-49.359Z" transform="translate(-275.185 -41.22)" fill="#2a3138"/>
      <path id="Path_659" data-name="Path 659" d="M125-52.858v16.242l4.979-.145,4.931-.145v-31.9l-4.931-.145L125-69.1Z" transform="translate(-64.383 -41.588)" fill="#2a3138"/>
    </g>
  </g>
</svg>
