<svg width="132" height="32" viewBox="0 0 199 48" fill="none" xmlns="http://www.w3.org/2000/svg"><path d="M50.2182 12.1831C50.2182 4.27952 45.0519 0 38.6519 0C28.3001 0 22.3821 9.02169 22.3821 28.8V30.5349C12.6664 24.8482 7.30736 18.6602 7.30736 12.1253C7.30736 8.23132 9.62061 6.24578 12.5315 6.24578C14.3242 6.24578 16.117 7.28675 18.411 9.58072C19.5483 10.7181 21.264 10.0241 22.3628 8.79036C23.3652 7.69157 23.8086 6.16867 22.7483 5.03132C19.5098 1.52289 15.6351 0 12.2616 0C6.20857 0 0.695312 4.26024 0.695312 12.1831C0.695312 22.1301 8.46399 30.1687 22.7098 37.6482V46.1494C22.7098 47.3831 24.2905 48 25.8327 48C27.4134 48 28.9556 47.3831 28.9556 46.1494L28.8592 37.6482C42.7965 30.2458 50.2182 22.1108 50.2182 12.1831ZM28.8784 30.5349V28.8771C28.8784 19.894 29.7652 6.24578 38.7098 6.24578C41.6399 6.24578 43.9339 8.2506 43.9339 12.1253C43.9531 18.6795 38.6134 24.8482 28.8784 30.5349Z" fill="#ED1B3F"></path><path fill-rule="evenodd" clip-rule="evenodd" d="M121.004 17.5615H118.575V41.8314H121.004V17.5615ZM60.0305 30.6699C61.7847 27.3543 66.3148 25.2916 71.9245 25.2916C79.1148 25.2916 84.551 28.8579 84.551 33.5422C84.551 38.2651 79.1341 41.8121 71.9245 41.8121C66.3148 41.8121 61.7847 39.7687 60.0305 36.4724V47.9808H57.6016V25.6193H60.0305V30.6699ZM71.9245 39.4796C76.7052 39.4796 81.7943 37.3976 81.7943 33.5615C81.7943 29.7254 76.7052 27.6627 71.9245 27.6434C66.9702 27.6434 61.7076 29.7254 61.7076 33.5615C61.7076 37.4169 66.9702 39.4796 71.9245 39.4796ZM99.4712 25.2916C105.081 25.2916 109.611 27.3543 111.365 30.6699V25.6386H113.794V41.5037H111.365V36.4916C109.611 39.788 105.081 41.8314 99.4712 41.8314C92.2809 41.8314 86.8447 38.2651 86.8447 33.5615C86.8447 28.8386 92.2616 25.2916 99.4712 25.2916ZM109.688 33.5808C109.688 29.7254 104.425 27.6627 99.4712 27.6627C94.6712 27.6627 89.6014 29.7254 89.6014 33.5808C89.6014 37.4362 94.6905 39.4989 99.4712 39.4989C104.425 39.4989 109.688 37.4169 109.688 33.5808ZM124.474 33.5615C124.474 28.8386 129.891 25.2916 137.1 25.2916C145.004 25.2916 149.727 29.2627 149.727 33.0796C149.727 33.9856 149.206 34.4483 148.127 34.4868H127.211C127.886 37.4169 131.934 39.4603 137.1 39.4603C141.033 39.4603 144.233 38.4386 145.89 36.6458L145.948 36.588H149.09L148.936 36.8772C147.356 39.9422 142.825 41.8314 137.1 41.8314C128.811 41.8314 124.474 37.6675 124.474 33.5615ZM137.081 27.6627C132.262 27.6627 128.252 29.5326 127.288 32.2507H146.97C146.083 29.2434 141.341 27.6627 137.081 27.6627ZM174.787 23.1133H167.867V17.5615H165.438V23.1133H157.361V17.5615H154.932V23.1133H147.973V25.3688H154.932V41.8314H157.361V25.3688H165.438V41.8314H167.867V25.3688H174.787V23.1133ZM185.678 25.3109C193.582 25.3109 198.305 29.2627 198.305 33.0989C198.305 34.0049 197.784 34.4675 196.705 34.5061H175.789C176.464 37.4362 180.512 39.4796 185.678 39.4796C189.611 39.4796 192.811 38.4579 194.469 36.6651L194.526 36.6073H197.669L197.514 36.8965C195.934 39.9615 191.404 41.8507 185.678 41.8507C177.389 41.8507 173.052 37.6868 173.052 33.5808C173.052 28.8579 178.469 25.3109 185.678 25.3109ZM175.866 32.2507H195.548C194.681 29.2434 189.939 27.6627 185.659 27.6627C180.84 27.6627 176.83 29.5326 175.866 32.2507Z" fill="#0C0C0C"></path><path fill-rule="evenodd" clip-rule="evenodd" d="M135.038 10.7953C135.327 11.258 135.732 11.6821 136.175 12.0098C136.946 12.5688 137.833 12.8772 138.797 12.8965H138.797C139.009 12.8965 139.24 12.8965 139.452 12.858C139.799 12.8001 140.127 12.7037 140.455 12.5688C141.187 12.2604 141.804 11.7592 142.267 11.123C142.575 10.6796 142.826 10.1784 142.961 9.61941C143.095 9.04109 143.115 8.48206 143.038 7.92302C142.845 6.76639 142.247 5.76398 141.361 5.08928C140.628 4.53025 139.761 4.24109 138.835 4.24109C138.623 4.24109 138.392 4.26037 138.18 4.29893C137.814 4.35676 137.447 4.45314 137.12 4.58808C136.927 4.66519 136.734 4.76158 136.541 4.87724H136.522C136.021 5.20495 135.616 5.57121 135.288 6.01459C134.941 6.45796 134.691 6.95917 134.556 7.5182C134.402 8.07724 134.363 8.65555 134.459 9.19531C134.536 9.7929 134.729 10.3134 135.038 10.7953ZM136.503 3.08447C136.946 2.8917 137.409 2.75675 137.91 2.67965C138.199 2.64109 138.508 2.60254 138.816 2.60254C139.336 2.60254 139.838 2.66037 140.339 2.79531H140.358L140.532 2.85314H140.551C141.785 3.21941 142.883 4.02904 143.635 5.08928C143.732 5.22422 143.809 5.33989 143.867 5.45555C144.175 5.97603 144.406 6.51579 144.541 7.07483C144.599 7.28688 144.638 7.53748 144.676 7.78808C144.753 8.53989 144.715 9.27242 144.541 9.98567C144.406 10.5447 144.175 11.0845 143.867 11.6049L143.635 11.9905L144.985 13.3399C145.37 13.7447 145.37 14.3616 144.985 14.7471C144.811 14.9399 144.561 15.0363 144.291 15.0363C144.04 15.0363 143.789 14.9399 143.597 14.7471L142.267 13.417L141.881 13.6483C141.785 13.7062 141.708 13.7447 141.63 13.7833L141.592 13.8025C141.438 13.8796 141.283 13.9568 141.129 14.0146C140.667 14.2074 140.185 14.3423 139.703 14.4194C139.394 14.4772 139.105 14.4965 138.797 14.4965C138.315 14.4965 137.814 14.4387 137.312 14.323C136.561 14.1303 135.867 13.8025 135.23 13.3399C134.594 12.8772 134.074 12.3182 133.669 11.6628L133.38 11.1423C133.148 10.6604 132.975 10.1399 132.879 9.58085V9.52302C132.859 9.50374 132.859 9.48447 132.859 9.46519L132.84 9.3688C132.802 9.09892 132.782 8.82905 132.782 8.57844C132.782 8.21218 132.802 7.82663 132.879 7.46037C132.891 7.37567 132.91 7.29857 132.928 7.22906C132.939 7.18783 132.949 7.14927 132.956 7.11338C133.148 6.38085 133.476 5.68688 133.958 5.05073C134.44 4.43386 135.018 3.91338 135.674 3.50856C135.944 3.35435 136.214 3.20013 136.503 3.08447ZM114.835 14.5736C111.462 14.5736 109.515 12.8001 109.515 8.61699C109.515 4.58807 111.462 2.64108 114.835 2.64108C116.898 2.64108 118.247 3.45072 118.941 4.47241C119.076 4.66518 119.134 4.83867 119.134 5.03144C119.134 5.53265 118.729 5.93747 118.209 5.93747C117.977 5.93747 117.727 5.82181 117.515 5.59048C116.821 4.8194 116.069 4.3953 114.835 4.3953C112.58 4.3953 111.558 5.78325 111.558 8.59771C111.558 11.5664 112.58 12.7808 114.835 12.7808C116.088 12.7808 116.782 12.4917 117.592 11.6628C117.862 11.3929 118.093 11.2965 118.324 11.2965C118.845 11.2965 119.25 11.7206 119.25 12.2218C119.25 12.4339 119.172 12.6073 119.076 12.7423C118.266 13.8218 116.666 14.5736 114.835 14.5736ZM120.85 13.3977V3.7399C120.85 3.20014 121.293 2.75676 121.833 2.73749C122.373 2.73749 122.816 3.18086 122.816 3.72062V12.4917H126.845C127.404 12.4917 127.789 12.9158 127.789 13.417C127.789 13.9568 127.404 14.3423 126.845 14.3423H121.813C121.254 14.3423 120.85 13.9375 120.85 13.3977ZM129.216 6.93989V13.3592C129.216 13.8989 129.659 14.3423 130.199 14.3423C130.739 14.3423 131.182 13.8989 131.182 13.3592V6.93989C131.182 6.40013 130.739 5.95676 130.199 5.95676C129.659 5.95676 129.216 6.40013 129.216 6.93989Z" fill="#0C0C0C"></path><path d="M128.849 2.0433C128.464 2.42884 128.464 3.04571 128.849 3.43125L130.064 4.6457C130.449 5.03125 131.066 5.03125 131.452 4.6457C131.837 4.26016 131.837 3.6433 131.452 3.23848L130.237 2.02402C130.044 1.83125 129.794 1.73486 129.543 1.73486C129.293 1.75414 129.042 1.85052 128.849 2.0433Z" fill="#ED1B3F"></path><path fill-rule="evenodd" clip-rule="evenodd" d="M68.6473 6.16863V2.7373C64.8305 2.7373 61.2257 2.7373 57.6016 2.7373V6.16863H60.8401V14.3614H65.4088V6.16863H68.6473ZM74.3726 7.49875L72.0787 14.3614H67.51L71.8859 2.7373C73.6016 2.7373 75.1245 2.7373 76.8401 2.7373L81.216 14.3614H76.6473L74.3726 7.49875ZM91.1437 6.16863V2.7373C87.5196 2.7373 83.722 2.7373 80.098 2.7373V6.16863H83.3365V14.3614H87.9052V6.16863H91.1437ZM96.8498 7.49875L94.5558 14.3614H89.9871L94.363 2.7373C96.0787 2.7373 97.6016 2.7373 99.3172 2.7373L103.693 14.3614H99.1245L96.8498 7.49875Z" fill="#0C0C0C"></path></svg>