<svg xmlns="http://www.w3.org/2000/svg" width="900" height="500" viewBox="0 0 900 500" version="1.1"><path d="M 491.520 127.115 C 459.903 131.719, 433.178 149.385, 417.587 175.988 C 405.709 196.254, 400.011 219.710, 400.004 248.372 C 399.998 272.933, 403.520 291.850, 411.552 310.393 C 424.331 339.893, 448.989 361.425, 478.500 368.855 C 512.730 377.472, 547.819 372.598, 574.550 355.514 C 586.904 347.619, 600.130 332.749, 607.016 319.013 C 610.369 312.325, 615 300.703, 615 298.977 C 615 298.368, 605.799 298, 590.539 298 L 566.077 298 565.006 302.250 C 558.885 326.524, 545.261 346.154, 529.214 353.817 C 521.838 357.339, 521.039 357.500, 510.984 357.500 C 501.129 357.500, 500.051 357.295, 493.819 354.229 C 473.561 344.264, 458.965 319.305, 452.458 283.500 C 450.271 271.467, 449.391 239.280, 450.900 226.488 C 454.308 197.586, 462.609 174.878, 475.683 158.690 C 494.001 136.009, 520.311 133.089, 540.752 151.467 C 550.250 160.007, 559.006 175.695, 564.072 193.250 L 566.308 201 590.654 201 C 605.839 201, 615 200.632, 615 200.023 C 615 199.485, 613.901 196.125, 612.557 192.556 C 598.869 156.189, 571.516 133.672, 533.500 127.475 C 523.742 125.884, 501.292 125.692, 491.520 127.115 M 755.585 127.107 C 732.848 130.423, 709.023 142.869, 694.927 158.794 C 673.096 183.457, 662.771 217.905, 665.039 258.501 C 667.793 307.777, 688.569 344.052, 724.097 361.617 C 734.637 366.828, 740.931 368.823, 753.849 371.047 C 784.712 376.359, 815.732 370.737, 839.550 355.514 C 851.904 347.619, 865.130 332.749, 872.016 319.013 C 875.369 312.325, 880 300.703, 880 298.977 C 880 298.368, 870.799 298, 855.539 298 L 831.077 298 830.005 302.250 C 822.070 333.706, 803.747 355.332, 781.907 359.016 C 768.120 361.341, 756.945 357.107, 745 345.031 C 731.284 331.165, 722.720 312.190, 717.352 283.775 C 714.890 270.742, 714.375 236.212, 716.430 222 C 720.837 191.537, 730.081 169.292, 744.500 154.452 C 753.304 145.392, 760.974 141.323, 771.813 139.964 C 780.545 138.869, 787.392 140.134, 795.767 144.388 C 810.115 151.676, 822.398 170.190, 829.510 195.250 L 831.142 201 855.590 201 L 880.038 201 879.376 198.250 C 877.323 189.727, 870.032 174.970, 863.442 166 C 848.202 145.255, 824.968 131.572, 798 127.460 C 787.755 125.898, 765.162 125.710, 755.585 127.107 M 19.177 129.750 C 19.366 130.162, 21.810 135, 24.609 140.500 C 30.232 151.550, 30.176 151.412, 63.347 236.500 C 108.870 353.275, 116.342 372, 117.415 371.998 C 118.012 371.997, 125.213 354.335, 133.418 332.748 C 141.622 311.162, 152.041 283.825, 156.570 272 C 161.099 260.175, 171.181 233.850, 178.974 213.500 C 193.327 176.020, 202.734 153.033, 209.670 138.500 C 211.769 134.100, 213.640 130.162, 213.827 129.750 C 214.014 129.338, 208.791 129, 202.220 129 L 190.274 129 189.770 135.281 C 189.147 143.040, 187.931 146.479, 157.948 225.280 C 144.553 260.482, 133.208 288.903, 132.626 288.709 C 132.047 288.516, 121.738 262.515, 109.717 230.929 C 81.113 155.765, 77.322 145.077, 74.537 131.750 L 73.962 129 46.398 129 C 31.237 129, 18.988 129.338, 19.177 129.750 M 246.464 130.750 C 249.964 139.778, 250 141.047, 250 256.717 L 250 370.014 316.250 369.757 L 382.500 369.500 383.647 351.500 C 384.278 341.600, 384.809 331.250, 384.827 328.500 L 384.860 323.500 383.137 328.547 C 378.191 343.035, 367.156 351.441, 349.699 354.019 C 337.399 355.835, 308.587 354.939, 303.928 352.596 C 297.032 349.128, 297.527 357.620, 297.233 237.750 L 296.965 129 271.376 129 C 247.413 129, 245.829 129.111, 246.464 130.750" stroke="none" fill="#f46d26" fill-rule="evenodd"/><path d="M -0 250.001 L -0 500.002 450.250 499.751 L 900.500 499.500 900.752 249.750 L 901.004 0 450.502 0 L 0 0 -0 250.001 M 0.492 250.500 C 0.492 388, 0.608 444.101, 0.750 375.170 C 0.892 306.238, 0.892 193.738, 0.750 125.170 C 0.608 56.601, 0.492 113, 0.492 250.500 M 491.520 127.115 C 459.903 131.719, 433.178 149.385, 417.587 175.988 C 405.709 196.254, 400.011 219.710, 400.004 248.372 C 399.998 272.933, 403.520 291.850, 411.552 310.393 C 424.331 339.893, 448.989 361.425, 478.500 368.855 C 512.730 377.472, 547.819 372.598, 574.550 355.514 C 586.904 347.619, 600.130 332.749, 607.016 319.013 C 610.369 312.325, 615 300.703, 615 298.977 C 615 298.368, 605.799 298, 590.539 298 L 566.077 298 565.006 302.250 C 558.885 326.524, 545.261 346.154, 529.214 353.817 C 521.838 357.339, 521.039 357.500, 510.984 357.500 C 501.129 357.500, 500.051 357.295, 493.819 354.229 C 473.561 344.264, 458.965 319.305, 452.458 283.500 C 450.271 271.467, 449.391 239.280, 450.900 226.488 C 454.308 197.586, 462.609 174.878, 475.683 158.690 C 494.001 136.009, 520.311 133.089, 540.752 151.467 C 550.250 160.007, 559.006 175.695, 564.072 193.250 L 566.308 201 590.654 201 C 605.839 201, 615 200.632, 615 200.023 C 615 199.485, 613.901 196.125, 612.557 192.556 C 598.869 156.189, 571.516 133.672, 533.500 127.475 C 523.742 125.884, 501.292 125.692, 491.520 127.115 M 755.585 127.107 C 732.848 130.423, 709.023 142.869, 694.927 158.794 C 673.096 183.457, 662.771 217.905, 665.039 258.501 C 667.793 307.777, 688.569 344.052, 724.097 361.617 C 734.637 366.828, 740.931 368.823, 753.849 371.047 C 784.712 376.359, 815.732 370.737, 839.550 355.514 C 851.904 347.619, 865.130 332.749, 872.016 319.013 C 875.369 312.325, 880 300.703, 880 298.977 C 880 298.368, 870.799 298, 855.539 298 L 831.077 298 830.005 302.250 C 822.070 333.706, 803.747 355.332, 781.907 359.016 C 768.120 361.341, 756.945 357.107, 745 345.031 C 731.284 331.165, 722.720 312.190, 717.352 283.775 C 714.890 270.742, 714.375 236.212, 716.430 222 C 720.837 191.537, 730.081 169.292, 744.500 154.452 C 753.304 145.392, 760.974 141.323, 771.813 139.964 C 780.545 138.869, 787.392 140.134, 795.767 144.388 C 810.115 151.676, 822.398 170.190, 829.510 195.250 L 831.142 201 855.590 201 L 880.038 201 879.376 198.250 C 877.323 189.727, 870.032 174.970, 863.442 166 C 848.202 145.255, 824.968 131.572, 798 127.460 C 787.755 125.898, 765.162 125.710, 755.585 127.107 M 19.177 129.750 C 19.366 130.162, 21.810 135, 24.609 140.500 C 30.232 151.550, 30.176 151.412, 63.347 236.500 C 108.870 353.275, 116.342 372, 117.415 371.998 C 118.012 371.997, 125.213 354.335, 133.418 332.748 C 141.622 311.162, 152.041 283.825, 156.570 272 C 161.099 260.175, 171.181 233.850, 178.974 213.500 C 193.327 176.020, 202.734 153.033, 209.670 138.500 C 211.769 134.100, 213.640 130.162, 213.827 129.750 C 214.014 129.338, 208.791 129, 202.220 129 L 190.274 129 189.770 135.281 C 189.147 143.040, 187.931 146.479, 157.948 225.280 C 144.553 260.482, 133.208 288.903, 132.626 288.709 C 132.047 288.516, 121.738 262.515, 109.717 230.929 C 81.113 155.765, 77.322 145.077, 74.537 131.750 L 73.962 129 46.398 129 C 31.237 129, 18.988 129.338, 19.177 129.750 M 246.464 130.750 C 249.964 139.778, 250 141.047, 250 256.717 L 250 370.014 316.250 369.757 L 382.500 369.500 383.647 351.500 C 384.278 341.600, 384.809 331.250, 384.827 328.500 L 384.860 323.500 383.137 328.547 C 378.191 343.035, 367.156 351.441, 349.699 354.019 C 337.399 355.835, 308.587 354.939, 303.928 352.596 C 297.032 349.128, 297.527 357.620, 297.233 237.750 L 296.965 129 271.376 129 C 247.413 129, 245.829 129.111, 246.464 130.750" stroke="none" fill="#fcfbfb" fill-rule="evenodd"/></svg>